<svg fill="none" height="138" viewBox="0 0 301 138" width="301" xmlns="http://www.w3.org/2000/svg" xmlns:xlink="http://www.w3.org/1999/xlink"><clipPath id="a"><path d="m0 0h301v138h-301z"/></clipPath><g clip-path="url(#a)" fill="#408f95"><path d="m63.9465 15.3347c-.2618 0-.5127-.1465-.6326-.396-.3763-.7757-.5236-1.5514-.4472-2.2999.3981-3.8296 6.3696-5.73896 10.7323-7.13301 4.6026-1.46999 9.478-2.31618 14.4842-2.51146.3708-.02712.7144.28207.7307.67262.0164.38512-.289.71058-.6762.72686-4.8808.18985-9.6252 1.00892-14.1079 2.44094-3.5393 1.13368-9.4671 3.02677-9.767 5.95045-.0491.4936.0545 1.0144.3163 1.5568.169.3472.0218.7648-.3272.933-.0982.0488-.2018.0705-.3054.0705z"/><path d="m142.601 19.6144s-.055 0-.082 0c-1.129-.1302-2.258-.3634-3.354-.6997-1.456-.4448-2.541-.9873-2.999-1.2151l-.153-.0759c-4.968-2.3976-10.094-4.6107-15.231-6.5689-4.728-1.80085-8.469-3.22744-13.498-4.47503-5.306-1.31269-10.8027-2.12091-16.3324-2.39213-.3872-.0217-.6871-.34715-.6653-.73228s.3435-.68346.7362-.66177c5.6224.27664 11.2065 1.09571 16.6055 2.43552 5.115 1.26929 8.884 2.70673 13.661 4.52388 5.175 1.97441 10.339 4.19841 15.34 6.61221l.169.0814c.469.2332 1.445.7214 2.787 1.1337 1.014.3092 2.056.5261 3.103.6455.387.0434.66.3905.616.7702-.038.358-.343.6184-.698.6184z"/><path d="m76.9255 27.7075c-.1091 0-.2182-.0271-.3218-.0759-1.2052-.6238-3.0048-1.5785-4.7117-2.5983-.4527-.2712-1.2979-.7702-2.3886-1.5025-.3327-.2224-.6926-.4665-1.0634-.7377-1.3307-.9439-2.6177-1.9691-3.8338-3.0431-.0327-.0325-.0654-.0651-.0927-.103-.06-.076-.1527-.1899-.2726-.3309-1.2325-1.4863-2.3941-3.0322-1.9087-4.1388.1527-.3525.529-.7811 1.4342-.8299.3927-.0271.7199.2712.7417.6564.0218.3851-.2727.716-.6599.7377-.1145.0054-.1854.0217-.229.0325 0 .2495.2563.9059 1.7069 2.6525.1091.1302.1963.2387.2618.32 1.167 1.0252 2.3994 2.0016 3.6701 2.9075.3654.2603.7089.4936 1.0307.716 1.0579.7106 1.8814 1.1987 2.3231 1.4645 1.6797.9981 3.4466 1.9419 4.6354 2.5549.3436.179.4799.5967.2999.9438-.1254.2387-.3708.3797-.6216.3797z"/><path d="m104.885 31.781c-6.8603 0-13.448-.7703-13.5298-.7811-4.1391-.5153-8.3164-1.2747-12.4065-2.2565-.3763-.0923-.6107-.4665-.518-.8408s.4689-.6075.8452-.5153c4.041.9709 8.1638 1.7195 12.2484 2.224.0872.0108 9.3637 1.0957 17.2817.6726 2.454-.1302 4.946-.4286 7.4-.895 1.096-.2062 1.691-.3526 4.183-.9547l3.016-.7323c.987-.2387 1.848-.4557 2.612-.6455 2.279-.5696 3.785-.9493 5.246-1.0523 2.165-.1519 4.374.0325 6.555.5533.376.0867.611.4665.518.8407-.087.3743-.463.6076-.845.5153-2.045-.4827-4.107-.6563-6.13-.5153-1.341.0922-2.721.4394-5 1.0144-.769.1953-1.636.4122-2.624.6509l-3.015.7323c-2.46.5967-3.12.7594-4.254.9709-2.514.4719-5.066.7811-7.586.9167-1.314.0706-2.661.0977-3.997.0977z"/><path d="m144.809 19.6631c-.3 0-.578-.1953-.671-.4936-.114-.3689.093-.7594.464-.8734 1.636-.499 10.165-3.0484 17.195-4.079 3.43-.5045 5.944-.5533 8.681-.1736.895.1247 1.789.2983 2.662.5099.376.0922.605.4719.512.8462-.092.3742-.469.6075-.851.5098-.823-.2007-1.674-.3634-2.524-.4827-2.596-.3634-4.996-.3146-8.284.1681-6.926 1.0198-15.368 3.5367-16.987 4.0357-.071.0217-.137.0326-.208.0326z"/><path d="m165.009 45.0493c-.05 0-.099 0-.148-.0163-3.141-.6726-8.485-3.26-10.437-5.0446-1.686-1.253-3.033-2.2457-4.178-3.0918-3.964-2.9237-5.606-4.1279-10.814-8.4891-.294-.2495-.332-.6889-.087-.9818.251-.2929.692-.3309.987-.0868 5.175 4.3286 6.806 5.5328 10.749 8.4348 1.156.8516 2.514 1.8497 4.215 3.119.022.0163.038.0326.06.0488 1.756 1.6273 6.888 4.1008 9.805 4.7246.382.0814.622.4502.54.8299-.071.3255-.36.5533-.687.5533z"/><path d="m165.009 45.0493c-.186 0-.377-.0759-.513-.2224-1.827-1.9365-4.172-5.1965-4.952-9.7312-.234-1.3561-.779-4.5293.502-8.1365 1.173-3.2925 3.218-5.1965 5.584-7.4042 2.078-1.9365 4.439-3.5963 7.024-4.9415.344-.179.769-.0488.949.2929s.049.7648-.294.9438c-2.471 1.2856-4.728 2.8749-6.713 4.7246-2.324 2.1643-4.161 3.8784-5.219 6.8509-1.162 3.2654-.66 6.1891-.442 7.4367.72 4.193 2.896 7.2144 4.592 9.0098.267.2821.251.7215-.033.9873-.136.1247-.311.1898-.48.1898z"/><path d="m155.209 23.2272c-.207 0-.409-.0868-.545-.2604-.246-.2983-.197-.7377.103-.9818 1.194-.9601 2.503-1.7792 3.888-2.4247 1.669-.7811 3.442-1.3181 5.268-1.6001.382-.0597.742.2007.802.5858.06.3797-.202.7377-.589.7974-1.696.2603-3.337.7594-4.886 1.4862-1.282.6021-2.498 1.3561-3.605 2.2511-.131.1031-.283.1573-.442.1573z"/><path d="m158.083 38.3882c-.147 0-.3-.0489-.431-.1465-1.516-1.1662-4.21-3.6777-5.17-7.3988-.294-1.1499-.916-3.5475.169-5.9938.153-.3418.333-.6781.535-.9927.212-.3254.643-.4177.97-.2061.328.2115.42.6401.208.9655-.164.2495-.311.5208-.431.7974-.889 2.007-.371 4.0086-.093 5.088.856 3.3197 3.294 5.587 4.668 6.6394.306.2332.366.6726.126.9818-.137.179-.344.2712-.557.2712z"/><path d="m88.8902 23.3951c-.1472 0-.2944 0-.4471-.0109-3.1903-.1356-5.448-1.6652-6.5114-2.5657-.2945-.2495-.3326-.6889-.0818-.9818.2509-.2929.6926-.3309.9871-.0813.927.7865 2.8957 2.1154 5.6606 2.2348 2.7758.1139 4.6626-1.0415 5.9115-1.8117.6816-.4231.9434-.6781 1.0307-.792-.2073-.2332-1.1016-.6401-4.0028-1.1554-2.6068-.461-5.3498-.5749-8.1528-.3363-.3872.0271-.7253-.2495-.7581-.6346-.0327-.3851.2509-.7215.6381-.754 2.923-.2495 5.7915-.1302 8.5182.3526 2.6667.4719 5.0716 1.0198 5.1862 2.4626.0545.6564-.4636 1.2693-1.7233 2.045-1.2488.7702-3.2993 2.0287-6.2605 2.0287z"/><path d="m76.5546 24.4096c-.2454 0-.4854-.1302-.6163-.358-.1908-.3363-.0654-.7648.2727-.9492 2.1541-1.188 3.9483-2.7773 5.3389-4.7084.7362-1.0252 1.3524-2.1426 1.8214-3.3251.1418-.358.5508-.5315.9107-.3905.36.141.5345.5478.3927.9058-.5181 1.2856-1.1834 2.5061-1.9851 3.6181-1.5105 2.1046-3.4629 3.8295-5.7969 5.1205-.1091.0597-.2236.0868-.3381.0868z"/><path d="m70.1032 10.5503c.1036-.60753.6817-1.01436 1.287-.91129.6108.10306 1.0198.67799.9162 1.28009-.1036.6076-.6817 1.0144-1.287.9113-.6108-.103-1.0198-.678-.9162-1.2801z"/><path d="m101.569 36.8803c-1.227-.0163-2.421-.1139-3.5989-.2929-1.6142-.2441-3.2175-.6455-4.7608-1.1934-5.6715-2.007-8.7745-3.7373-13.9116-6.6013-.3381-.1899-.4581-.613-.2672-.9493s.6162-.4556.9543-.2658c5.2462 2.9237 8.1365 4.5347 13.6989 6.5038 1.4616.5153 2.9721.895 4.4991 1.1282 1.1125.1682 2.2412.2604 3.3652.2767 1.281-.0489 1.897-.2224 2.175-.3472-.343-.2332-1.221-.6889-3.419-1.3778-.3707-.1139-.5724-.5099-.4579-.8733.1145-.3688.5129-.575.8779-.4556 3.534 1.1065 4.728 1.8659 4.565 2.8911-.208 1.2802-2.225 1.5026-3.725 1.5622z"/><path d="m103.712 33.8315c-.436 0-.85-.0217-1.243-.0434-5.6333-.3471-10.1814-1.5405-10.3723-1.5947-2.1213-.5642-4.2482-1.253-6.3205-2.045-.3599-.141-.5398-.5424-.4035-.9004.1418-.358.5453-.537.9053-.4014 2.0286.7756 4.1064 1.4483 6.1786 2.0015.1855.0489 4.5973 1.2097 10.0944 1.546 1.265.0759 2.628.1085 4.226-.4557.867-.3037 1.691-.7485 2.443-1.3181.311-.2332.747-.1736.982.1356.234.3092.174.7432-.136.9764-.867.6563-1.816 1.1662-2.82 1.5188-1.303.4611-2.486.5804-3.539.5804z"/><path d="m126.884 36.8798c-1.832 0-3.654-.179-5.459-.537-3.986-.7973-7.836-2.5006-11.136-4.9252-.311-.2279-.376-.6672-.147-.9764s.671-.3743.982-.1465c3.135 2.3054 6.789 3.9272 10.574 4.6812 2.846.5696 5.753.6618 8.643.2875-.109-.933-.425-2.5874-1.298-3.7807-.25-.3418-.665-.9113-1.396-1.3724-.19-.1248-.338-.1953-.736-.3905l-.278-.1357c-.796-.3959-1.44-.7268-1.865-.9492-.344-.179-.474-.6021-.294-.9438.179-.3418.605-.472.948-.293.42.2224 1.053.5479 1.838.933l.273.1356c.42.2062.611.2984.872.4665.955.6075 1.489 1.3344 1.773 1.725 1.358 1.8442 1.587 4.4208 1.625 5.1639.016.358-.24.6726-.595.7269-1.439.2224-2.884.3363-4.33.3363z"/><path d="m133.003 14.8521c-1.031 0-2.127-.0705-3.349-.2007-.387-.0433-.665-.3851-.621-.7702.043-.3851.387-.6672.774-.6184 1.178.1248 2.225.1899 3.207.1953.387 0 .698.3146.698.6997 0 .3852-.317.6943-.704.6943z"/><path d="m133.624 6.927c-.071 0-.147-.01085-.218-.03255-.785-.26036-1.57-.52616-2.356-.79737-2.165-.74313-4.406-1.51338-6.729-2.02327-10.111-2.04497-19.96-2.92371-29.2631-2.6091-.3818.01085-.7144-.28748-.7253-.672611-.0109-.385127.289-.7105855.6762-.7214341 9.4072-.3200349 19.3702.5641291 29.6012 2.6362151 2.416.53158 4.69 1.31269 6.893 2.07209.78.26579 1.56.53701 2.339.79195.371.11934.568.51531.448.87874-.099.29291-.371.48276-.666.48276z"/><path d="m80.061 5.2941c-.2672 0-.5235-.15188-.638-.40682-.1581-.35258 0-.76483.349-.92213 1.7833-.80823 3.632-1.50254 5.5025-2.07209 2.4158-.73771 4.908-1.274716 7.4166-1.600174.3872-.048819.7362.216972.7853.602098s-.2181.732286-.6053.781106c-2.4268.31461-4.8481.83534-7.1876 1.55135-1.8105.55328-3.6102 1.22589-5.3334 2.007-.0927.04339-.1909.06509-.2891.06509z"/><path d="m93.9674 3.3903c-.2291 0-.4581-.11391-.5945-.32003-.2072-.32546-.1145-.75941.2127-.96553.1473-.09222.3654-.22782.6326-.3797 1.0034-.56413 2.0887-.992654 3.223-1.280143.878-.222397 1.7832-.3525806 2.6938-.3905508.387-.0162729.715.2820648.731.6671908.016.385123-.284.710583-.671.726863-.8179.03254-1.625.15188-2.4103.34715-1.0143.25494-1.985.64007-2.8794 1.13911-.2399.13561-.4308.25494-.5671.33631-.1145.07594-.2454.10848-.3763.10848z"/><path d="m103.745 4.00306c-.229 0-.458-.11391-.589-.32003-.207-.32546-.114-.75398.213-.96553.147-.09221.365-.22782.633-.3797 1.003-.56413 2.088-.99265 3.228-1.28014.878-.222397 1.783-.35258 2.694-.39055.387-.021698.714.282064.731.66719.016.38513-.284.71059-.671.72686-.818.03254-1.625.15188-2.41.34715-1.015.25495-1.985.64007-2.88 1.13911-.24.13561-.431.25494-.567.33631-.114.07594-.251.10848-.376.10848z"/><path d="m112.765 5.27262c-.229 0-.458-.11391-.594-.32003-.207-.32546-.115-.75398.212-.96553.148-.09221.366-.22782.633-.3797 1.009-.56413 2.094-.99265 3.228-1.28014.878-.2224 1.784-.35258 2.694-.39055.388-.01627.715.28206.731.66719.017.38513-.283.71059-.671.72686-.818.03255-1.625.15188-2.41.34716-1.014.25494-1.985.64007-2.879 1.1391-.24.13561-.431.25494-.568.33631-.114.07594-.245.10849-.376.10849z"/><path d="m126.17 34.0705h-.017c-2.399-.0597-4.679-.5967-6.767-1.6056-.911-.4394-1.784-.9656-2.596-1.5677-.311-.2332-.376-.6671-.142-.9763.235-.3092.671-.3743.982-.1411.741.5533 1.543 1.0361 2.366 1.4321 1.909.9167 3.992 1.4103 6.19 1.4645.387.0109.693.3309.687.716-.011.3797-.322.6835-.703.6835z"/><path d="m124.904 31.2548c-.081 0-.163-.0163-.24-.0434l-3.997-1.4537c-.365-.1302-.551-.5316-.42-.895s.54-.5479.9-.4177l3.997 1.4537c.366.1302.551.5316.42.895-.103.2821-.371.4611-.66.4611z"/><path d="m134.862 14.7867c-.376 0-.692-.2983-.703-.678-.011-.3852.294-.7052.681-.7161 2.645-.0759 3.774-.5858 3.96-1.8117-.502-1.67609-1.789-3.03759-3.927-4.155-.343-.179-.474-.6021-.294-.94383s.605-.47191.949-.29291c2.557 1.33438 4.084 3.02134 4.662 5.15314.022.0813.027.1681.022.2495-.294 3.0484-3.823 3.1515-5.328 3.1949-.005 0-.016 0-.022 0z"/><path d="m163.896 128.67c-.223 0-.441-.108-.578-.303-.316-.461-.49-.95-.518-1.449-.125-2.451 3.278-4.144 5.764-5.381 2.569-1.28 5.356-2.213 8.279-2.777.381-.07.747.174.823.553.077.38-.174.744-.556.82-2.798.542-5.459 1.432-7.918 2.652-1.898.944-5.067 2.522-4.99 4.063.011.238.103.483.272.727.219.32.137.754-.18.971-.12.081-.261.124-.398.124z"/><path d="m173.374 134.968c-.065 0-.136-.011-.201-.033-1.304-.396-2.591-.851-3.823-1.356-.54-.222-1.276-.526-2.231-1.003-.867-.44-1.723-.923-2.53-1.443-.038-.027-.076-.055-.109-.087-.038-.038-.104-.092-.18-.163-.916-.813-1.794-1.681-1.571-2.522.066-.244.278-.673.982-.819.376-.082.753.157.834.537.066.298-.076.591-.321.743.147.195.441.515 1.014 1.02.065.059.125.108.169.152.753.482 1.543.933 2.35 1.339.906.456 1.615.749 2.133.96 1.188.489 2.432.933 3.692 1.313.37.114.578.505.469.873-.093.304-.371.494-.671.494z"/><path d="m179.466 135.364c-1.86 0-3.73-.076-5.584-.234-.388-.032-.671-.369-.638-.754.032-.385.376-.667.758-.634 2.426.2 4.88.271 7.296.2.049 0 5.524-.195 10.067-1.144 1.402-.293 2.814-.684 4.188-1.172.611-.217.944-.352 2.34-.927l1.685-.695c.474-.195.894-.374 1.282-.537 1.221-.515 2.105-.889 3.162-1.16 1.44-.375 2.962-.548 4.532-.51.387.01.693.331.687.716-.011.385-.321.689-.719.683-1.44-.032-2.831.125-4.145.461-.96.25-1.8.602-2.967 1.096-.392.168-.818.347-1.298.542l-1.685.695c-1.385.569-1.756.721-2.405.949-1.434.504-2.906.917-4.368 1.22-4.668.971-10.083 1.167-10.312 1.172-.622.016-1.249.027-1.871.027z"/><path d="m209.225 124.146s-.016 0-.027 0c-.393-.016-.791-.054-1.178-.108-.922-.136-1.614-.358-1.914-.456l-.082-.027c-3.098-.949-6.272-1.779-9.429-2.457-2.907-.624-5.203-1.118-8.224-1.394-3.19-.293-6.44-.272-9.663.065-.387.038-.731-.239-.769-.624s.24-.727.627-.765c3.316-.342 6.659-.363 9.936-.065 3.108.282 5.443.787 8.393 1.421 3.201.689 6.413 1.524 9.549 2.49l.103.032c.262.087.878.283 1.685.402.317.049.638.076.955.092.518-.092 1.036-.222 1.538-.39.61-.201 1.041-.407 1.205-.483 1.663-.776 5.491-2.197 8.812-3.152 1.876-.542 3.316-.857 5.11-.884.54-.011 1.091.011 1.625.06.388.032.671.374.638.759-.032.385-.376.667-.763.635-.491-.044-.987-.06-1.483-.054-1.631.021-2.972.32-4.734.829-3.594 1.037-7.247 2.441-8.589 3.065-.202.092-.687.32-1.374.548-.595.195-1.205.347-1.822.456-.038.005-.076.011-.12.011z"/><path d="m225.389 136.953c-.093 0-.191-.022-.284-.06l-7.744-3.411c-1.423-.711-2.803-1.47-4.133-2.268-.998-.596-2.002-1.237-2.967-1.887-.322-.217-.403-.651-.185-.971s.654-.402.976-.185c.949.64 1.925 1.264 2.901 1.85 1.303.781 2.656 1.524 4.014 2.202l7.711 3.396c.354.157.512.569.36.922-.115.26-.371.418-.644.418z"/><path d="m225.389 136.953c-.202 0-.398-.086-.535-.249-1.418-1.671-2.519-3.515-3.277-5.479-.638-1.649-1.14-2.951-.927-4.659.24-1.931 1.254-3.211 2.536-4.833l.109-.141c1.052-1.335 2.295-2.528 3.697-3.553.311-.228.753-.163.982.146s.163.749-.148.977c-1.298.954-2.454 2.061-3.424 3.292l-.109.141c-1.189 1.508-2.051 2.598-2.247 4.144-.169 1.362.234 2.403.845 3.982.704 1.817 1.729 3.526 3.043 5.082.251.293.213.738-.082.982-.131.109-.294.163-.452.163z"/><path d="m178.266 131.203c-1.609 0-2.852-.602-3.496-.992-.327-.201-.43-.635-.229-.96.202-.326.633-.429.966-.228.578.352 1.777.922 3.315.754s2.487-.977 3.12-1.514c.092-.076.163-.146.223-.2-.376-.087-1.025-.141-1.947-.163-1.537-.038-3.119.141-4.7.521-.377.092-.758-.141-.851-.516-.093-.374.142-.754.518-.846 1.701-.412 3.408-.602 5.066-.564 1.778.043 3.267.163 3.512 1.193.147.63-.376 1.177-.911 1.633-.67.57-1.914 1.622-3.877 1.839-.245.027-.48.038-.709.038z"/><path d="m172.055 132.825c-.207 0-.415-.092-.557-.271-.239-.304-.179-.743.126-.982 1.112-.857 1.985-1.909 2.601-3.119.327-.64.573-1.323.736-2.034.088-.374.464-.607.84-.521.377.087.611.462.524.836-.191.819-.475 1.605-.851 2.349-.709 1.399-1.718 2.609-2.994 3.596-.125.098-.278.146-.431.146z"/><path d="m167.774 126.408s-.011 0-.022 0c-.747-.011-1.353-.629-1.342-1.372.011-.749.611-1.346 1.38-1.335.365 0 .703.152.954.413.251.26.388.602.382.96-.011.737-.622 1.334-1.358 1.334zm-.044-1.356s.016.038.044.043c.021 0 .043-.021.043-.043zm0 0h.087s-.027-.06-.043-.043c-.022 0-.044.016-.044.043z"/><path d="m185.661 138c-.976 0-1.953-.092-2.912-.277-3.507-.667-5.476-1.399-8.737-2.614-.365-.136-.545-.537-.409-.901.137-.363.54-.542.906-.407 3.304 1.232 5.12 1.904 8.507 2.55.878.168 1.75.249 2.667.249.649 0 1.303-.048 1.946-.135.399-.055.764-.179.977-.282-.273-.25-.955-.705-2.351-1.302-.354-.152-.523-.564-.365-.917.153-.352.567-.521.921-.363 3.142 1.339 3.431 2.197 3.3 2.853-.207 1.025-1.8 1.329-2.28 1.394-.714.098-1.467.146-2.159.152z"/><path d="m200.047 135.782c-.251 0-.502-.006-.753-.017-2.432-.108-4.87-.77-7.046-1.909-.343-.179-.474-.602-.294-.944s.605-.472.949-.293c1.996 1.042 4.226 1.649 6.457 1.747 1.576.07 3.152-.103 4.684-.515-.196-.597-.512-1.259-.943-1.687-.175-.174-.431-.434-.851-.613-.125-.055-.218-.082-.431-.152l-.174-.055c-.502-.157-.906-.292-1.178-.385-.366-.124-.562-.52-.437-.889.126-.364.524-.559.895-.434.262.092.66.222 1.145.38l.175.054c.289.092.409.13.578.206.654.287 1.074.705 1.276.906 1.014 1.014 1.396 2.56 1.488 3.01.071.353-.13.7-.474.808-1.647.521-3.348.782-5.061.782z"/><path d="m202.119 122.411c-.371 0-.682-.293-.703-.667-.017-.386.283-.711.67-.733.688-.032 1.293-.086 1.855-.173.381-.055.741.206.796.586.054.379-.207.737-.589.791-.611.093-1.265.152-1.996.185-.011 0-.022 0-.033 0z"/><path d="m204.044 122.232c-.365 0-.676-.283-.698-.651-.027-.385.267-.716.655-.743 1.805-.114 2.71-.7 2.786-1.194.071-.455-.556-1.22-2.099-1.833-.36-.141-.535-.548-.393-.906s.551-.532.911-.391c2.061.814 3.174 2.062 2.966 3.347-.212 1.335-1.739 2.219-4.084 2.365-.016 0-.033 0-.044 0z"/><path d="m180.742 117.827c-.322 0-.611-.222-.682-.542-.087-.375.153-.749.529-.836 5.863-1.318 11.779-1.692 17.593-1.112 1.63.163 3.277.402 4.891.716.382.076.628.44.557.819-.077.38-.442.624-.824.554-1.57-.304-3.174-.537-4.766-.7-5.661-.564-11.43-.201-17.14 1.085-.055.011-.104.016-.153.016z"/><path d="m172.371 121.391c-.229 0-.453-.114-.589-.315-.213-.325-.12-.754.202-.965.976-.635 2.001-1.215 3.048-1.714.998-.483 2.045-.906 3.103-1.259.246-.081.458-.152.606-.195.365-.114.763.092.878.456.114.369-.093.759-.459.873-.141.043-.338.108-.572.184-1.004.337-1.991.738-2.94 1.194-.992.477-1.963 1.025-2.89 1.627-.12.076-.251.114-.382.114z"/><path d="m183.092 117.984c-.109 0-.212-.043-.289-.13-.142-.157-.125-.401.033-.542.076-.066.191-.163.333-.277.534-.418 1.123-.759 1.756-1.025.485-.206 1.003-.364 1.526-.467.208-.043.415.092.453.304s-.093.412-.305.45c-.475.092-.938.233-1.375.418-.567.239-1.101.553-1.581.922-.125.098-.229.19-.3.25-.071.065-.164.097-.256.097z"/><path d="m186.746 117.87c-.125 0-.251-.065-.327-.179-.115-.179-.066-.417.114-.531.082-.054.202-.13.349-.217.551-.331 1.146-.64 1.751-.906.474-.211.954-.396 1.44-.559.201-.065.419.044.49.244.066.201-.043.418-.245.489-.458.152-.922.331-1.369.531-.578.255-1.14.548-1.669.863-.141.081-.256.157-.332.206-.066.043-.137.059-.207.059z"/><path d="m191.365 117.876c-.12 0-.234-.055-.311-.158-.125-.168-.093-.412.082-.537.082-.059.196-.146.344-.244.545-.369 1.134-.689 1.756-.96.479-.206.976-.385 1.477-.521.208-.059.42.065.475.272.054.206-.066.417-.273.471-.463.125-.927.288-1.374.483-.578.25-1.123.548-1.631.89-.136.092-.245.168-.316.222-.071.049-.147.076-.229.076z"/><path d="m200.292 132.728s-.038 0-.054 0l-3.114-.429c-.213-.027-.36-.222-.327-.434.027-.211.229-.358.436-.325l3.114.428c.212.027.36.223.327.434-.027.19-.191.331-.382.331z"/><path d="m220.317 132.093c-.103 0-.212-.027-.311-.092-.938-.592-1.772-1.319-2.47-2.159-.938-1.123-1.816-2.181-1.701-3.57.12-1.415 1.205-2.316 2.355-3.27.944-.781 2.007-1.4 3.169-1.828.3-.114.632.038.747.336.114.298-.038.629-.338.743-1.036.385-1.991.938-2.83 1.633-1.042.862-1.866 1.546-1.947 2.484-.077.917.589 1.72 1.434 2.734.622.749 1.363 1.394 2.203 1.926.273.168.349.526.18.797-.109.174-.3.266-.491.266z"/><path d="m237.49 108.47c-.316 0-.6-.211-.682-.531-.136-.543-.131-1.058.022-1.536.742-2.343 4.526-2.75 7.286-3.043 2.857-.309 5.797-.217 8.731.266.381.065.643.423.578.803-.066.38-.42.64-.807.575-2.809-.467-5.623-.548-8.35-.255-2.105.228-5.633.608-6.096 2.078-.071.227-.071.488 0 .775.092.374-.137.754-.513.846-.055.017-.115.022-.169.022z"/><path d="m244.165 117.653c-.147 0-.3-.048-.426-.141-1.085-.819-2.126-1.692-3.108-2.598-.431-.396-1.02-.938-1.74-1.714-.659-.71-1.287-1.459-1.865-2.229-.027-.038-.049-.076-.071-.12-.021-.048-.06-.119-.109-.211-.578-1.08-1.096-2.197-.589-2.913.148-.206.497-.532 1.206-.429.381.055.649.413.594.792-.044.304-.278.532-.562.586.066.234.235.635.595 1.313.043.076.076.146.103.195.54.716 1.124 1.411 1.735 2.067.681.738 1.248 1.258 1.663 1.638.943.873 1.958 1.714 3.005 2.511.31.234.365.673.131.977-.137.179-.349.276-.557.276z"/><path d="m279.138 124.439c-.088 0-.175-.016-.262-.049-1.336-.531-2.7-.868-4.047-1.003-.987-.098-1.903-.06-3.168 0-.425.021-.889.038-1.402.059l-1.826.065c-1.495.055-1.893.071-2.58.055-1.521-.027-3.043-.152-4.521-.375-4.712-.705-9.86-2.403-10.078-2.479-2.334-.786-4.662-1.724-6.92-2.777-.349-.163-.502-.58-.338-.927.163-.348.583-.499.932-.337 2.209 1.036 4.483 1.948 6.768 2.718.049.016 5.246 1.73 9.838 2.419 1.418.212 2.879.331 4.335.358.649.011 1.004 0 2.509-.054l1.832-.065c.507-.016.966-.038 1.391-.06 1.325-.06 2.285-.103 3.37.006 1.478.146 2.967.515 4.428 1.095.36.141.535.548.393.906-.109.271-.371.44-.654.44z"/><path d="m300.296 121.7c-.103 0-.201-.022-.299-.065-.442-.212-.906-.402-1.369-.564-1.538-.548-2.896-.733-4.728-.868-3.73-.277-7.651-.223-9.124-.103-.223.016-.763.065-1.483.038-.622-.022-1.249-.092-1.865-.206-.049-.011-.098-.022-.142-.044-.365-.152-.72-.325-1.063-.51-.818-.444-1.386-.895-1.631-1.09l-.071-.054c-2.574-1.964-5.257-3.841-7.978-5.571-2.503-1.595-4.483-2.853-7.221-4.16-2.89-1.378-5.944-2.485-9.079-3.293-.377-.098-.6-.477-.502-.852.098-.374.48-.596.856-.499 3.228.83 6.37 1.969 9.336 3.385 2.814 1.345 4.827 2.62 7.368 4.242 2.754 1.752 5.475 3.651 8.076 5.641l.088.065c.218.169.719.57 1.434.96.278.152.567.293.861.418.518.092 1.053.152 1.582.168.638.022 1.118-.016 1.298-.032 1.832-.152 5.917-.152 9.363.103 1.953.146 3.409.342 5.099.944.513.179 1.015.39 1.5.618.349.168.496.58.333.933-.12.25-.371.396-.633.396z"/><path d="m292.225 137.55c-.174 0-.354-.066-.49-.201l-6.064-5.88c-1.086-1.161-2.111-2.349-3.082-3.558-.73-.912-1.439-1.85-2.121-2.799-.224-.315-.147-.749.164-.971.316-.223.752-.147.976.162.665.928 1.358 1.85 2.072 2.74.949 1.182 1.952 2.343 2.988 3.455l6.037 5.858c.279.271.284.711.011.987-.136.141-.321.212-.501.212z"/><path d="m292.226 137.55c-.289 0-.557-.179-.66-.461-.742-2.056-1.129-4.171-1.151-6.276-.022-1.768-.033-3.162.764-4.687.905-1.725 2.301-2.576 4.068-3.65l.152-.092c1.451-.885 3.038-1.574 4.712-2.051.371-.108.764.109.867.478.109.368-.109.759-.48.862-1.554.439-3.021 1.079-4.362 1.898l-.153.093c-1.647 1.003-2.836 1.725-3.556 3.108-.638 1.215-.621 2.332-.605 4.025.022 1.947.382 3.905 1.069 5.82.131.363-.06.765-.425.895-.077.027-.159.043-.235.043z"/><path d="m252.012 116.172c-.469 0-.976-.054-1.51-.184-1.909-.477-3.076-1.676-3.605-2.354-.24-.304-.185-.743.12-.982s.747-.184.987.119c.42.532 1.342 1.481 2.841 1.855 1.5.375 2.678-.054 3.452-.336.115-.043.208-.076.284-.114-.322-.211-.916-.488-1.772-.824-1.424-.564-2.967-.95-4.587-1.139-.387-.044-.66-.391-.616-.776s.393-.662.78-.613c1.739.206 3.408.618 4.946 1.231 1.652.657 3.005 1.286 2.874 2.333-.076.64-.763.971-1.429 1.209-.594.217-1.559.57-2.77.57z"/><path d="m243.679 115.191c-.3 0-.578-.19-.67-.489-.115-.368.087-.759.458-.873 1.341-.417 2.53-1.101 3.533-2.023.529-.488 1.004-1.042 1.407-1.649.213-.32.649-.412.971-.201.322.212.415.646.202.966-.464.699-1.009 1.34-1.62 1.904-1.156 1.063-2.525 1.849-4.068 2.332-.071.022-.142.033-.213.033z"/><path d="m242.147 107.732c-.169 0-.333-.032-.491-.092-.698-.271-1.047-1.058-.774-1.752s1.063-1.042 1.761-.77c.698.271 1.047 1.057.775 1.752-.131.336-.387.602-.72.748-.175.076-.36.114-.545.114zm-.044-1.367c-.01.022 0 .049.028.055.016.005.049-.006.054-.028l-.082-.032zm0 0 .082.033s0-.049-.027-.054c-.022-.006-.049.005-.055.027z"/><path d="m257.52 125.443c-.453 0-.867-.076-1.069-.12-.698-.151-1.39-.352-2.056-.602-.921-.336-1.81-.77-2.65-1.274-3.054-1.839-4.641-3.212-7.275-5.479-.294-.255-.327-.694-.071-.987.257-.293.698-.326.993-.071 2.666 2.295 4.133 3.564 7.084 5.343.763.461 1.576.852 2.41 1.161.605.222 1.238.407 1.871.548.392.087.779.098 1.014.07-.164-.33-.649-.992-1.745-2.034-.278-.265-.289-.71-.022-.987s.714-.287.993-.022c2.47 2.349 2.443 3.25 2.088 3.819-.316.505-.965.64-1.554.64z"/><path d="m273.69 128.643s-.022 0-.033 0c-1.98-.098-3.905-.532-5.721-1.297-2.241-.943-4.292-2.408-5.933-4.231-.256-.287-.235-.726.054-.987.29-.26.731-.233.993.054 1.505 1.671 3.387 3.011 5.437 3.879 1.456.613 2.988.998 4.57 1.139.022-.537-.011-1.291-.295-1.904-.103-.222-.256-.553-.578-.873-.098-.093-.174-.152-.349-.288l-.147-.114c-.414-.32-.747-.591-.965-.77-.3-.244-.344-.683-.098-.982.245-.298.687-.342.987-.097.213.173.54.439.943.748l.142.114c.24.184.338.266.469.391.513.499.758 1.036.878 1.291.594 1.296.414 2.88.344 3.336-.055.341-.349.591-.693.591z"/><path d="m277.376 116.352c-.049 0-.098 0-.147-.017-.6-.124-1.238-.298-1.936-.52-.371-.12-.573-.51-.453-.879s.513-.57.883-.45c.655.206 1.244.368 1.8.482.382.082.622.451.54.83-.071.331-.36.554-.687.554z"/><path d="m279.339 116.677c-.643 0-1.369-.114-2.165-.353-.371-.108-.583-.499-.469-.868.109-.369.502-.58.873-.466 1.734.515 2.786.282 3.032-.152.229-.401-.093-1.34-1.325-2.441-.289-.26-.311-.7-.055-.987.262-.288.704-.309.993-.054 1.646 1.475 2.252 3.032 1.608 4.165-.431.76-1.314 1.156-2.492 1.156z"/><path d="m278.019 111.469c-.125 0-.25-.032-.365-.103-1.369-.83-2.787-1.605-4.221-2.305-5.11-2.49-10.639-4.15-16.447-4.925-.382-.049-.655-.402-.6-.787.054-.38.403-.651.791-.596 5.955.797 11.632 2.5 16.878 5.055 1.472.716 2.934 1.513 4.335 2.37.333.201.437.63.235.961-.131.216-.366.336-.6.336z"/><path d="m247.982 104.581c-.321 0-.61-.217-.681-.543-.088-.374.152-.748.529-.835 1.134-.255 2.301-.445 3.457-.553 1.107-.103 2.231-.141 3.348-.103.262.005.48.016.639.027.387.021.681.347.665.732-.017.385-.355.678-.736.662-.148-.006-.355-.016-.606-.027-1.058-.033-2.127 0-3.174.103-1.101.103-2.203.276-3.277.52-.055.011-.104.017-.158.017z"/><path d="m259.113 105.085c-.153 0-.3-.092-.36-.244-.077-.201.021-.423.223-.499.098-.038.24-.087.409-.141.644-.206 1.32-.325 2.007-.353.529-.021 1.069.006 1.598.093.213.032.354.233.322.439-.033.212-.235.347-.442.32-.474-.076-.96-.103-1.434-.081-.617.027-1.227.135-1.805.32-.153.049-.278.097-.366.13-.043.016-.092.027-.136.027z"/><path d="m262.581 106.246c-.18 0-.338-.125-.376-.304-.044-.206.087-.412.294-.455.093-.022.235-.049.404-.082.632-.119 1.292-.201 1.963-.244.518-.032 1.036-.043 1.543-.027.213.005.382.184.377.396-.006.211-.197.363-.399.374-.485-.016-.976-.005-1.472.022-.633.038-1.265.119-1.865.233-.158.033-.295.06-.382.076-.027.006-.054.011-.082.011z"/><path d="m266.905 107.852c-.169 0-.321-.109-.37-.277-.06-.206.06-.418.261-.477.098-.027.235-.065.409-.109.638-.157 1.304-.255 1.98-.287.523-.027 1.052-.022 1.565.027.213.016.371.206.349.418-.022.211-.213.368-.42.347-.48-.044-.971-.049-1.456-.022-.627.033-1.249.125-1.838.271-.158.038-.289.076-.376.098-.038.011-.071.016-.109.016z"/><path d="m270.068 124.868c-.06 0-.125-.016-.185-.049l-2.765-1.481c-.185-.103-.256-.336-.158-.521.104-.184.338-.254.523-.157l2.765 1.481c.186.103.257.336.159.521-.071.13-.202.2-.339.2z"/><path d="m289.133 131.231c-.174 0-.349-.076-.463-.228-.671-.879-1.2-1.85-1.56-2.881-.485-1.372-.938-2.674-.343-3.932.61-1.286 1.941-1.758 3.354-2.251 1.156-.407 2.372-.613 3.61-.619.321 0 .578.255.578.575s-.257.575-.578.581c-1.107 0-2.193.19-3.223.553-1.282.45-2.291.803-2.694 1.654-.393.836-.049 1.818.387 3.065.322.917.791 1.779 1.391 2.566.196.255.141.613-.109.808-.104.081-.23.119-.35.119z"/><path d="m159.365 61.5171c-.246 0-.491-.1194-.639-.3363-.425-.613-.654-1.2585-.687-1.9202-.169-3.298 4.527-5.6305 7.951-7.3337 3.583-1.7792 7.466-3.081 11.534-3.8676.42-.0813.824.1899.906.6076.081.4176-.191.819-.611.9004-3.932.7594-7.684 2.0178-11.136 3.7319-2.699 1.3453-7.215 3.5909-7.1 5.8854.016.3689.158.7486.42 1.1283.24.3525.152.8299-.202 1.0686-.131.0922-.284.1356-.436.1356z"/><path d="m172.627 70.3319c-.076 0-.152-.0108-.223-.0325-1.816-.5479-3.61-1.1879-5.334-1.8931-.752-.3092-1.783-.7323-3.108-1.3995-1.211-.6075-2.394-1.2855-3.529-2.0124-.043-.0271-.081-.0597-.12-.0922-.054-.0543-.147-.1356-.256-.2333-1.238-1.0957-2.421-2.2565-2.138-3.3251.077-.2929.339-.8136 1.211-.998.415-.0868.829.1735.916.5912.088.4014-.163.7974-.556.9005.147.2712.567.7648 1.592 1.6815.099.0868.18.1627.246.217 1.069.6834 2.187 1.3181 3.326 1.893 1.271.6401 2.269 1.0524 3 1.3507 1.674.6889 3.424 1.3073 5.191 1.8443.409.1247.638.5532.513.9601-.104.3309-.409.5478-.742.5478z"/><path d="m181.151 70.8849c-2.596 0-5.208-.1085-7.798-.3255-.426-.0379-.742-.4068-.704-.8299.033-.4231.409-.7377.834-.6997 3.409.2875 6.85.3797 10.237.282.07 0 7.749-.2766 14.129-1.6056 1.974-.4122 3.959-.9655 5.89-1.6435.862-.3038 1.325-.4936 3.277-1.2964l2.367-.971c.66-.2712 1.249-.5207 1.794-.7486 1.707-.7214 2.94-1.2367 4.407-1.6218 1.996-.5208 4.106-.754 6.287-.7052.426.0109.764.3634.753.7865s-.382.7486-.791.7486c-2.034-.0488-4.003.1736-5.857.6563-1.358.3526-2.546.8571-4.193 1.546-.546.2332-1.14.4827-1.805.7539l-2.367.971c-1.931.7974-2.449 1.0089-3.354 1.3235-1.996.6998-4.046 1.2747-6.091 1.6978-6.517 1.3561-14.321 1.6328-14.403 1.6382-.867.0271-1.739.038-2.617.038z"/><path d="m222.82 55.1869s-.022 0-.033 0c-.545-.0217-1.09-.0705-1.625-.1519-1.276-.1844-2.236-.4936-2.645-.6292l-.12-.0379c-4.346-1.3344-8.79-2.4898-13.219-3.4445-4.073-.8787-7.296-1.5676-11.539-1.9582-4.477-.4068-9.047-.3797-13.573.0868-.426.0488-.808-.2603-.851-.6834-.044-.4231.262-.8028.687-.8462 4.624-.4774 9.293-.5045 13.873-.0922 4.336.3959 7.597 1.0957 11.725 1.9852 4.472.9602 8.966 2.1318 13.35 3.477l.142.0434c.371.1194 1.243.4014 2.388.5696.459.0651.922.1139 1.386.1302.747-.1302 1.488-.3146 2.208-.5533.862-.2875 1.478-.575 1.713-.6835 2.317-1.0794 7.667-3.0647 12.302-4.3991 2.613-.754 4.609-1.1933 7.095-1.2259.753-.0108 1.511.0163 2.253.0814.425.0379.741.4122.703.8353s-.409.7377-.84.6998c-.692-.0597-1.396-.0814-2.099-.076-2.307.0326-4.199.4502-6.686 1.1662-5.045 1.4538-10.176 3.4282-12.058 4.3015-.278.1302-.954.4448-1.903.7594-.823.2712-1.669.4828-2.519.6292-.044.0055-.088.0109-.131.0109z"/><path d="m245.452 73.1145c-.104 0-.213-.0217-.311-.0651l-10.841-4.7734c-1.974-.9873-3.905-2.0504-5.77-3.1624-1.401-.8408-2.798-1.7304-4.145-2.6416-.354-.2387-.441-.7161-.201-1.0686.24-.3526.72-.4448 1.074-.2007 1.325.895 2.694 1.7683 4.074 2.5928 1.832 1.0957 3.724 2.1372 5.633 3.0918l10.803 4.7572c.393.1736.567.6238.393 1.0143-.126.2875-.409.4557-.709.4557z"/><path d="m245.452 73.1145c-.218 0-.437-.0922-.589-.2712-1.969-2.3216-3.501-4.8819-4.554-7.6103-.883-2.2837-1.576-4.0845-1.287-6.4224.333-2.6471 1.734-4.4208 3.507-6.6665l.152-.1953c1.462-1.8497 3.185-3.5095 5.137-4.9361.344-.2495.829-.179 1.08.1627.251.3418.18.8245-.163 1.074-1.838 1.3453-3.463 2.9075-4.837 4.6487l-.153.1953c-1.691 2.1371-2.912 3.6831-3.19 5.907-.246 1.9528.327 3.4336 1.194 5.6793.992 2.5711 2.438 4.9849 4.297 7.1709.273.3255.235.8083-.093 1.0849-.147.1193-.321.179-.496.179z"/><path d="m179.477 65.0645c-2.204 0-3.905-.8244-4.783-1.3615-.365-.2224-.474-.6943-.251-1.0577.224-.3634.698-.4773 1.064-.2495.834.5099 2.563 1.3289 4.771 1.0848 2.214-.244 3.578-1.4049 4.483-2.1697.289-.2441.464-.4231.567-.5424-.365-.141-1.216-.2821-3.108-.3309-2.165-.0488-4.401.1953-6.637.7377-.415.1031-.834-.1519-.933-.5641-.103-.4123.153-.8299.568-.9276 2.366-.575 4.739-.8353 7.04-.7811 2.312.0543 4.412.2116 4.723 1.508.147.6184-.202 1.2205-1.211 2.0775-.982.8353-2.629 2.2294-5.317 2.5277-.333.038-.66.0543-.971.0543z"/><path d="m170.778 67.3377c-.229 0-.458-.1031-.61-.2984-.262-.3363-.202-.819.136-1.0794 1.581-1.2205 2.825-2.7122 3.703-4.4371.463-.9113.818-1.8877 1.052-2.8912.099-.4122.513-.6726.927-.5749.415.0976.677.5098.578.9221-.261 1.1283-.659 2.2185-1.177 3.2383-.977 1.9311-2.367 3.5963-4.134 4.9578-.142.1085-.305.1628-.475.1628z"/><path d="m164.791 58.3495s-.017 0-.028 0c-.932-.0109-1.685-.7811-1.668-1.7087.011-.9221.769-1.6598 1.696-1.6598h.022c.932.0108 1.685.7811 1.668 1.7086-.011.9222-.769 1.6599-1.696 1.6599zm0-1.8335c-.082 0-.147.0651-.147.1465 0 .0488.021.0868.043.1031.022.0217.055.0434.104.0434.076 0 .147-.0651.152-.1465 0-.0814-.065-.1465-.147-.1519z"/><path d="m189.833 74.5791c-1.353 0-2.711-.1302-4.041-.3797-4.892-.933-7.64-1.9528-12.199-3.6506-.399-.1464-.6-.5912-.453-.9872.153-.396.594-.5967.992-.4502 4.636 1.7249 7.188 2.6742 11.949 3.58 1.232.2333 2.497.3526 3.746.3526h.022c.916 0 1.843-.0651 2.754-.1952.769-.1085 1.429-.3743 1.663-.5533-.223-.2929-1.112-1.0252-3.533-2.0613-.393-.1681-.573-.6183-.404-1.0089.169-.3905.622-.5695 1.014-.4014 4.281 1.828 4.652 2.9725 4.494 3.7645-.267 1.3344-2.563 1.7249-3.016 1.79-.981.1356-1.979.2061-2.966.2116h-.028z"/><path d="m209.972 71.4709c-.349 0-.698-.0054-1.047-.0217-3.376-.1519-6.757-1.0686-9.772-2.6471-.377-.1952-.524-.6617-.322-1.036.196-.3743.665-.5207 1.041-.32 2.82 1.4754 5.977 2.327 9.124 2.4734 2.307.1031 4.603-.1627 6.833-.7865-.224-.7431-.665-1.8822-1.434-2.6525-.24-.2386-.633-.6346-1.254-.9058-.164-.0705-.289-.1139-.628-.217l-.24-.0759c-.698-.2224-1.265-.4123-1.641-.5425-.404-.1356-.616-.5749-.48-.9763.142-.4014.578-.613.982-.4774.371.1248.921.3146 1.608.5316l.24.0759c.366.114.546.1736.791.2767.884.3905 1.429.933 1.718 1.2205 1.38 1.3777 1.903 3.4932 2.029 4.1062.081.3851-.148.7702-.524.8895-2.285.7215-4.646 1.0903-7.018 1.0903z"/><path d="m212.873 52.7516c-.409 0-.752-.3201-.774-.7323-.022-.4231.311-.7811.736-.8028.965-.0434 1.822-.1248 2.618-.2387.42-.0651.818.2278.878.6455.065.4177-.229.8136-.649.8733-.845.1248-1.756.2116-2.776.255-.011 0-.022 0-.038 0z"/><path d="m215.567 52.5021c-.403 0-.741-.3146-.769-.7214-.027-.4231.295-.792.72-.8191 2.656-.1681 3.97-1.0469 4.096-1.8442.109-.6889-.628-1.828-3.071-2.7881-.398-.1574-.589-.6021-.436-.9981.158-.396.605-.5913 1.003-.434 2.787 1.0957 4.292 2.7664 4.025 4.4588-.278 1.7629-2.345 2.9346-5.524 3.1407-.017 0-.033 0-.049 0z"/><path d="m182.945 46.3346c-.354 0-.671-.2441-.753-.5967-.092-.4123.17-.8245.584-.9167 8.186-1.8389 16.447-2.3596 24.562-1.5514 2.28.2279 4.575.5642 6.833.9981.42.0814.693.4828.611.9004-.082.4177-.485.6889-.905.6076-2.209-.4286-4.456-.7594-6.692-.9818-7.945-.792-16.043-.2821-24.065 1.5242-.06.0108-.115.0217-.169.0217z"/><path d="m171.226 51.3247c-.251 0-.502-.1247-.649-.3471-.235-.3526-.137-.83.223-1.0632 1.358-.8842 2.787-1.687 4.243-2.3867 1.396-.6726 2.847-1.2584 4.319-1.752.344-.114.638-.2062.845-.2713.404-.1301.84.0977.966.5045.125.4068-.098.8353-.507.9601-.197.0597-.475.1519-.808.2604-1.412.4719-2.803 1.0414-4.139 1.6815-1.401.6726-2.77 1.4429-4.068 2.2891-.131.0868-.278.1247-.42.1247z"/><path d="m186.042 47.3759c-.158 0-.321-.0651-.436-.1952-.212-.2387-.191-.6021.049-.8137.109-.0976.267-.2332.469-.3905.747-.5859 1.576-1.0686 2.465-1.4429.687-.2875 1.407-.5099 2.149-.6564.311-.065.616.1411.682.4557.06.3146-.142.6129-.459.678-.659.1302-1.303.3255-1.919.5859-.796.3363-1.538.7702-2.203 1.2909-.18.1411-.322.2604-.42.3472-.109.0976-.246.1465-.382.1465z"/><path d="m191.354 46.6436c-.191 0-.376-.0922-.491-.2658-.174-.2657-.092-.6238.175-.7973.114-.076.283-.179.491-.3038.774-.4665 1.598-.895 2.459-1.2747.66-.2929 1.342-.5587 2.018-.7811.305-.1031.633.0597.736.3634.104.3038-.06.6292-.365.7323-.644.2115-1.287.4665-1.914.7431-.813.3635-1.598.7649-2.329 1.2097-.196.1193-.354.2169-.464.2874-.098.0597-.207.0923-.31.0923z"/><path d="m197.816 46.6546c-.18 0-.354-.0814-.469-.2332-.19-.255-.136-.6184.12-.8083.115-.0813.279-.2007.48-.3417.764-.5153 1.593-.9655 2.465-1.3452.676-.2929 1.374-.537 2.073-.7269.31-.0814.627.0976.714.4014.087.3092-.098.6238-.404.7106-.649.179-1.292.4068-1.914.6726-.807.3472-1.57.7703-2.274 1.2422-.191.1247-.338.2386-.442.3146-.103.0759-.223.1139-.343.1139z"/><path d="m210.31 67.4459s-.054 0-.082-.0054l-4.357-.6021c-.316-.0434-.54-.3363-.496-.6509.043-.3146.338-.537.654-.4936l4.357.6021c.317.0434.54.3363.497.6509-.038.2875-.289.499-.573.499z"/><path d="m238.351 66.2851c-.103 0-.212-.0271-.31-.0922-1.293-.8191-2.444-1.8171-3.409-2.978-1.276-1.535-2.481-2.9833-2.328-4.8276.158-1.8877 1.647-3.119 3.217-4.4262 1.298-1.0795 2.765-1.9257 4.363-2.5223.3-.1139.632.0379.747.3363.114.2983-.038.6292-.338.7431-1.478.5533-2.83 1.3344-4.03 2.327-1.5 1.2476-2.683 2.2294-2.803 3.6343-.115 1.3778.845 2.5332 2.061 3.9977.889 1.0686 1.942 1.9853 3.136 2.7393.273.1682.349.5262.18.7974-.109.1736-.3.2658-.491.2658z"/><path d="m66.406 78.1533c-.2836 0-.5508-.1735-.6544-.4502-.2018-.5207-.2509-1.036-.1582-1.5296.4636-2.4139 4.1719-3.2546 6.8768-3.873 2.803-.6401 5.7315-.8896 8.7036-.754.3872.0163.6871.3472.6707.7323-.0163.3851-.3435.6726-.7362.6672-2.8466-.1356-5.6442.1085-8.3218.716-2.0669.4719-5.5243 1.2585-5.8134 2.7718-.0436.2333-.0109.4936.0927.7703.1364.358-.0436.7648-.409.9004-.0818.0326-.1636.0434-.2508.0434z"/><path d="m74.1171 86.496c-.1199 0-.2454-.0325-.3544-.0976-1.1725-.6889-2.3123-1.4375-3.392-2.2186-.469-.3417-1.118-.8082-1.9305-1.5025-.7417-.6292-1.4506-1.3018-2.116-1.9961-.0327-.0326-.0599-.0706-.0872-.1085-.0273-.0434-.0764-.1139-.1364-.1953-.698-1.0089-1.3469-2.0558-.927-2.8206.1199-.2224.4253-.5913 1.1452-.5642.3872.0109.6926.3309.6817.716-.0109.3038-.2127.5587-.4908.6455.0927.2278.3053.6021.7416 1.2313.0491.0706.0927.1357.1254.1845.6163.6455 1.2816 1.2693 1.9687 1.8497.7744.6563 1.3906 1.1065 1.8433 1.432 1.0416.754 2.1432 1.4754 3.2775 2.1426.3326.1953.4417.6238.2454.9547-.1309.2224-.3654.3417-.6054.3417z"/><path d="m92.9696 90.0112c-.3599 0-.7144-.0054-1.0688-.0162-4.7663-.1519-10.0725-1.2368-10.296-1.2856-2.4159-.5099-4.8318-1.1662-7.1985-1.9528-.3654-.1247-.5672-.5153-.4417-.8841.1254-.3635.518-.5642.8888-.4394 2.3123.7703 4.6845 1.4103 7.0404 1.9094.0491.0108 5.4152 1.1065 10.056 1.2584 1.4343.0488 2.9012 0 4.3464-.1519.6489-.0651 1.0034-.1193 2.4976-.3526l1.7992-.2766c.502-.0759.955-.1519 1.369-.217 1.309-.2115 2.258-.3688 3.349-.3851 1.483-.0271 3.01.1682 4.526.5696.376.0976.594.4827.496.857s-.485.5912-.861.4936c-1.391-.3688-2.782-.5478-4.14-.5261-.992.0162-1.897.1627-3.146.3688-.42.0705-.878.141-1.385.2224l-1.7945.2766c-1.4833.2279-1.8869.293-2.5685.358-1.1507.114-2.3123.1736-3.4629.1736z"/><path d="m112.329 84.4404c-.283 0-.572-.0108-.856-.0271-.049 0-.098-.0108-.142-.0271-.376-.1085-.752-.2387-1.118-.3851-.867-.3472-1.483-.7269-1.75-.8896l-.071-.0434c-2.787-1.6544-5.672-3.2004-8.5784-4.6053-2.6776-1.2909-4.788-2.3107-7.662-3.2871-3.0321-1.0306-6.195-1.7737-9.4071-2.2131-.3817-.0542-.6544-.4014-.5999-.7865.0546-.3797.4036-.6564.7908-.5967 3.3047.4448 6.555 1.2096 9.6743 2.2728 2.9503 1.0035 5.0989 2.0395 7.8143 3.3522 2.945 1.4212 5.868 2.9888 8.688 4.6595l.092.0542c.235.1465.786.4828 1.538.7866.295.1193.6.2224.905.3146.529.0325 1.064.0271 1.587-.0163.644-.0542 1.113-.1465 1.287-.1844 1.8-.3635 5.857-.8408 9.309-.9927 1.953-.0813 3.425-.0542 5.17.3418.529.1193 1.053.2712 1.565.4393.366.1248.562.5208.442.8842-.125.3634-.523.5587-.889.4394-.463-.1573-.943-.2929-1.429-.4014-1.592-.3635-2.961-.3906-4.799-.3092-3.735.1627-7.623.6672-9.074.9601-.213.0434-.742.1519-1.467.2115-.338.0271-.682.0434-1.02.0434z"/><path d="m124.185 100.653c-.147 0-.3-.048-.426-.146l-6.713-5.1368c-1.21-1.0252-2.372-2.0884-3.479-3.1787-.829-.819-1.652-1.6707-2.438-2.5331-.261-.2875-.24-.7269.049-.9873.29-.2603.731-.2386.993.0489.769.8462 1.571 1.6761 2.383 2.4789 1.08 1.0631 2.22 2.1046 3.376 3.0864l6.686 5.1151c.305.2333.365.6726.131.9816-.137.179-.35.271-.557.271z"/><path d="m124.19 100.654c-.256 0-.507-.141-.627-.385-.982-1.9586-1.614-4.009-1.887-6.0974-.229-1.752-.409-3.1352.207-4.7462.693-1.8172 1.98-2.8261 3.61-4.1008l.142-.1085c1.336-1.0469 2.831-1.9148 4.439-2.5874.36-.1519.769.0163.916.3743.148.358-.016.7648-.376.9113-1.489.6183-2.874 1.4265-4.112 2.3921l-.141.1085c-1.516 1.1879-2.613 2.0449-3.169 3.4986-.491 1.2802-.343 2.3922-.125 4.0683.251 1.931.84 3.835 1.75 5.6521.175.3472.033.7651-.316.9381-.098.049-.207.076-.311.076z"/><path d="m81.0974 84.1528c-.2564 0-.5236-.0163-.7962-.0489-1.9524-.2495-3.2557-1.3072-3.861-1.9147-.2727-.2767-.2727-.7161.0054-.9873s.7199-.2712.9925.0055c.4799.4827 1.5052 1.3181 3.043 1.5133 1.5324.2007 2.6504-.3634 3.392-.7377.1091-.0542.1963-.103.2672-.141-.3435-.1736-.9652-.3743-1.8541-.6129-1.4833-.396-3.0594-.5967-4.6899-.5967-.3872 0-.7035-.3146-.7035-.6998 0-.3851.3163-.6997.7035-.6997 1.756 0 3.452.217 5.0553.6455 1.7178.4611 3.1357.9221 3.1302 1.9853 0 .6401-.6162 1.036-1.2761 1.3669-.6762.3363-1.8487.9276-3.4083.9276z"/><path d="m73.3428 84.1095c-.2672 0-.5236-.1519-.6435-.4122-.1582-.3526 0-.7649.3544-.9222 1.2816-.575 2.3832-1.3886 3.2666-2.4192.469-.5479.8726-1.1554 1.1998-1.8009.1745-.3472.5944-.4828.9434-.3092s.4854.5913.3108.9384c-.3762.7486-.8452 1.4483-1.3851 2.083-1.0198 1.1933-2.285 2.1317-3.7629 2.7881-.0927.0434-.1908.0596-.289.0596z"/><path d="m70.8669 76.8842c-.1145 0-.2291-.0163-.3436-.0434-.7253-.1844-1.167-.9276-.9761-1.649.0927-.3526.3108-.6455.6271-.8245.3163-.1844.6817-.2332 1.0307-.1464.3545.0922.6489.3091.8344.6238.1854.3091.2345.678.1472 1.0251-.0927.3472-.3108.6455-.6271.8245-.2127.1248-.4472.1899-.6872.1899zm0-1.3941s-.0382.0163-.0437.0326c0 .0217.011.0488.0328.0542.0272.0055.0491-.0108.0545-.0325.0055-.0217-.0054-.0488-.0327-.0543 0 0 0 0-.0055 0z"/><path d="m87.8323 92.7017c-.2236 0-.409-.0163-.529-.0271-.7089-.0705-1.4233-.1899-2.1159-.358-.9489-.2279-1.8869-.5533-2.7812-.9547-3.2448-1.47-4.9844-2.6471-7.8693-4.5944-.3217-.217-.4035-.6509-.1854-.971.2182-.32.6544-.4014.9762-.1844 2.9176 1.969 4.5263 3.0539 7.662 4.4805.8126.3688 1.6687.6618 2.5304.8679.6271.1519 1.2761.2603 1.9196.3254.3981.038.7853.0055 1.0143-.0433-.2018-.3092-.7635-.9113-1.9741-1.8172-.3109-.2332-.3709-.6672-.1418-.9764.2345-.3092.6708-.3688.9816-.141 2.7321 2.0395 2.8085 2.94 2.5249 3.5475-.3326.716-1.3361.8462-2.0177.8462z"/><path d="m103.609 94.0086c-1.581 0-3.141-.2224-4.6625-.6618-2.3395-.678-4.5481-1.8931-6.3914-3.5095-.289-.2549-.3163-.6943-.0599-.9872.2563-.2875.698-.3146.9925-.0597 1.6905 1.4808 3.7137 2.5928 5.8569 3.2166 1.5214.4394 3.0924.6401 4.6734.6021-.038-.5316-.163-1.2855-.512-1.8605-.126-.2061-.317-.5208-.682-.7974-.109-.0814-.191-.1302-.382-.2441l-.158-.0922c-.447-.2712-.813-.499-1.053-.6509-.327-.2061-.419-.6401-.212-.9655.207-.3255.643-.4177.971-.2116.234.1519.583.3689 1.025.6346l.152.0923c.257.1573.366.2224.513.3308.573.434.878.9385 1.025 1.1825.747 1.2259.747 2.8153.731 3.2709-.011.358-.294.6455-.654.6726-.393.0271-.78.038-1.173.038z"/><path d="m106.947 81.3321s-.044 0-.066 0c-.616-.0542-1.265-.1519-1.985-.2875-.382-.0759-.627-.4393-.556-.8191.076-.3797.447-.6237.823-.5532.677.1302 1.276.2169 1.844.2712.387.0325.67.3743.638.7594-.033.3634-.339.6346-.698.6346z"/><path d="m108.304 81.4625c-.458 0-.954-.0434-1.483-.1356-.382-.0651-.638-.4285-.567-.8082.065-.3797.431-.6347.813-.5641 1.783.3146 2.797-.0434 2.993-.4991.18-.4231-.245-1.3181-1.603-2.2728-.316-.2224-.392-.6563-.169-.9709.224-.3146.66-.3906.976-.1682 1.811 1.2747 2.591 2.7502 2.089 3.9489-.404.9601-1.505 1.4754-3.049 1.4754z"/><path d="m107.007 76.4123c-.099 0-.197-.0216-.295-.065-1.456-.6672-2.956-1.2693-4.466-1.7955-5.3663-1.8768-11.0597-2.8803-16.9166-2.9779-.3872-.0055-.6981-.3255-.6926-.7106.0054-.3851.3381-.6943.7144-.6889 6.0096.0976 11.8502 1.1282 17.3578 3.0539 1.549.5424 3.092 1.1608 4.587 1.8442.354.1628.507.575.343.9276-.12.2549-.371.4068-.638.4068z"/><path d="m76.3693 73.0712c-.289 0-.5617-.179-.6598-.4665-.1309-.3634.06-.7648.4253-.8896 1.0962-.3905 2.2305-.7052 3.3702-.9492 1.0853-.2333 2.2032-.396 3.3157-.4937.2618-.0217.4799-.0379.6326-.0488.3926-.0271.7198.2658.7471.6509.0218.3852-.2672.716-.6544.7432-.1472.0108-.3545.0217-.5999.0434-1.0525.0922-2.1104.2495-3.1411.4719-1.0798.2278-2.1541.5316-3.1957.9004-.0764.0271-.1582.038-.2345.038z"/><path d="m87.516 72.2737c-.1363 0-.2727-.0759-.3435-.2061-.0982-.1898-.0273-.4177.1635-.5207.0928-.0488.2236-.1139.3927-.1899.6162-.2766 1.2706-.4773 1.9523-.5858.5235-.0868 1.058-.1139 1.5979-.0922.2126.0108.3762.1898.3708.4014-.0109.2115-.1854.3743-.4036.3688-.4799-.0217-.9652.0055-1.4397.0814-.6107.0976-1.1997.2766-1.756.5262-.1472.0651-.2672.1247-.349.1681-.06.0326-.1199.0434-.1799.0434z"/><path d="m91.099 73.0167c-.1582 0-.3109-.0976-.3654-.2603-.0709-.2007.0382-.4177.2399-.4882.0927-.0326.2291-.076.3927-.1302.6162-.1899 1.2597-.3526 1.9196-.4719.5071-.0922 1.0252-.1628 1.5324-.2061.2072-.0217.3981.141.4199.3525.0163.2116-.1418.396-.3545.4177-.4799.0434-.9707.1085-1.456.1953-.6272.1139-1.2434.2658-1.8269.4448-.1582.0488-.2836.0922-.3709.1193-.0436.0163-.0818.0217-.1254.0217z"/><path d="m95.5817 74.1125c-.1527 0-.2945-.0867-.3544-.2332-.0818-.1953.0109-.4231.2072-.5045.0927-.0379.229-.0922.3926-.1518.6163-.2279 1.2652-.4014 1.9305-.5208.5181-.0868 1.0416-.141 1.5597-.1573.2127 0 .3926.1627.3981.3743.0055.2115-.1636.3905-.3763.396-.4799.0162-.9707.0651-1.4506.1464-.6217.1085-1.2215.2712-1.7942.4828-.1526.0542-.2781.1085-.3599.141-.0491.0217-.0981.0326-.1472.0326z"/><path d="m100.73 90.6405c-.049 0-.098-.0108-.142-.0271l-2.9231-1.1499c-.1963-.076-.2944-.3038-.2181-.4991.0764-.1952.3054-.2929.5017-.2169l2.9235 1.1499c.196.0759.294.3038.218.499-.06.1519-.208.2441-.36.2441z"/><path d="m120.384 94.7355c-.153 0-.306-.0596-.42-.179-.775-.7973-1.407-1.6978-1.887-2.6796-.644-1.3072-1.249-2.544-.802-3.8675.453-1.3507 1.723-1.969 3.07-2.6254 1.102-.537 2.28-.8842 3.512-1.036.322-.038.606.1844.644.5044.038.3146-.185.6021-.507.6401-1.096.1302-2.154.4448-3.136.9221-1.216.5967-2.181 1.0632-2.481 1.9582-.295.8733.163 1.8117.747 2.9942.425.8733.992 1.6761 1.68 2.3867.223.2278.212.5967-.017.8137-.114.1085-.256.1627-.403.1627z"/><path d="m17.2491 12.7741c-.109 0-.2181-.0271-.3217-.0759-2.5304-1.3019-5.1808-2.2403-7.86927-2.79356-2.07775-.42852-5.5461-1.14453-6.44591.11396-.13634.1952-.21814.4447-.23995.7377-.02727.3851-.36538.6726-.74712.6509-.38719-.0271-.681672-.358-.654405-.7432.038175-.5587.207225-1.04684.496255-1.45367 1.42879-2.00157 5.15346-1.23132 7.8747-.67261 2.814.5804 5.5788 1.56218 8.2292 2.92368.3435.179.4799.5967.2999.9384-.1254.2387-.3708.3797-.6217.3797z"/><path d="m5.1916 22.1854c-.22359 0-.44173-.1031-.57806-.2983-.77984-1.112-1.49969-2.262-2.15409-3.4228-.28358-.5044-.67622-1.1988-1.1234-2.1643-.409007-.8787-.774384-1.7846-1.090681-2.6959-.01636-.0434-.027267-.0868-.03272-.1356-.005454-.0542-.021814-.1356-.038174-.2386-.2126823-1.2042-.365377-2.4247.33811-2.9509.201776-.1519.638045-.35798 1.281545-.0379.34902.1681.49081.5912.32175.9329-.13633.2713-.43082.4231-.71439.3852-.00546.2441.02727.678.15815 1.4266.01636.0868.02726.1627.03817.2224.29448.8462.63259 1.6869 1.01433 2.5006.42537.9167.80165 1.5784 1.07432 2.0666.63259 1.1174 1.33063 2.2294 2.0832 3.3089.22358.3146.14178.7539-.17451.9709-.11998.0868-.26177.1248-.3981.1248z"/><path d="m36.3795 39.3264c-.1582 0-.3163-.0543-.4472-.1628-1.107-.9112-2.3013-1.6489-3.5393-2.1914-.9052-.396-1.7887-.6346-3.0157-.9655-.409-.1139-.8562-.2333-1.3524-.3743l-1.756-.4936c-1.4397-.4068-1.8269-.5153-2.4813-.7377-1.4397-.4882-2.8467-1.074-4.1882-1.7358-4.27-2.11-8.6382-5.2995-8.8236-5.4352-1.97959-1.4645-3.90463-3.0647-5.72607-4.7571-.28357-.2658-.29993-.7051-.03272-.9872.26722-.2821.70894-.2983.99252-.0325 1.78326 1.6544 3.66468 3.222 5.60067 4.654.0436.0326 4.4608 3.2492 8.6163 5.305 1.287.6346 2.634 1.1933 4.0137 1.6653.6163.2061.9598.3037 2.405.7105l1.756.4937c.4908.141.9325.2603 1.3415.3688 1.2815.3472 2.2032.6021 3.2066 1.0361 1.3633.5912 2.6667 1.3994 3.8719 2.3921.2999.2441.3381.6834.0927.9818-.1363.1681-.3381.2549-.5399.2549z"/><path d="m57.3643 43.183c-.1745 0-.3436-.0651-.4799-.1899-.3599-.3363-.7362-.6563-1.1289-.9547-1.2924-.9872-2.5303-1.5784-4.2318-2.2673-3.4684-1.3995-7.2094-2.5495-8.6491-2.8858-.2127-.0488-.7416-.1735-1.4233-.4176-.589-.2116-1.1616-.4665-1.7124-.7649-.0436-.0217-.0818-.0488-.12-.0813-.2944-.255-.5835-.5262-.8561-.8137-.6381-.6726-1.0471-1.2747-1.2162-1.5351l-.049-.0705c-1.8378-2.6525-3.8174-5.2616-5.8733-7.7405-1.8978-2.2836-3.3866-4.0845-5.5843-6.162-2.3232-2.1914-4.8863-4.1821-7.6239-5.9071-.3272-.2061-.4253-.64-.2181-.9655s.6435-.4231.9707-.217c2.814 1.7738 5.4534 3.8187 7.842 6.0753 2.2577 2.1371 3.7792 3.9651 5.6988 6.2813 2.0886 2.5169 4.09 5.1531 5.9496 7.8436l.06.0868c.1527.2278.5126.7594 1.0689 1.3506.2181.2333.4526.4557.6926.6618.4635.2495.9543.4665 1.4506.6455.6053.2169 1.0688.3254 1.2488.3688 1.7887.4177 5.677 1.6599 8.8781 2.9563 1.8106.7323 3.1357 1.3669 4.5591 2.4518.4308.3309.8452.6834 1.2379 1.0469.2836.2658.2945.7051.0272.9872-.1363.1464-.3217.217-.5126.217z"/><path d="m44.7887 55.7996c-.2509 0-.4963-.1356-.6217-.3743l-3.9537-7.4476c-.6708-1.4374-1.2816-2.8803-1.8324-4.3286-.4144-1.0848-.8016-2.1968-1.1506-3.3142-.1145-.3689.0872-.7594.4581-.8734.3708-.1139.7634.0868.878.4557.3435 1.0903.7253 2.1806 1.1288 3.2383.5399 1.4158 1.1343 2.8315 1.7778 4.2039l3.9374 7.415c.1799.3417.049.7648-.2945.9438-.1036.0543-.2182.0814-.3272.0814z"/><path d="m44.7832 55.7998c-.3763 0-.6871-.2983-.7035-.678-.0709-2.186.2127-4.3124.8399-6.3248.5289-1.6869.9434-3.0213 2.1759-4.2255 1.3906-1.3669 2.983-1.7466 5.0007-2.2294l.1745-.0434c1.6524-.396 3.3757-.5696 5.1153-.5099.3872.0109.6926.3363.6762.7214-.0109.3852-.3272.6944-.7253.6727-1.6142-.0543-3.2066.103-4.739.4719l-.1745.0434c-1.8759.4502-3.2284.7757-4.3463 1.8714-.9816.9601-1.3143 2.0287-1.816 3.6451-.5835 1.8605-.8453 3.835-.7744 5.8637.0109.3851-.289.7106-.6817.7214-.0054 0-.0163 0-.0218 0z"/><path d="m15.1003 23.4602c-.9216 0-2.2358-.1247-3.5774-.9601-1.66872-1.036-2.41038-2.5386-2.70486-3.3414-.13088-.3634.05453-.7648.41991-.895s.76895.0543.89985.4177c.2345.6346.818 1.8226 2.1322 2.6362 1.3088.8137 2.5631.7648 3.392.7323.12 0 .2182-.0108.3-.0217-.2454-.2983-.7199-.7431-1.4288-1.329-1.1834-.9763-2.5304-1.8117-4.0137-2.4843-.3545-.1627-.5072-.575-.3436-.9275.1582-.3526.5781-.5045.9326-.3418 1.5924.7269 3.0484 1.6273 4.3245 2.6796 1.3688 1.1283 2.4649 2.1426 2.0178 3.1027-.2727.5859-1.0253.6889-1.7342.7161-.1745.0054-.3818.0162-.6108.0162z"/><path d="m5.57883 19.6901c-.03272 0-.05999 0-.09271 0-.38719 0-.69803-.32-.69803-.7052 0-.3851.31629-.6943.70348-.6943h.08726c1.37425 0 2.68852-.282 3.90463-.8462.65444-.3037 1.27614-.6889 1.84874-1.1391.3053-.2441.7471-.1952.987.1085.24.3038.1963.7431-.109.9818-.6599.5262-1.3743.9655-2.1323 1.3181-1.40155.6455-2.91213.9764-4.49362.9764z"/><path d="m6.53326 12.1558c-.29993 0-.60532-.0977-.85618-.3038-.28357-.2278-.45808-.5533-.49626-.9113-.03817-.358.0709-.7106.29994-.99262.22904-.28206.55625-.45564.91617-.49361s.71439.06509.99797.29834c.28358.22782.45809.55329.49626.91129s-.0709.7106-.29994.9926c-.26721.3309-.65986.4991-1.05796.4991zm0-1.3941s-.02726 0-.03272.0163c-.0109.0163-.0109.0488.00546.0597.01636.0162.04908.0108.05998-.0055.01091-.0162.01091-.0488-.00545-.0596-.00545-.0054-.01636-.0109-.02727-.0109z"/><path d="m16.1148 33.7932c-.7253 0-1.5215-.4177-1.816-.5913-.6162-.358-1.2106-.7594-1.7723-1.1987-.7689-.6021-1.4888-1.2856-2.1323-2.0233-2.33405-2.685-3.42473-4.4696-5.2298-7.4367-.20177-.3309-.09271-.7595.2345-.9602.33265-.2007.76347-.0922.96525.2333 1.82688 2.9996 2.83576 4.6541 5.09345 7.2469.5835.6726 1.2379 1.291 1.936 1.8388.5071.4014 1.0525.7649 1.6142 1.0903.349.2007.7089.3309.9434.3797-.0545-.3634-.3108-1.1445-1.0361-2.4681-.1854-.3363-.06-.7648.2835-.9492.3382-.1844.769-.0597.9544.2821 1.6306 2.9888 1.3252 3.8349.8125 4.2743-.2399.2007-.5344.2767-.8452.2767z"/><path d="m29.8955 41.6585c-.0818 0-.1636-.0163-.2454-.0434-1.8541-.6943-3.5501-1.6978-5.0389-2.9834-1.8432-1.5839-3.3429-3.6072-4.3409-5.8366-.1581-.3525 0-.7648.3545-.9221s.7689 0 .9271.3526c.9161 2.0504 2.2904 3.9001 3.9755 5.3484 1.1943 1.0306 2.5358 1.8605 3.9973 2.4843.1854-.5045.3872-1.2313.3109-1.9039-.0273-.2387-.0709-.6021-.2836-1.009-.0655-.1193-.12-.1952-.2454-.3797l-.1036-.1518c-.2945-.434-.529-.792-.6817-1.0307-.2072-.3254-.1145-.7594.2127-.9655s.758-.1139.9707.2116c.1472.2332.3763.5804.6653 1.0035l.1036.1518c.1691.2496.24.3526.3218.5154.3381.6346.4035 1.215.4362 1.4971.1636 1.4157-.4962 2.864-.7035 3.2762-.1199.2441-.3708.3852-.6271.3852z"/><path d="m37.1975 31.0921c-.12 0-.24-.0271-.349-.0922-.5345-.3038-1.0853-.6618-1.6851-1.0849-.3163-.2224-.3872-.6617-.1636-.9763s.6653-.3852.9816-.1628c.5562.396 1.0688.7269 1.5651 1.009.3381.1898.4526.6183.2618.9546-.1309.2224-.3654.3526-.6108.3526z"/><path d="m39.9623 32.1714c-.9052 0-2.0014-.4068-3.1629-1.2042-.3218-.217-.3981-.6563-.18-.9709.2181-.3201.6599-.396.9762-.179 1.4887 1.0197 2.5631 1.1228 2.9284.7811.3381-.3146.3272-1.3019-.5071-2.7285-.1964-.3308-.0818-.7594.2563-.9546.3326-.1953.7635-.0814.9598.2549 1.1125 1.9094 1.2052 3.5746.2454 4.4534-.3981.3634-.9162.5478-1.5161.5478z"/><path d="m39.319 26.6442c-.1963 0-.3927-.0813-.5344-.2441-1.0471-1.2096-2.1541-2.3812-3.3048-3.4824-4.09-3.9326-8.8454-7.198-14.1297-9.7149-.3491-.1682-.4963-.5858-.3327-.933.1691-.3472.5835-.4936.938-.3309 5.4207 2.5766 10.3014 5.9342 14.5006 9.9699 1.1779 1.1337 2.3231 2.3379 3.392 3.5801.2508.2929.2181.7322-.0764.9872-.1309.1139-.2945.1681-.4581.1681z"/><path d="m19.9539 12.541c-.0818 0-.169-.0162-.2508-.0488-.1364-.0542-.3327-.1247-.5672-.2061-.998-.3526-2.0232-.6455-3.0539-.8733-1.0798-.2387-2.1814-.4068-3.2829-.5045-.3872-.0325-.6708-.3743-.6381-.7594.0327-.38511.3708-.66717.7635-.63463 1.1616.10307 2.3231.28207 3.4629.53163 1.0852.2386 2.165.5478 3.2175.9221.2454.0868.4526.1627.5999.2224.3599.1356.5453.5424.4035.9004-.109.2767-.3708.4502-.6544.4502z"/><path d="m26.9451 15.5732c-.0599 0-.1199-.0163-.1745-.0434-.4308-.217-.878-.3906-1.3415-.5208-.5944-.1627-1.2107-.2441-1.816-.2495-.1636 0-.2999 0-.3872.0109-.2236.0108-.3981-.1519-.409-.3635-.0109-.2115.1527-.3959.3654-.4068.1036-.0054.2563-.0108.4363-.0108.6762 0 1.3579.0922 2.0177.2766.5126.141 1.0144.3363 1.4888.575.1909.0976.2672.3309.1691.5153-.0709.1356-.2018.2115-.3436.2115z"/><path d="m29.8792 17.7807c-.0437 0-.0873-.0055-.1309-.0217-.4581-.1628-.9271-.3038-1.407-.4285-.6162-.1574-1.2379-.2713-1.8487-.3526-.1636-.0217-.2945-.0326-.3872-.0434-.2127-.0217-.3708-.2061-.349-.4177.0218-.2115.2127-.3634.4199-.3471.0982.0108.24.0216.409.0433.6381.0814 1.2925.2062 1.9414.3689.5017.1248.998.2766 1.4779.4502.2018.0705.3054.2929.2345.4936-.0545.1573-.2072.255-.3654.255z"/><path d="m33.5055 20.6123c-.049 0-.0981-.0108-.1527-.0325-.4471-.1899-.9107-.3418-1.3797-.4665-.6107-.1573-1.227-.2604-1.8323-.3038-.1636-.0108-.2945-.0162-.3872-.0217-.2127-.0054-.3817-.1844-.3763-.3959.0055-.2116.18-.3743.3981-.3743.0982 0 .2454.0108.4199.0217.6544.0488 1.3198.1573 1.9742.3309.5017.1301 1.0034.2983 1.4833.5044.1963.0814.289.3092.2072.5045-.06.1464-.2072.2332-.3545.2332z"/><path d="m27.5179 36.9447c-.1036 0-.2018-.0379-.2781-.1193l-2.1759-2.2565c-.1472-.1519-.1418-.396.0109-.5424.1527-.1465.3981-.1411.5453.0108l2.1759 2.2565c.1473.1519.1418.396-.0109.5425-.0763.0705-.169.1084-.2672.1084z"/><path d="m43.7581 48.835c-.24 0-.4636-.1464-.5454-.3851-.3708-1.0469-.5671-2.1263-.5944-3.2166-.0327-1.4592-.0709-2.8315.8889-3.8513.9762-1.036 2.3886-1.074 3.8883-1.1174 1.227-.0325 2.4431.141 3.6265.5153.3054.0976.4744.4231.3763.7269-.0982.3037-.4254.4719-.7308.3742-1.0525-.3363-2.1486-.4881-3.2393-.461-1.3579.0379-2.4267.0651-3.0757.754-.6326.6726-.6053 1.714-.5781 3.0321.0219.971.2018 1.9365.529 2.8641.1036.2983-.0545.6292-.3545.7323-.0654.0217-.1308.0325-.1908.0325z"/></g></svg>