<svg fill="none" height="24" viewBox="0 0 24 24" width="24" xmlns="http://www.w3.org/2000/svg"><path d="m12 2.25c-1.9284 0-3.81343.57183-5.41681 1.64317-1.60337 1.07134-2.85306 2.59409-3.59101 4.37567-.73796 1.78156-.93104 3.74196-.55483 5.63326.3762 1.8913 1.3048 3.6286 2.66836 4.9922 1.36357 1.3636 3.10085 2.2922 4.99219 2.6684 1.8913.3762 3.8517.1831 5.6333-.5549 1.7815-.7379 3.3043-1.9876 4.3756-3.591 1.0714-1.6034 1.6432-3.4884 1.6432-5.4168-.0027-2.58502-1.0308-5.06339-2.8587-6.89128-1.8279-1.82788-4.3063-2.85599-6.8913-2.85872zm.75 17.9653v-5.9653h2.25c.1989 0 .3897-.079.5303-.2197.1407-.1406.2197-.3314.2197-.5303s-.079-.3897-.2197-.5303c-.1406-.1407-.3314-.2197-.5303-.2197h-2.25v-2.25c0-.3978.158-.77936.4393-1.06066s.6629-.43934 1.0607-.43934h1.5c.1989 0 .3897-.07902.5303-.21967.1407-.14065.2197-.33142.2197-.53033s-.079-.38968-.2197-.53033c-.1406-.14065-.3314-.21967-.5303-.21967h-1.5c-.7956 0-1.5587.31607-2.1213.87868s-.8787 1.32567-.8787 2.12132v2.25h-2.25c-.19891 0-.38967.079-.53033.2197-.14065.1406-.21967.3314-.21967.5303s.07902.3897.21967.5303c.14066.1407.33142.2197.53033.2197h2.25v5.9653c-2.11425-.193-4.07272-1.1936-5.46802-2.7938-1.39531-1.6001-2.12003-3.6766-2.02343-5.7974.0966-2.12086 1.00709-4.12283 2.54209-5.5895 1.53499-1.46667 3.57632-2.28513 5.69936-2.28513 2.1231 0 4.1644.81846 5.6994 2.28513s2.4455 3.46864 2.5421 5.5895c.0966 2.1208-.6282 4.1973-2.0235 5.7974-1.3953 1.6002-3.3537 2.6008-5.468 2.7938z" fill="#fff"/></svg>