<svg fill="none" height="38" viewBox="0 0 102 38" width="102" xmlns="http://www.w3.org/2000/svg"><g fill="#fff"><path d="m3.01643 22.8369-.03207.0315c.03207-.0315.03207-.0315.03207-.0629v-.1575c.35278-1.8579 1.02626-3.6843 1.69974-5.4793.70556-1.8894 1.37904-3.7473 2.27701-5.5423.83384-1.70043 1.79596-3.36941 2.88636-4.91243.96216-1.41706 2.11666-2.96008 3.59186-3.90478.449-.12596.898-.59831 1.4753-.50385.5773.09448.5773.69279.449 1.25961.1603-.44086.2565-.91321-.1283-1.22811-.5131-.37789-1.5073.22043-1.9242.50384-.1925.06298-.3849.18894-.5452.3149.0962-.09447.2245-.18894.3848-.28341l-.1603.06298.4489-.25192c.5132-.28341 1.6677-.91322 2.0526-.09447.2886.66129-.1604 1.76345-.3849 2.39325-.4169 1.07067-.93 2.07835-1.4752 3.08604.0962-.22043.481-1.07067.481-1.07067-.2245-.03149-1.2507 2.29879-1.4432 2.36177h.0321c-.1283.09447-.2245.18894-.2245.22043-.0641.37788.3849.28341.6414.25192 1.0904-.12596 2.5015-1.03918 3.2071-1.82643.7697-.85024 1.0583-2.14133 1.0583-3.27498v-.03149c-.032-2.14133-1.5394-4.849489-4.1371-4.69203867-1.4432.06298147-2.7901 1.44854867-3.72017 2.39325867-.67348.75576-1.31489 1.57451-1.89216 2.39325-.25657.37788-.51313.72427-.73763 1.10216-.25656.34639-.76969.88172-.89797 1.29109 0 0 .16035-.18893.28863-.3149-.35277.53534-.67348 1.10216-.99419 1.63749-.03207-.03149.19243-.47235.19243-.47235-.28864-.06298-1.60353 2.51924-1.76388 2.80264-.57727 1.0392-1.0904 2.0783-1.44318 3.1805-.38485 1.2281-.89798 2.3933-1.28282 3.5899-.192426.5983-.384849 1.1651-.513131 1.7634-.064142.2834-.128283.5354-.160353.8188 0 .0315-.064142.5353 0 .4723-.064142.2205-.064141.5039-.096212.7243 0 0 0-.5353.03207-.5983-.128282.1574-.03207.7558-.064141.8187-.1603525 1.1967-.416917 2.4563 0 3.6214.5452 1.606 1.892167 2.9286 3.367407 3.7788.7697.4724 1.79596 1.0077 2.75807.9447 1.12247-.063 2.21287-.9762 3.04671-1.6375 2.43732-2.0153 4.65022-4.8494 5.06712-8.0614.0321-.2205.1925-1.3226-.1924-1.3541-.3528-.0315-.6093.7242-.7376.9132-.9621 1.543-2.0846 2.9916-3.3354 4.3141-1.28278 1.3856-2.88631 2.8657-4.84262 3.3065-.25656.063-.54519.0945-.83383.0945-.38485-.0315-.73762-.126-1.02626-.4094-.16035-.1574-.3207-.6928-.51313-.7872 0-.1575-.03207-.3149-.06414-.4094l-.09621-.189c-.03207-.9447 0-1.8264.16035-2.8026v-.0315c0-.0315.03207-.0315.03207-.063zm5.64442-15.39865c-1.25075 2.01537-2.30908 4.09375-3.36741 6.23505-.60934 1.2596-1.21868 2.5507-1.69974 3.9048.67349-2.1099 1.47525-4.1252 2.43737-6.1406 1.15454-2.42474 2.69392-4.78651 4.52193-6.7389-.7376.88173-1.37902 1.88941-1.89215 2.73965zm3.30325-3.46392c-.449.44086-.8659.9447-1.2507 1.41705.6093-.78725 1.2507-1.5745 2.0525-2.20431-.2886.25192-.5773.56682-.8018.78726zm3.2712.25192c.0642-.18894.1283-.40937.1604-.6613-.0642.28342-.1924.56683-.1924.78726.032-.06298.032-.09447.032-.12596z"/><path d="m30.7582 17.5151s.0321.0315 0-.0315c-.1603-.2204-.3848-.063-.6093 0-.9301.189-1.8922.4094-2.8543.5668.3528-1.1336.7056-2.3302.8338-3.4954.0642-.4408.0963-.9132 0-1.354-.0641-.2835-.1603-.5669-.3207-.8188 0 0-.3848-.4723-.2886-.2204l-.0321-.0315-.1283-.2519.1283.1259c.0321-.1889-.5131-.5353-.5131-.5353-.8018-.7873-1.8922-1.3856-2.9826-.7873-.6734.3779-1.2186 1.0077-1.6676 1.6375-.1604.2205-.3207.4724-.449.7243s-.3207 1.0707-.5131 1.1966c-.1604.126-.6415.1575-.866.2834-.3207.126-.6093.2835-.8659.4724-.6093.3779-1.0904.9132-1.5393 1.4485-.7697 1.0077-1.1546 2.1414-1.6998 3.1491-1.0262 1.9209.0962 4.4401 1.9884 5.3533.6093.2834 1.3149.4094 1.9563.3464.6735-.0945 1.3149-.4409 1.828-.8188.4811-.3464 1.5394-.9762 1.7318-1.5115 0-.0315-.0641 0-.1603.0945l.93-1.0707c.0321.0315-.2245.3464-.2245.3464.2245.0945 1.3791-1.5745 1.5073-1.7005.2245-.3778.449-.7872.7056-1.1651.2245-.2834.1603-.2519.4811-.3779-.0321.0315.3848-.0945.4489-.0945.3528-.0629 4.1051-.3149 3.175-1.48zm-11.0964 6.361h-.0321c-2.6618.3779.417-5.1644.4811-5.4793l-.1924.2834c.481-.9447.93-1.7004 1.1545-1.9523.3528 1.5745 2.0846 2.1728 3.4957 2.3617-.93 1.8264-2.6618 4.3772-4.9068 4.7865zm6.3179-8.7228c-.2245.8818-.4169 2.0469-.898 2.8342-.1603.3149-.0641.2204-.3848.2834-.1924.063-.6093 0-.8018-.0315-.3527-.0315-.7697-.0945-1.0262-.3149-.449-.3779-.3849-.9762-.3207-1.5115.0641-.5354.2245-1.0392.4169-1.5431.0962-.1889.7055-1.1966.6093-1.3855-.032-.0945-.3848.4723-.4169.5038.1924-.3464.3849-.5353.5452-.7558-.0321 0 0-.0314.0321-.0944v.0315l.032-.063s0-.0315.0321-.0315c.4811-.6298 1.6677-2.0469 2.3091-1.0707.4811.8188.0321 2.3618-.1283 3.149zm-2.2129-2.0468.0321-.0315c0 .0315-.0321.0315-.0321.0315z"/><path d="m47.487 17.6726v-.0315c-.1924-1.0392-1.6356.6928-1.828.8502-.93 1.0077-1.7959 2.1098-2.6298 3.212-.8338 1.1336-1.6356 2.2673-2.5015 3.4009-.4169.5669-.8338 1.1022-1.3149 1.606-.1603.189-.5452.7243-.8338.7243-1.1225 0-.2566-4.4401-.1283-5.1329.1924-1.2281.2887-2.8656 1.0904-3.8418.1924-.2519 2.3732-2.9916 2.3732-2.9916-.0641-.0314-.3207.2835-.481.4724l1.379-1.8264.0962-.126h.0321-.0321l.2566-.3464c.0321.0315 0 .0945-.0321.1575l.2887-.3149.8338-1.0707c.6093-.8502 1.1866-1.7635 1.7318-2.64518.8659-1.44855 2.0525-3.5269 1.4111-5.29035-.4811-1.2911-2.2449-1.54302-3.4315-1.10216-.866.3149-1.6036.9762-2.2129 1.66898-.3207.40938-.6414.85024-.9301 1.32259-.0962.12596-.5131 1.13365-.6093 1.25961h.0321c-.1925.34639-.3849.69278-.5132 1.03917.0642-.25192.2245-.75576.3528-.85023-.2565.18894-.481 1.10216-.5452 1.19662-1.2187 2.61365-2.277 5.25885-3.0467 8.03005-.8659-.9762-2.2449-2.6452-3.7522-2.0469-1.2508.5038-2.1808 1.7949-2.8223 2.9286-.5772 1.0077-.7376 2.0468-1.1545 3.023-.7376 1.669-1.0904 5.1014 1.4111 5.6053.7697.1574 1.4753-.3149 2.0846-.7243 1.0904-.7872 2.1167-1.7005 3.0788-2.6452-.1604 1.669-.5132 4.1882.8659 5.5108 1.6997 1.7005 3.3995-.5983 4.4257-1.8579 1.3149-1.6375 2.3412-3.4639 3.6561-5.0384.6414-.7558 1.2828-1.5116 1.9563-2.2043.5131-.5039 1.5394-1.1337 1.4431-1.9209zm-11.8019 2.0783c-.0321.0945-.0321.1575-.0321.1575-.1283.7557-.1283 1.417-.6735 1.9524-.481.5038-.9942.9762-1.5073 1.4485-.4811.4409-1.6356 1.732-2.3732 1.669-.898-.0945-.2245-2.1099.2245-3.338-.4811 1.2596-1.2508 3.3065-.1924 3.3695.2886.0315.7696-.2205 1.1866-.5669-.3849.3464-1.0263.8188-1.4111.6299-.7377-.315-.0963-2.1099.032-2.6137.4169-1.4486 1.0263-2.8341 1.7318-4.1567.3528-.6613.8659-1.732 1.5394-1.795l-.1603.0945c.032-.0315.0641-.0315.0962-.0315.2245-.063.449.0945.6093.2204.4169.2834.6735.8188.9621 1.2281.3207.5039.0963 1.0392-.032 1.6061zm5.1633-7.2742c0-.0315 0-.0945.0321-.126v-.0315c.0321-.0944.0641-.1259.0641-.1259v-.0315c.7377-2.0154 1.5394-4.03077 2.694-5.8572.2886-.47235 1.1224-1.9209 1.8601-1.51153.2886.15745.3527.56682.3527.85024.1283 1.88941-1.4111 4.12521-2.3732 5.63669-1.1224 1.7635-2.3732 3.4955-3.6881 5.1015l.7056-.7243.6414-.7873-1.6356 2.0784-.2245.2834-.1283.126c.0321-.189.1924-.3779.3528-.5984-.0642.063-.1283.126-.1604.189.4169-1.3541.8659-2.7082 1.347-4.0623-.0321.0315 0-.0314.032-.1574l.0963-.1575c0-.0314 0-.0629.032-.0944zm-2.6939 2.5822c-.0641.1574-.2566.8817-.3528.9762 0 .0315-.032.0629-.0641.0629.2566-.3149.0962-.7242.2245-1.1021.0641-.1889.3848-.5353.449-.7873 0 .252-.1604.6928-.2566.8503zm-5.0992 8.7228c.8017-.6928 1.5714-1.4171 2.3091-2.1729-.0642.4094-1.0584 1.1022-1.4111 1.4171-.417.4094-.898.8187-1.3791 1.1966h-.032zm5.6765-11.5884c-.1283.3778-.2887.7242-.4811 1.0706.1604-.4723.2566-.9447.4811-1.3855.1924-.3464.4169-.7873.5772-1.1967-.1603.5039-.4169 1.0392-.5772 1.5116zm2.0846.3778-.1283.3149c0-.0314.032-.0944.032-.1574zm-6.9273 4.1568c-.1283.0944-.2245.2204-.2565.2204.0641 0 .1603-.126.2565-.2204zm.898-.063c.0641.0315.1283.063.1924.1259zm6.35-.5669c0-.0314.032-.0629.0641-.0944-.0321.063-.0641.0944-.0641.0944zm.0641-.0944.0321-.063c0 .0315-.0321.063-.0321.063z"/><path d="m57.4154 17.5781c0 .0315 0 .0315-.0321 0v-.0315c-.5131-.8502-1.1866.3149-1.4752.7243-.5452.7242-1.0584 1.417-1.6356 2.0783-.4811.5668-.9942 1.1337-1.3791 1.732 0 .063-.0641.2204-.0641.2204-.1283.189-.3207.3464-.4811.5353-.2886.2835-.5772.5984-.8979.8818-.4811.4408-3.175 2.9286-3.5278 1.3226-.1924-.7873.0641-1.7635.2245-2.5193.0962-.4093.1924-.7872.2566-1.1966.0641-.3149-.0321-.6298.1282-.9447.0963-.1889.1283-.1574.3528-.2204l.5452-.189c.3528-.1259.7056-.2519 1.0263-.4408.481-.2834.93-.6298 1.3469-.9762.9942-.8188 2.0526-1.795 2.4695-3.0231.2245-.6928.2565-1.4485-.1924-2.0468-.417-.5354-1.1225-.8188-1.7639-.9447-1.7318-.3149-3.0467.6613-4.0409 1.9523-1.2187 1.4801-2.0846 3.3065-2.5015 5.1644-.2245.9133-.3528 1.8265-.5132 2.7712-.1603.9447-.2565 1.8264.2566 2.7081-.0321-.3149-.0962-.5983-.0962-.8817 0-.1574.0641-.3149.0641-.4409 0-.0629-.0641-.2519-.0641-.3463 0-.2835.0641-.5039.1283-.7873.032-.2834 0-.5668.032-.8502.0321-.3149.1604-.5669.2887-.8503.0962-.2519.1283-.4723.2245-.7242.0962-.2205.1603-.4724.2565-.7243.0321-.1575.1925-.3464.2887-.5354-.0962.2835-.2887.5354-.3528.7873-.0962.3779-.0321.7873-.0641 1.1651-.0642.4094-.1925.8188-.2566 1.2596-.0641.4094-.2566.7873-.3207 1.1967-.0642.3779-.1924.6613-.1604 1.0391 0 .2205.0321.4409.0642.6299.032.2519.1924.4093.3528.5983.5452.6298 1.2828 1.1336 2.1166 1.354.5773.1575 1.0904.126 1.6356-.1574.7697-.4094 1.4432-1.0392 2.0205-1.6375.5452-.5983.9621-1.2596 1.4431-1.8894.449-.5668.9942-1.1022 1.4432-1.669l1.7318-2.2043.9942-1.2911c.1604-.1889.2566-.3464.1283-.5983zm-7.9535.3464c.0321-.063.0321-.0945.0321-.0945.481-1.0077.8338-2.0783 1.5073-3.0545l.5772-.7558c.1283-.1575.3528-.4409.5773-.5038.4811-.0945.6094.7242.5773 1.0391l-.1283.6613c-.0321.189.0321.3149 0 .4724-.0641.1889-.2245.2834-.3207.4408l-.5452.6928c-.7376.8503-1.6677 1.5745-2.6939 2.1099.1603-.3464.2565-.6928.4169-1.0077z"/><path d="m74.7831 8.35146c-.1283-1.00768-1.6997-1.76345-2.5656-1.16514-.7056.47236-1.347 1.76345-1.8601 2.51922l-3.1429 4.66056c-.4811.7243-.9622 1.4485-1.4753 2.1413-.1283.2205-1.347 2.0784-1.347 2.0784.1283.0315.417-.4094.4811-.4724-.8659 1.1966-1.9884 2.4563-3.0467 3.6529-.3528.4408-2.4694 3.1805-3.2391 2.8341-.2566-.126-.3207-.5353-.3528-.7558-.2566-1.6689.3848-3.3379.5773-4.9439l-.1283.3149.1924-.7873c0 .0945-.0321.189-.0321.2834l.0321-.1889-.0962.9447c.449-1.8894 1.0904-3.7158 1.828-5.4793.1924-.4409 2.0525-5.00693 2.4374-5.41631-.0642.03149-.1604.15745-.2566.28341.6094-1.10215 1.2508-2.14133 1.9884-3.14901-.1604.25192-.449.72427-.449.72427.1283.03149 1.4111-1.70047 1.4111-1.88941 0-.03149-.0962.03149-.1924.09447.3207-.40937.5452-.6298.2886-1.32259-.3848-.78725-1.5073-1.76345-2.4373-1.2911-.1925.12596-.3207.28342-.449.44087-.6735.85023-1.2187 1.95239-1.6677 2.89709-.1604.37789-.2886.44087-.5452.72428-.4169.47235-.6414 1.10216-.9301 1.63749-.5772 1.13364-1.0262 2.33024-1.5393 3.49544-.5132 1.0706-.9301 2.1728-1.2829 3.3064-.1603.4409-.2886.8818-.4169 1.3226-.1283.4409-.5773 1.2596-.5131 1.732l.1924-.4094c-.1603.5353-.2886 1.1022-.4169 1.669-.0321 0 .0321-.4094.0321-.4094-.1283 0-.4169 1.3856-.4811 1.5745-.1283.6613-.2245 1.3226-.2886 2.0154-.0321.7243 0 1.3856.3528 2.0469.6734 1.1651 1.8921 2.2987 3.207 2.7081.2245.063.4811.126.7056.0945s.449-.126.6093-.2834c.1283-.063.6414-.5983.2886-.3464l.6094-.5668s-.2887.3464-.3849.4093c.1604-.0629.5132-.5353.5132-.5353 1.0583-1.1336 2.1166-2.2358 3.0787-3.4639.9942-1.3226 1.8922-2.7712 2.7902-4.1882-.2566.7558-.3207 1.5115-.5452 2.2673-.1283.4094-.2566.8187-.3528 1.2281-.0641.1575-.1283.9132-.0641.8502 0 .0945 0 .1575-.0321.2205 0-.0315 0-.063-.0321-.0945-.0962.0315-.0962.9762-.1283 1.1336-.1283.4409-.3207.8503-.3848 1.3541-.1604 1.3226-.0642 2.8656.7697 3.9993.5131.6928 1.2828 1.0706 2.1487 1.1336.9301.0315 1.4432-.4723 1.9242-1.1651.3207-.4724.6094-.8817.8018-1.4171.1604-.4408.4811-1.2911.2886-1.7319-.1282-.2834-.1924-.3149-.4489-.189-.3528.126-.7697.8817-.9942 1.1652-.3207.3464-.9621 1.2281-1.5073 1.2911-.3208.0314-.2566-.0315-.3208-.4094-.032-.2204-.032-1.7005 0-1.732-.0962.126-.1282.2519-.1603.3779.1283-1.0392.5773-2.2988.898-3.4009.3848-1.2911.6734-2.5822 1.0262-3.8733.3849-1.3226.898-2.6452 1.4432-3.9048.1283-.2834 1.5715-3.4009 1.796-3.6844-.2245.1575-1.3791 2.5507-1.7639 3.338.7697-1.7949 1.6676-3.5269 2.7901-5.16439.0321 0-.3207.53529-.2565.53529.0962.063.8658-1.10211.8017-1.1336-.0321 0-.0641 0-.0962.03148.1604-.15745.3528-.25192.3207-.56682zm-8.3704 14.95784c-.2886 1.2911-.6094 3.0231-.3528 4.3142-.2886-1.4486-.1924-3.0861.0642-4.5346.1924-1.1967.5452-2.2988.9621-3.401-.3528 1.2596-.3849 2.3618-.6735 3.6214zm-5.3558-11.9663c.898-2.10981 2.1808-4.03071 3.5278-5.85715-1.347 1.88942-2.4374 3.93628-3.3995 6.04615-.7376 1.6689-1.4111 3.275-1.8922 4.9439.0962-.4408.1924-.8817.3528-1.3226.3848-1.2911.898-2.5507 1.4111-3.8103zm-.7376 3.0546c.5772-1.543 1.2507-3.0861 2.0204-4.59759-.7055 1.44859-1.6676 3.71589-2.0204 4.59759zm10.1663 2.0783c-.0962.2834-.2244.5669-.3527.8188l.5772-1.4486zm-7.6969-7.5891v-.0315zm2.4053-4.15671c0 .03149-.0321.06298-.0641.06298.032 0 .0641-.03149.0641-.06298z"/><path d="m91.2521 17.5466c-.1924.0315-1.8601.5353-1.7639.7873 0 .0314.0642.0629.0962.0629-.5452.2205-1.2507.252-1.7959.5983-.6094.4094-1.1866.8188-1.828 1.1652.5772-.9762 1.1224-2.0154 1.4752-3.0546.1283-.3778.8659-2.7081.3848-2.96-.0641-.0315-.0962.2519-.1282.4093.032-1.2596-.3849-3.1805-2.1167-3.3064-1.0583-.063-2.0525 1.2281-2.6298 1.9209-1.3149 1.6375-2.4694 3.4009-3.624 5.1014-.3207.4723-3.5277 5.5737-3.5277 5.5737s.2245-.3149.5131-.7242c-.2886.4723-.5773.9762-.8338 1.48.1283-.4724 1.3469-4.2197 2.1166-6.424.0642-.0945.0962-.2204.1283-.3149l.1924-.5353v.0315c.2887-.8503.5773-1.7005.8339-2.5822 0 .0944-.1283.5668-.0962.5668.1924.0315.449-1.2911.3207-1.2911l-.0962.1574c.0962-.4723.2565-.6927-.0321-1.2281-.2245-.4723-.6094-.9132-1.1546-1.0392-1.0583-.2834-1.5714.5669-1.5073 1.3856 0 .126.1604.189.1604.3149 0 .1575-.1604.4409-.1924.5668-.2245.6613-.3849 1.2911-.6415 1.9209-.1282.3464-1.3148 3.6214-1.3148 3.6214.0641-.0315.0962-.0945.1282-.1574-.0962.2834-.1924.5668-.3207.8502-.032-.0315.0962-.2519.0321-.2519-.3207-.063-1.1225 2.5822-1.1866 2.8341-.1283.5983-.2886 1.1651-.5131 1.7634-.0963.3149-.2245.6298-.3207.9762 0 .0315-.1604.7873 0 .5039-.0321.0944-.0642.1574-.0642.2204 0-.0315-.0321-.063-.0321-.0945-.0962.0315-.1603.6928-.1603.7243-.1283.3464-.2886.5983-.449.9132-.4169 1.0077-.6414 2.1099-.8018 3.1805-.2565 1.6375-1.0262 4.0938-.1924 5.6053.2886.5353 1.1866 1.6375 1.8922.9762.3207-.3149.3207-1.0392.3528-1.4171.1924-1.0391.3527-2.1098.5772-3.149l.2887-1.4485c.032-.063.2886-1.2282.1924-1.1967-.0642.063-.1283.1575-.1604.252.1604-.5039.3849-.9762.5773-1.5116.2566-.7557.449-1.48.8338-2.1728.449-.6928.8339-1.4485 1.2508-2.1413.3207-.5669.6093-1.2911.9621-1.7635.0962-.1259.2886-.1889.449-.3149.3207-.3464.5452-.8187.8018-1.1966.481-.7558.8979-1.5115 1.4111-2.2043.2245-.3149 2.7901-3.8418 3.0467-4.0623-.0642.0315-.1283.063-.1925.126.2566-.3149.5452-.5983.8018-.8502.0321.0315-.1924.2204-.1603.2519.0641.0315 1.5393-1.1022 1.7959-1.1337.7056-.1259.449 1.1967.3528 1.5431-.1604.7242-.5773 1.417-.9301 2.0468-.1924.3464-.3848.6613-.5452 1.0077-.032.0315-.2886.6298-.1924.5668l-.1924.2834c.0641-.0944.0962-.2204.0962-.2204-.1283 0-.2886.5353-.3207.6298-.1924.3149-.449.5668-.7056.8188-.6734.7557-1.2828 1.543-1.9563 2.2673-.5131.5353-1.1866 1.48-1.9563 1.6689-.5452.126-.9621-.1574-.6734.6928.1924.5983.8979 1.9839 1.6676 1.9839.7056 0 1.5715-1.0392 1.9884-1.48.4811-.5354 1.0263-1.0392 1.5394-1.606.1283-.189 1.6035-1.9209 1.828-2.0154h-.0321c.3207-.1575.6414-.0315 1.0904-.3464.2566-.1889.3849-.3779.6735-.5668.2245-.126.3207-.2834.4169-.3779 0 0 0 .0315.0321.0315.3207-.3149.7697-.2204 1.1866-.5039.5131-.3464 1.1546-.7872 1.6036-1.1966.5772-.5038 1.379-.7872 1.6355-1.6375-.1282.0315-.2886.0315-.3848.0945zm-16.4201 3.212v.0315c-.0321.4094-.3207.8817-.4811 1.2596-.2245.5983-.4169 1.1966-.6093 1.7949-.4169 1.2596-.898 2.5192-1.4111 3.7159-.417 1.0077-.8018 2.1098-1.0904 3.212.3527-1.543.93-3.0546 1.379-4.5031.4169-1.3226 1.0583-2.6137 1.5715-3.9048.0641-.1575.6734-1.4171.6093-1.669.0321.0315.0321.063.0321.063zm1.4111.9447c-.0962.3779-.1925.7243-.3207 1.0392.0962-.3149.1924-.6928.3207-1.0392zm4.3936-5.1644-.6093.8817c.1924-.2834.3848-.5983.6093-.8817zm5.2275 3.8103c.0321-.0944.1925-.1259.2887-.1889zm-7.6648-3.6843c-.0321.0315-.0642.1259-.0962.2519zm-.2245.5353.1283-.2834zm1.6677.7873v-.0315c.032-.0315.032-.0315.032-.063.0321-.0315 0 .0315-.032.0945zm-1.6677-.7873c0 .063-.0321.0945-.0642.126zm-6.799 13.8557c0-.0315 0-.0315.0321-.063 0 .0315 0 .0315-.0321.063zm5.2596-9.7305c0 .0315-.0321.0315-.0321.0315z"/><path d="m101.993 17.956c-.096-.4409-.353-.5039-.674-.3779-.609.2834-1.218.9132-1.7957 1.2911-1.3149.8187-2.6298 1.48-4.0409 2.1728 0-.0315-.0321-.0945-.0641-.1889.032.1574 0 .2204-.0321.2519-.3207-1.3541-.6414-2.7082-.898-4.0937.1283.5983.4169 1.606.6414 2.4562-.2886-1.3226-.6414-2.9601-.6093-2.9601-.0642.0315-.0641.0945-.0641.1575-.0642-.3779-.1604-.8503-.0963-1.2596.0321-.4724.2887-.8818.449-1.3226-.032.2204-.0962.5038-.0962.5038.1924.0315.3207-1.1336.3207-1.2596-.0321-.1889-.449-.7872-.449-.6298-.8659-.7872-2.5656.9447-2.8222 1.7005-.1924.5038-.1924 1.0392-.1603 1.5745.032.5353.1924 1.0077.3527 1.5115.0963.3779-.032.6298 0 1.0392.0642.6298.2887 1.2596.417 1.8579.1282.4724.5452 1.4171.4489 1.8579-.0641.4409-1.0262.8188-1.4431 1.0707-.5452.3464-1.0904.7558-1.6356 1.1651-.9621.7243-1.9884 1.6375-2.3732 2.8027-.0642.1574-.2887.8502-.0642.9762.0321.0314.1283-.5039.1604-.5669-.417 2.0784 1.6676 3.0861 3.6239 3.1176 2.2129.0629 3.7523-1.1967 4.522-3.1491.3207-.8502.4169-1.7319.3848-2.6136 0-.5984-.0641-1.1652-.1603-1.732-.0642-.5038-.1283-.4724.2245-.7558.2565-.1889.6414-.3149.8979-.4408 1.0263-.5354 1.9564-1.1652 2.8864-1.8265.673-.4723 2.277-1.2911 2.149-2.2987zm-12.9568 10.8326c-.8338-.2519 0-1.543.2887-1.9524.481-.6298 1.1866-1.1022 1.828-1.543l.9621-.6298c.0962-.063.7055-.5354.5131-.4724l.3849-.2204-.2245.1889c.0641-.0315.1603-.0629.2245-.1259.032.7557.032 1.5115-.1925 2.2673-.032.1259-.6414 1.3855-.8979 1.6375l.1603-.126c-.2886.3464-.6093.6298-.9942.8502 0-.0315.2887-.2204.2566-.2519l-.898.3464c-.449.0945-.9621.1889-1.4111.0315zm4.0409.9132c-.8338.3464-1.6356.5039-2.5015.5353 1.5715-.0944 3.2071-.8502 4.1371-2.1413-.3528.6928-.8018 1.2281-1.6356 1.606zm2.3412-8.9432c-.0321-.2204-.0962-.5353-.1925-.8817.0642.3464.1283.6928.1925.8817zm.4169 3.275c-.0321-.0315-.0321-.0945-.0321-.1575 0 .063.0321.126.0321.1575z"/></g></svg>