<svg fill="none" height="201" viewBox="0 0 437 201" width="437" xmlns="http://www.w3.org/2000/svg" xmlns:xlink="http://www.w3.org/1999/xlink"><clipPath id="a"><path d="m0 0h437v201h-437z"/></clipPath><g clip-path="url(#a)" fill="#408f95"><path d="m92.8394 22.3352c-.38 0-.7442-.2133-.9184-.5767-.5463-1.1298-.7601-2.2596-.6492-3.3499.5779-5.5778 9.2472-8.3588 15.5812-10.38931 6.682-2.14107 13.761-3.37357 21.029-3.65799.538-.0395 1.037.41083 1.061.97968.023.56094-.42 1.03498-.982 1.05868-7.086.27653-13.974 1.46952-20.482 3.55529-5.139 1.65125-13.7449 4.40855-14.1804 8.66695-.0713.719.0792 1.4775.4592 2.2675.2455.5057.0317 1.114-.475 1.3589-.1425.0711-.293.1027-.4434.1027z"/><path d="m207.032 28.5689s-.079 0-.119 0c-1.639-.1896-3.278-.5294-4.869-1.0192-2.114-.6479-3.69-1.4379-4.355-1.7698l-.221-.1106c-7.213-3.492-14.656-6.7155-22.114-9.5676-6.864-2.623-12.295-4.7009-19.595-6.51805-7.704-1.91196-15.685-3.08915-23.713-3.48418-.562-.03161-.997-.50564-.966-1.06659.032-.56094.499-.99548 1.069-.96388 8.163.40294 16.27 1.59593 24.109 3.54739 7.426 1.84875 12.897 3.94241 19.833 6.58911 7.513 2.8758 15.011 6.1151 22.271 9.6309l.246.1185c.681.3397 2.098 1.0508 4.045 1.6512 1.473.4504 2.985.7664 4.505.9402.563.0632.958.5689.895 1.1219-.055.5214-.499.9007-1.013.9007z"/><path d="m111.683 40.3563c-.159 0-.317-.0395-.467-.1106-1.75-.9086-4.363-2.2991-6.841-3.7844-.657-.3951-1.884-1.1219-3.468-2.1885-.483-.3239-1.0054-.6795-1.5438-1.0745-1.9318-1.3747-3.8003-2.8679-5.5659-4.4322-.0475-.0474-.095-.0949-.1346-.1502-.0871-.1106-.2217-.2765-.3959-.4819-1.7893-2.1648-3.4757-4.4164-2.771-6.0282.2216-.5135.7679-1.1377 2.0822-1.2088.5701-.0395 1.0451.3951 1.0768.956s-.3959 1.0429-.958 1.0745c-.1663.0079-.2692.0316-.3325.0474 0 .3634.3721 1.3194 2.4781 3.8634.1583.1896.285.3476.38.4661 1.6944 1.4933 3.4837 2.9154 5.3286 4.2348.53.3792 1.029.7189 1.496 1.0429 1.536 1.0349 2.732 1.746 3.373 2.1331 2.439 1.4537 5.004 2.8285 6.73 3.7212.499.2608.697.8691.435 1.3747-.182.3477-.538.5531-.902.5531z"/><path d="m152.275 46.2899c-9.96 0-19.524-1.1219-19.643-1.1377-6.009-.7506-12.074-1.8567-18.012-3.2867-.546-.1343-.887-.6794-.752-1.2246.134-.5451.681-.8848 1.227-.7505 5.867 1.4142 11.852 2.5045 17.782 3.2392.127.0158 13.595 1.596 25.091.9797 3.562-.1896 7.181-.6241 10.744-1.3036 1.591-.3002 2.454-.5135 6.072-1.3905l4.378-1.0666c1.433-.3476 2.684-.6636 3.793-.9402 3.309-.8295 5.495-1.3826 7.616-1.5327 3.144-.2212 6.35.0474 9.517.8059.546.1264.887.6794.752 1.2246-.126.5451-.673.8848-1.227.7505-2.969-.7031-5.962-.9559-8.899-.7505-1.948.1343-3.951.6399-7.26 1.4774-1.117.2844-2.376.6004-3.809.9481l-4.378 1.0666c-3.571.869-4.529 1.106-6.175 1.4142-3.65.6873-7.356 1.1377-11.014 1.3352-1.908.1027-3.863.1422-5.803.1422z"/><path d="m210.238 28.64c-.435 0-.839-.2844-.973-.7189-.167-.5373.134-1.1061.673-1.272 2.375-.7269 14.758-4.4402 24.963-5.9413 4.98-.7348 8.63-.8059 12.604-.2528 1.299.1817 2.597.4345 3.864.7426.546.1344.879.6874.744 1.2325-.134.5452-.68.8849-1.235.7427-1.195-.2923-2.43-.5293-3.665-.7032-3.769-.5293-7.253-.4582-12.027.245-10.055 1.4853-22.311 5.1512-24.663 5.878-.103.0316-.198.0474-.3.0474z"/><path d="m239.564 65.6146c-.071 0-.142 0-.213-.0237-4.561-.9797-12.32-4.7483-15.154-7.3476-2.447-1.8251-4.402-3.2709-6.065-4.5034-5.756-4.2584-8.139-6.0124-15.7-12.3645-.428-.3634-.483-1.0033-.127-1.43.364-.4266 1.006-.4819 1.433-.1264 7.514 6.3047 9.881 8.0587 15.605 12.2855 1.679 1.2404 3.65 2.6941 6.12 4.5429.032.0237.056.0474.088.0711 2.549 2.3702 9.999 5.9728 14.235 6.8814.554.1185.903.6558.784 1.2088-.103.4741-.523.8059-.998.8059z"/><path d="m239.564 65.6149c-.269 0-.546-.1107-.744-.324-2.652-2.8205-6.057-7.5688-7.189-14.1737-.34-1.9752-1.132-6.597.728-11.851 1.703-4.7956 4.672-7.5688 8.108-10.7843 3.016-2.8206 6.445-5.2381 10.197-7.1975.499-.2607 1.117-.0711 1.378.4266.261.4978.071 1.114-.428 1.3747-3.586 1.8725-6.864 4.1874-9.746 6.8815-3.373 3.1523-6.041 5.6489-7.577 9.9785-1.686 4.7562-.958 9.0146-.641 10.8318 1.045 6.1071 4.204 10.5078 6.666 13.1229.388.4108.365 1.0508-.047 1.4379-.198.1817-.451.2766-.697.2766z"/><path d="m225.337 33.8304c-.301 0-.594-.1264-.792-.3792-.356-.4346-.285-1.0745.15-1.4301 1.734-1.3984 3.634-2.5914 5.645-3.5315 2.423-1.1377 4.996-1.9199 7.649-2.3307.554-.0869 1.076.2923 1.163.8532.088.5531-.292 1.0745-.855 1.1614-2.462.3793-4.845 1.1061-7.094 2.1648-1.86.877-3.626 1.9752-5.233 3.2788-.19.1501-.412.2291-.641.2291z"/><path d="m229.509 55.9128c-.214 0-.435-.0711-.625-.2133-2.201-1.6986-6.113-5.3566-7.506-10.7764-.428-1.675-1.33-5.1671.245-8.7302.222-.4978.483-.9876.776-1.4459.309-.474.935-.6083 1.41-.3002s.609.9323.3 1.4063c-.237.3635-.451.7585-.625 1.1614-1.291 2.9233-.538 5.8386-.135 7.4108 1.243 4.8352 4.783 8.1377 6.778 9.6704.443.3397.53.9797.182 1.43-.198.2607-.499.395-.808.395z"/><path d="m129.054 34.0754c-.214 0-.428 0-.65-.0158-4.631-.1975-7.909-2.4255-9.453-3.737-.428-.3634-.483-1.0034-.119-1.43s1.006-.4819 1.433-.1185c1.346 1.1456 4.204 3.0813 8.218 3.2551 4.03.1659 6.77-1.517 8.583-2.6388.99-.6163 1.37-.9876 1.496-1.1535-.301-.3398-1.599-.9323-5.811-1.6829-3.785-.6715-7.767-.8374-11.837-.4898-.562.0395-1.053-.3634-1.1-.9244-.048-.5609.364-1.0508.926-1.0982 4.244-.3634 8.409-.1896 12.367.5136 3.872.6873 7.363 1.4853 7.53 3.5869.079.9559-.673 1.8487-2.502 2.9785-1.813 1.1219-4.79 2.9548-9.089 2.9548z"/><path d="m111.144 35.5527c-.356 0-.704-.1896-.894-.5214-.278-.4899-.095-1.114.395-1.3826 3.128-1.7303 5.733-4.0452 7.751-6.8578 1.069-1.4932 1.964-3.1207 2.645-4.8431.206-.5214.8-.7742 1.322-.5688.523.2054.776.7979.57 1.3194-.752 1.8724-1.718 3.6501-2.882 5.2697-2.193 3.0655-5.027 5.5779-8.416 7.4582-.158.0869-.325.1264-.491.1264z"/><path d="m101.778 15.3667c.15-.8849.99-1.4775 1.868-1.3273.887.1501 1.481.9875 1.331 1.8645-.151.8849-.99 1.4774-1.869 1.3273-.887-.1501-1.48-.9876-1.33-1.8645z"/><path d="m147.461 53.7163c-1.781-.0237-3.515-.1659-5.225-.4267-2.344-.3555-4.671-.9401-6.912-1.7381-8.234-2.9232-12.739-5.4435-20.197-9.6151-.491-.2765-.665-.8927-.388-1.3826.277-.4898.894-.6636 1.385-.3871 7.617 4.2584 11.813 6.6049 19.889 9.4728 2.122.7506 4.315 1.3036 6.532 1.6434 1.615.2449 3.254.3792 4.885.4029 1.86-.0711 2.755-.3239 3.159-.5056-.499-.3398-1.774-1.0034-4.965-2.0068-.538-.1659-.831-.7427-.665-1.272.167-.5372.745-.8375 1.275-.6636 5.131 1.6117 6.864 2.7178 6.627 4.211-.301 1.8645-3.23 2.1885-5.408 2.2754z"/><path d="m150.573 49.2764c-.633 0-1.235-.0316-1.805-.0632-8.179-.5057-14.782-2.2438-15.059-2.3228-3.08-.8217-6.168-1.8251-9.176-2.9786-.523-.2054-.784-.79-.586-1.3115.206-.5214.791-.7821 1.314-.5846 2.945 1.1298 5.962 2.1095 8.97 2.9153.27.0711 6.675 1.7619 14.655 2.2517 1.837.1106 3.817.158 6.136-.6637 1.259-.4424 2.455-1.0902 3.547-1.9198.452-.3397 1.085-.2528 1.426.1975.34.4503.253 1.0824-.198 1.4221-1.259.956-2.637 1.6987-4.094 2.2122-1.892.6716-3.61.8454-5.138.8454z"/><path d="m184.214 53.7163c-2.661 0-5.305-.2607-7.926-.7822-5.787-1.1614-11.377-3.6422-16.167-7.1738-.451-.3318-.546-.9717-.214-1.4221.333-.4503.974-.5451 1.425-.2133 4.553 3.3578 9.858 5.7201 15.352 6.8183 4.133.8295 8.353.9638 12.549.4187-.158-1.3589-.617-3.7686-1.884-5.5067-.364-.4978-.966-1.3273-2.027-1.9989-.277-.1817-.491-.2844-1.069-.5688l-.403-.1976c-1.156-.5767-2.091-1.0586-2.708-1.3826-.499-.2607-.689-.8769-.428-1.3747.262-.4977.879-.6873 1.378-.4266.61.3239 1.528.7979 2.668 1.3589l.396.1975c.61.3002.887.4345 1.267.6795 1.385.8848 2.161 1.9435 2.573 2.5124 1.971 2.6862 2.304 6.439 2.359 7.5214.024.5214-.348.9796-.863 1.0586-2.09.324-4.188.4899-6.286.4899z"/><path d="m193.097 21.632c-1.496 0-3.088-.1027-4.861-.2923-.562-.0633-.966-.561-.903-1.1219.064-.561.562-.9718 1.124-.9007 1.711.1817 3.231.2765 4.656.2844.562 0 1.013.4582 1.013 1.0192 0 .5609-.459 1.0113-1.021 1.0113z"/><path d="m194 10.0891c-.103 0-.214-.0158-.317-.0474-1.14-.3792-2.28-.76633-3.42-1.16136-3.143-1.08239-6.397-2.20428-9.77-2.94694-14.679-2.97854-28.978-4.25844-42.485-3.8002-.554.0158-1.037-.41874-1.053-.97968-.016-.560947.42-1.034985.982-1.050786 13.657-.466137 28.122.821666 42.975 3.839706 3.508.77426 6.809 1.91196 10.008 3.01804 1.132.38713 2.264.78217 3.396 1.1535.539.17381.824.75056.65 1.2799-.143.42663-.539.70312-.966.70312z"/><path d="m116.235 7.71125c-.388 0-.76-.22121-.926-.59254-.23-.51354 0-1.11399.507-1.34311 2.589-1.1772 5.273-2.18848 7.988-3.01804 3.508-1.07449 7.126-1.856652 10.768-2.33069.562-.071106 1.069.316025 1.14.87697.071.56095-.317 1.06659-.879 1.13769-3.523.45824-7.038 1.2167-10.435 2.25958-2.629.80587-5.241 1.78555-7.743 2.92324-.135.0632-.277.0948-.42.0948z"/><path d="m136.424 4.93794c-.332 0-.665-.16591-.863-.46614-.3-.47404-.166-1.10609.309-1.40631.214-.13431.531-.33183.919-.55305 1.456-.82166 3.032-1.44581 4.679-1.864544 1.274-.323926 2.589-.513541 3.911-.5688457.562-.0237019 1.037.4108327 1.061.9717797.024.56094-.412 1.03498-.974 1.05868-1.188.04741-2.359.22122-3.499.50564-1.473.37133-2.882.93228-4.181 1.65914-.348.19751-.625.37133-.823.48984-.166.1106-.356.15801-.546.15801z"/><path d="m150.62 5.8307c-.332 0-.665-.16592-.855-.46614-.301-.47404-.166-1.09819.309-1.40631.214-.13431.531-.33183.918-.55305 1.457-.82166 3.033-1.44581 4.688-1.86455 1.274-.32392 2.589-.51354 3.911-.568842.562-.031602 1.037.410832 1.061.971782.023.56094-.412 1.03498-.974 1.05868-1.188.0474-2.36.22122-3.5.50564-1.472.37133-2.882.93228-4.18 1.65913-.348.19752-.625.37133-.823.48984-.167.11061-.365.15802-.547.15802z"/><path d="m163.716 7.67964c-.333 0-.665-.16591-.863-.46614-.301-.47404-.167-1.09819.308-1.40631.214-.13431.531-.33183.919-.55305 1.465-.82166 3.04-1.44581 4.687-1.86454 1.275-.32393 2.589-.51355 3.911-.56885.562-.0237 1.037.41083 1.061.97178.024.56094-.412 1.03498-.974 1.05868-1.187.04741-2.359.22122-3.499.50564-1.473.37133-2.882.93228-4.181 1.65914-.348.19751-.625.37133-.823.48984-.166.1106-.356.15801-.546.15801z"/><path d="m183.177 49.624h-.024c-3.484-.0869-6.793-.8691-9.826-2.3386-1.322-.6399-2.589-1.4063-3.768-2.2833-.452-.3397-.547-.9717-.206-1.4221.34-.4503.974-.5451 1.425-.2054 1.077.8059 2.241 1.509 3.436 2.0858 2.771 1.3352 5.796 2.0541 8.986 2.1331.562.0158 1.006.482.998 1.0429-.016.5531-.467.9955-1.021.9955z"/><path d="m181.34 45.5234c-.119 0-.238-.0237-.348-.0632l-5.804-2.1174c-.53-.1896-.8-.7743-.61-1.3036.19-.5294.784-.798 1.307-.6084l5.803 2.1174c.531.1896.8.7743.61 1.3036-.151.4108-.539.6716-.958.6716z"/><path d="m195.797 21.5374c-.546 0-1.006-.4346-1.021-.9876-.016-.561.427-1.0271.989-1.0429 3.84-.1106 5.479-.8533 5.748-2.6388-.728-2.4413-2.597-4.4244-5.7-6.0519-.499-.2607-.689-.87696-.428-1.3747s.879-.68735 1.378-.42663c3.713 1.94353 5.93 4.40063 6.769 7.50563.032.1185.04.2449.032.3634-.428 4.4402-5.55 4.5903-7.735 4.6535-.008 0-.024 0-.032 0z"/><path d="m237.949 187.411c-.325 0-.641-.158-.839-.442-.459-.672-.713-1.383-.752-2.11-.182-3.571 4.758-6.036 8.368-7.837 3.729-1.865 7.775-3.224 12.019-4.045.554-.103 1.085.252 1.195.806.111.553-.253 1.082-.807 1.192-4.062.791-7.925 2.086-11.496 3.864-2.755 1.375-7.355 3.674-7.245 5.917.016.348.151.704.396 1.059.317.466.198 1.098-.261 1.414-.174.119-.38.182-.578.182z"/><path d="m251.71 196.584c-.095 0-.198-.016-.293-.048-1.893-.576-3.761-1.24-5.551-1.975-.783-.324-1.852-.766-3.238-1.461-1.259-.64-2.502-1.344-3.673-2.102-.056-.039-.111-.079-.159-.126-.055-.056-.15-.135-.261-.237-1.33-1.186-2.605-2.45-2.28-3.674.095-.356.404-.98 1.425-1.193.546-.119 1.093.229 1.211.782.095.434-.111.861-.467 1.082.214.285.641.751 1.473 1.486.095.087.182.158.245.221 1.093.703 2.241 1.359 3.413 1.951 1.314.664 2.343 1.091 3.095 1.399 1.726.711 3.531 1.359 5.36 1.912.539.166.84.734.681 1.272-.134.442-.538.719-.974.719z"/><path d="m260.553 197.161c-2.699 0-5.415-.111-8.107-.34-.562-.047-.974-.537-.926-1.098.047-.561.546-.972 1.1-.925 3.523.293 7.086.395 10.594.293.071 0 8.02-.285 14.615-1.667 2.035-.427 4.085-.996 6.081-1.707.886-.316 1.369-.513 3.396-1.351l2.447-1.011c.688-.285 1.298-.545 1.86-.782 1.774-.751 3.056-1.296 4.592-1.691 2.091-.545 4.299-.798 6.58-.743.562.016 1.005.482.997 1.043-.016.561-.467 1.004-1.045.996-2.09-.048-4.109.181-6.017.671-1.394.364-2.613.877-4.307 1.596-.57.245-1.188.506-1.884.79l-2.447 1.011c-2.011.83-2.549 1.051-3.491 1.383-2.083.735-4.22 1.335-6.342 1.778-6.778 1.414-14.64 1.698-14.972 1.706-.903.024-1.813.04-2.716.04z"/><path d="m303.758 180.822s-.023 0-.039 0c-.57-.023-1.148-.079-1.71-.158-1.338-.197-2.344-.521-2.779-.663l-.119-.04c-4.497-1.383-9.105-2.591-13.689-3.579-4.22-.909-7.553-1.627-11.94-2.03-4.631-.427-9.35-.395-14.029.094-.562.056-1.061-.347-1.117-.908-.055-.561.349-1.059.911-1.114 4.814-.498 9.667-.53 14.425-.095 4.513.411 7.902 1.146 12.185 2.07 4.648 1.003 9.311 2.22 13.864 3.626l.15.048c.38.126 1.275.411 2.446.584.46.072.927.111 1.386.135.752-.135 1.504-.324 2.233-.569.886-.292 1.512-.593 1.749-.703 2.415-1.13 7.973-3.2 12.795-4.591 2.724-.79 4.814-1.248 7.419-1.287.783-.016 1.583.015 2.359.087.562.047.974.545.926 1.106-.047.561-.546.971-1.108.924-.713-.063-1.433-.087-2.154-.079-2.367.032-4.315.466-6.872 1.209-5.218 1.509-10.522 3.555-12.47 4.464-.293.134-.997.466-1.995.798-.863.284-1.75.505-2.644.663-.056.008-.111.016-.175.016z"/><path d="m327.226 199.475c-.135 0-.278-.031-.412-.087l-11.243-4.969c-2.066-1.035-4.069-2.141-6.001-3.303-1.449-.869-2.906-1.801-4.307-2.749-.467-.316-.586-.948-.269-1.414.316-.466.95-.585 1.417-.269 1.377.932 2.795 1.841 4.212 2.694 1.892 1.138 3.856 2.22 5.827 3.208l11.195 4.946c.515.229.744.829.523 1.343-.167.379-.539.608-.934.608z"/><path d="m327.225 199.475c-.293 0-.578-.126-.775-.363-2.059-2.433-3.658-5.12-4.759-7.98-.926-2.401-1.655-4.298-1.346-6.786.349-2.813 1.821-4.677 3.682-7.04l.158-.205c1.528-1.944 3.333-3.682 5.368-5.175.451-.332 1.093-.237 1.425.213.333.451.238 1.091-.214 1.422-1.884 1.391-3.562 3.003-4.972 4.796l-.158.206c-1.726 2.196-2.977 3.784-3.262 6.036-.245 1.983.341 3.5 1.227 5.799 1.022 2.646 2.51 5.135 4.418 7.403.364.426.309 1.074-.119 1.43-.19.158-.427.237-.657.237z"/><path d="m258.811 191.101c-2.335 0-4.14-.877-5.075-1.446-.475-.293-.625-.925-.332-1.399s.918-.624 1.401-.332c.84.514 2.581 1.344 4.814 1.099s3.61-1.422 4.529-2.205c.134-.11.237-.213.324-.292-.546-.126-1.488-.205-2.826-.237-2.233-.055-4.529.205-6.825.758-.546.135-1.1-.205-1.235-.75s.206-1.098.752-1.233c2.47-.6 4.949-.877 7.355-.821 2.581.063 4.743.237 5.099 1.738.214.916-.546 1.714-1.322 2.378-.974.83-2.779 2.362-5.629 2.678-.357.04-.697.056-1.03.056z"/><path d="m249.793 193.463c-.3 0-.601-.134-.807-.395-.348-.442-.261-1.082.182-1.43 1.615-1.248 2.882-2.781 3.777-4.543.475-.932.831-1.928 1.068-2.962.127-.546.673-.885 1.22-.759.546.126.886.672.76 1.217-.277 1.193-.689 2.338-1.235 3.421-1.03 2.038-2.494 3.8-4.347 5.238-.182.142-.404.213-.625.213z"/><path d="m243.578 184.116s-.015 0-.031 0c-1.085-.015-1.964-.916-1.948-1.998.016-1.091.887-1.96 2.003-1.944.531 0 1.022.221 1.386.6.364.38.562.877.554 1.399-.016 1.074-.903 1.943-1.971 1.943zm-.063-1.975s.024.056.063.063c.032 0 .064-.031.064-.063zm0 0h.127s-.04-.087-.064-.063c-.031 0-.063.024-.063.063z"/><path d="m269.547 201c-1.417 0-2.834-.134-4.227-.402-5.091-.972-7.949-2.039-12.684-3.809-.531-.197-.792-.782-.594-1.311s.784-.79 1.314-.593c4.798 1.794 7.435 2.773 12.352 3.714 1.274.245 2.541.363 3.871.363.942 0 1.892-.071 2.827-.197.578-.079 1.108-.261 1.417-.411-.396-.364-1.386-1.027-3.413-1.896-.514-.222-.76-.822-.53-1.336.222-.513.823-.758 1.338-.529 4.56 1.952 4.98 3.2 4.79 4.156-.301 1.493-2.613 1.935-3.309 2.03-1.038.142-2.13.214-3.136.221z"/><path d="m290.433 197.769c-.364 0-.728-.008-1.092-.024-3.531-.158-7.07-1.122-10.229-2.781-.499-.26-.689-.877-.428-1.374.261-.498.879-.688 1.378-.427 2.897 1.517 6.136 2.402 9.374 2.544 2.288.103 4.576-.15 6.801-.751-.285-.869-.744-1.833-1.37-2.457-.253-.253-.625-.632-1.235-.892-.182-.079-.317-.119-.625-.222l-.254-.079c-.728-.229-1.314-.426-1.71-.561-.53-.181-.815-.758-.633-1.295.182-.53.76-.814 1.298-.632.38.134.958.324 1.663.553l.253.079c.42.134.594.189.839.3.951.419 1.56 1.027 1.853 1.319 1.473 1.478 2.027 3.729 2.162 4.385.102.514-.19 1.019-.689 1.177-2.391.759-4.862 1.138-7.348 1.138z"/><path d="m293.442 178.294c-.538 0-.99-.427-1.021-.972-.024-.561.411-1.035.973-1.067.998-.047 1.877-.126 2.692-.252.555-.079 1.077.3 1.156.853s-.301 1.074-.855 1.153c-.887.135-1.837.222-2.898.269-.015 0-.031 0-.047 0z"/><path d="m296.237 178.033c-.531 0-.982-.411-1.014-.948-.039-.561.388-1.043.951-1.083 2.62-.165 3.935-1.019 4.045-1.738.103-.663-.807-1.777-3.048-2.67-.522-.206-.776-.798-.57-1.32.206-.521.8-.774 1.322-.568 2.993 1.185 4.608 3.002 4.307 4.874-.308 1.944-2.525 3.232-5.93 3.445-.024 0-.047 0-.063 0z"/><path d="m262.406 171.618c-.467 0-.887-.324-.99-.79-.127-.545.222-1.091.768-1.217 8.511-1.92 17.102-2.465 25.542-1.62 2.367.237 4.758.585 7.102 1.043.554.111.91.64.807 1.193-.111.553-.641.909-1.195.806-2.281-.442-4.608-.782-6.92-1.019-8.218-.822-16.595-.292-24.885 1.58-.079.016-.15.024-.221.024z"/><path d="m250.253 176.808c-.333 0-.657-.165-.855-.458-.309-.474-.174-1.098.293-1.406 1.417-.925 2.905-1.77 4.425-2.497 1.449-.703 2.97-1.319 4.505-1.833.357-.118.666-.221.879-.284.531-.166 1.109.134 1.275.664.166.537-.135 1.106-.665 1.272-.206.063-.491.158-.831.268-1.457.49-2.89 1.075-4.268 1.738-1.441.696-2.85 1.494-4.196 2.371-.174.11-.364.165-.554.165z"/><path d="m265.818 171.847c-.158 0-.308-.063-.419-.19-.206-.229-.182-.584.047-.79.111-.095.277-.237.483-.403.776-.608 1.631-1.106 2.55-1.493.704-.3 1.456-.529 2.216-.679.301-.064.602.134.658.442.055.308-.135.6-.444.656-.689.134-1.362.339-1.995.608-.823.348-1.599.806-2.296 1.343-.182.142-.333.277-.435.364-.103.094-.238.142-.373.142z"/><path d="m271.123 171.681c-.182 0-.364-.095-.475-.261-.166-.26-.095-.608.166-.774.119-.079.293-.189.507-.316.799-.482 1.662-.932 2.541-1.319.689-.308 1.386-.577 2.09-.814.293-.095.61.063.713.355.095.293-.063.609-.356.712-.665.221-1.338.481-1.988.774-.839.371-1.654.798-2.422 1.256-.206.118-.372.229-.483.3-.095.063-.198.087-.301.087z"/><path d="m277.829 171.689c-.174 0-.34-.079-.451-.229-.182-.245-.135-.601.118-.782.119-.087.285-.214.499-.356.792-.537 1.647-1.003 2.55-1.398.696-.3 1.417-.561 2.145-.759.301-.087.61.095.689.395.079.301-.095.609-.396.688-.673.181-1.346.418-1.995.703-.839.363-1.631.798-2.367 1.296-.198.134-.357.244-.46.323-.102.072-.213.111-.332.111z"/><path d="m290.79 193.321s-.056 0-.08 0l-4.52-.624c-.309-.04-.523-.324-.475-.632.039-.309.332-.522.633-.474l4.521.624c.309.039.522.324.475.632-.04.276-.277.482-.554.482z"/><path d="m319.862 192.397c-.15 0-.308-.04-.451-.135-1.362-.861-2.573-1.92-3.587-3.144-1.361-1.636-2.636-3.176-2.47-5.199.174-2.062 1.75-3.373 3.421-4.764 1.369-1.138 2.913-2.038 4.6-2.662.435-.166.918.055 1.084.49.167.434-.055.916-.491 1.082-1.504.561-2.889 1.367-4.109 2.378-1.512 1.256-2.707 2.252-2.826 3.618-.111 1.336.855 2.505 2.082 3.982.903 1.091 1.979 2.031 3.199 2.805.396.245.506.766.261 1.162-.158.252-.436.387-.713.387z"/><path d="m344.794 157.989c-.459 0-.871-.308-.99-.775-.197-.79-.19-1.54.032-2.236 1.077-3.413 6.572-4.005 10.578-4.432 4.148-.45 8.416-.316 12.675.387.555.095.935.617.84 1.17s-.61.932-1.172.837c-4.077-.679-8.163-.798-12.122-.371-3.056.332-8.178.885-8.851 3.026-.103.332-.103.711 0 1.13.134.545-.198 1.098-.744 1.232-.08.024-.167.032-.246.032z"/><path d="m354.485 171.364c-.214 0-.435-.071-.617-.205-1.576-1.193-3.088-2.465-4.513-3.784-.626-.577-1.481-1.367-2.526-2.497-.958-1.035-1.869-2.125-2.708-3.247-.039-.055-.071-.111-.103-.174-.031-.071-.087-.174-.158-.308-.839-1.572-1.591-3.2-.855-4.243.214-.3.72-.774 1.75-.624.554.079.942.601.863 1.154-.064.442-.404.774-.816.853.095.34.341.924.863 1.912.063.11.111.213.151.284.783 1.043 1.63 2.054 2.517 3.01.99 1.075 1.813 1.833 2.415 2.386 1.37 1.272 2.842 2.497 4.363 3.658.451.34.53.98.19 1.422-.198.261-.507.403-.808.403z"/><path d="m405.259 181.248c-.126 0-.253-.023-.38-.071-1.939-.774-3.919-1.264-5.874-1.461-1.433-.143-2.764-.087-4.6 0-.618.031-1.291.055-2.035.086l-2.653.095c-2.169.079-2.747.103-3.744.079-2.209-.039-4.418-.221-6.564-.545-6.841-1.027-14.315-3.5-14.631-3.61-3.389-1.146-6.77-2.513-10.047-4.046-.507-.237-.729-.845-.491-1.351.237-.505.847-.726 1.354-.489 3.206 1.509 6.508 2.836 9.825 3.958.071.023 7.617 2.52 14.283 3.523 2.058.309 4.18.482 6.294.522.942.016 1.457 0 3.642-.079l2.661-.095c.736-.024 1.401-.055 2.018-.087 1.924-.087 3.318-.15 4.893.008 2.146.213 4.307.751 6.429 1.596.523.205.776.798.57 1.319-.158.395-.538.64-.95.64z"/><path d="m435.979 177.258c-.151 0-.293-.031-.436-.094-.641-.309-1.314-.585-1.987-.822-2.233-.798-4.204-1.067-6.864-1.264-5.416-.403-11.108-.324-13.246-.15-.325.023-1.109.095-2.154.055-.902-.032-1.813-.134-2.707-.3-.072-.016-.143-.032-.206-.063-.531-.222-1.045-.474-1.544-.743-1.188-.648-2.011-1.304-2.367-1.588l-.103-.079c-3.737-2.86-7.633-5.594-11.584-8.114-3.634-2.323-6.508-4.156-10.482-6.06-4.196-2.007-8.63-3.618-13.183-4.796-.546-.142-.87-.695-.728-1.24.143-.545.697-.869 1.243-.727 4.687 1.209 9.248 2.868 13.555 4.93 4.085 1.96 7.006 3.816 10.696 6.179 3.998 2.551 7.949 5.317 11.726 8.216l.126.095c.317.245 1.045.83 2.083 1.398.403.222.823.427 1.251.609.752.134 1.528.221 2.296.245.926.031 1.623-.024 1.884-.048 2.66-.221 8.59-.221 13.594.15 2.834.214 4.948.498 7.403 1.375.744.261 1.472.569 2.177.901.507.245.721.845.483 1.359-.174.363-.538.576-.918.576z"/><path d="m424.261 200.344c-.253 0-.515-.095-.713-.292l-8.804-8.564c-1.575-1.691-3.064-3.421-4.473-5.183-1.061-1.328-2.09-2.694-3.08-4.077-.324-.458-.214-1.09.238-1.414.459-.324 1.092-.214 1.417.237.966 1.351 1.971 2.694 3.008 3.99 1.378 1.722 2.835 3.413 4.339 5.032l8.765 8.533c.404.395.411 1.035.016 1.438-.198.205-.468.308-.729.308z"/><path d="m424.261 200.344c-.42 0-.808-.261-.958-.672-1.077-2.994-1.639-6.075-1.671-9.141-.031-2.575-.047-4.606 1.109-6.826 1.314-2.512 3.341-3.753 5.906-5.317l.222-.134c2.106-1.288 4.41-2.291 6.84-2.987.539-.158 1.109.158 1.259.696.159.537-.158 1.106-.696 1.256-2.257.64-4.387 1.572-6.334 2.765l-.222.134c-2.391 1.462-4.117 2.513-5.162 4.527-.926 1.77-.903 3.398-.879 5.863.032 2.836.554 5.688 1.552 8.477.19.529-.087 1.114-.618 1.304-.111.039-.229.063-.34.063z"/><path d="m365.878 169.208c-.681 0-1.417-.079-2.193-.269-2.771-.695-4.465-2.441-5.233-3.429-.349-.442-.269-1.082.174-1.43.443-.347 1.085-.268 1.433.174.61.774 1.948 2.157 4.125 2.702s3.887-.079 5.012-.49c.166-.063.301-.11.411-.166-.467-.308-1.33-.711-2.573-1.2-2.066-.822-4.307-1.383-6.658-1.66-.562-.063-.958-.568-.895-1.129s.57-.964 1.132-.893c2.526.3 4.949.9 7.181 1.793 2.399.956 4.363 1.873 4.173 3.398-.111.932-1.109 1.414-2.075 1.761-.863.316-2.264.83-4.022.83z"/><path d="m353.78 167.778c-.435 0-.839-.277-.973-.711-.167-.537.126-1.106.665-1.272 1.947-.609 3.673-1.604 5.13-2.947.768-.711 1.457-1.517 2.043-2.402.309-.466.942-.6 1.409-.292s.602.94.293 1.406c-.673 1.019-1.465 1.952-2.351 2.773-1.679 1.549-3.666 2.694-5.907 3.397-.103.032-.206.048-.309.048z"/><path d="m351.556 156.914c-.246 0-.483-.047-.713-.134-1.013-.395-1.52-1.541-1.124-2.552s1.544-1.517 2.557-1.122 1.52 1.541 1.124 2.552c-.19.49-.562.877-1.045 1.09-.253.111-.522.166-.792.166zm-.064-1.991c-.016.032 0 .071.04.079.024.008.071-.008.079-.039l-.119-.048zm0 0 .119.048s0-.071-.04-.079c-.031-.008-.071.008-.079.039z"/><path d="m373.875 182.71c-.657 0-1.259-.111-1.552-.174-1.013-.221-2.019-.513-2.985-.877-1.338-.49-2.628-1.122-3.848-1.856-4.433-2.679-6.737-4.678-10.562-7.98-.427-.371-.475-1.011-.102-1.438.372-.427 1.013-.474 1.44-.103 3.872 3.342 6.002 5.191 10.285 7.782 1.109.672 2.288 1.241 3.5 1.691.878.324 1.797.593 2.715.798.57.126 1.132.142 1.473.103-.238-.482-.942-1.446-2.534-2.963-.403-.387-.419-1.035-.031-1.438s1.037-.419 1.441-.031c3.586 3.421 3.547 4.732 3.032 5.562-.459.734-1.401.932-2.256.932z"/><path d="m397.35 187.371s-.032 0-.048 0c-2.874-.142-5.669-.774-8.305-1.888-3.254-1.375-6.231-3.508-8.614-6.163-.372-.418-.341-1.058.079-1.438.42-.379 1.061-.339 1.441.079 2.185 2.434 4.917 4.385 7.894 5.649 2.113.893 4.338 1.454 6.634 1.66.032-.783-.015-1.881-.427-2.774-.151-.323-.372-.805-.839-1.272-.143-.134-.254-.221-.507-.418l-.214-.166c-.602-.466-1.085-.861-1.401-1.122-.436-.356-.499-.996-.143-1.43.356-.435.998-.498 1.433-.142.309.252.784.64 1.37 1.09l.206.166c.348.269.491.387.681.569.744.727 1.1 1.509 1.274 1.88.863 1.888.602 4.195.499 4.859-.079.498-.507.861-1.005.861z"/><path d="m402.702 169.469c-.071 0-.143 0-.214-.024-.871-.182-1.797-.435-2.811-.759-.538-.173-.831-.742-.657-1.279.174-.538.744-.83 1.283-.656.95.3 1.805.537 2.613.703.554.118.902.656.783 1.209-.103.482-.522.806-.997.806z"/><path d="m405.552 169.942c-.934 0-1.987-.166-3.143-.513-.538-.158-.847-.727-.681-1.264.159-.538.729-.846 1.267-.68 2.518.751 4.046.411 4.402-.221.333-.585-.135-1.951-1.924-3.555-.42-.379-.451-1.019-.079-1.438.38-.419 1.021-.451 1.441-.079 2.391 2.149 3.27 4.416 2.335 6.068-.625 1.106-1.908 1.682-3.618 1.682z"/><path d="m403.636 162.358c-.182 0-.364-.048-.53-.15-1.988-1.209-4.046-2.339-6.128-3.358-7.419-3.627-15.447-6.044-23.879-7.174-.554-.071-.95-.585-.871-1.145.079-.554.586-.949 1.148-.87 8.646 1.162 16.888 3.643 24.504 7.364 2.138 1.043 4.26 2.204 6.294 3.452.483.293.634.917.341 1.399-.19.316-.531.49-.871.49z"/><path d="m360.027 152.324c-.467 0-.887-.316-.989-.79-.127-.545.221-1.09.767-1.217 1.647-.371 3.342-.648 5.02-.806 1.607-.15 3.238-.205 4.861-.15.38.008.697.024.927.04.562.031.989.505.966 1.066-.024.561-.515.988-1.069.964-.214-.008-.515-.023-.879-.039-1.536-.048-3.088 0-4.608.15-1.599.15-3.199.403-4.758.758-.079.016-.151.024-.23.024z"/><path d="m376.187 153.059c-.222 0-.436-.135-.523-.356-.111-.292.032-.616.325-.727.142-.055.348-.126.593-.205.935-.3 1.916-.474 2.914-.514.768-.031 1.552.008 2.32.135.309.047.514.339.467.64-.048.308-.341.505-.641.466-.689-.111-1.394-.15-2.083-.119-.894.04-1.781.198-2.62.466-.222.072-.404.143-.531.19-.063.024-.134.04-.198.04z"/><path d="m381.222 154.75c-.261 0-.491-.182-.546-.443-.064-.3.126-.6.427-.663.135-.032.341-.072.586-.119.919-.174 1.877-.292 2.85-.355.753-.048 1.505-.064 2.241-.04.309.008.554.269.546.577s-.285.529-.578.545c-.704-.024-1.417-.008-2.137.032-.919.055-1.837.173-2.708.339-.23.048-.428.087-.554.111-.04.008-.079.016-.119.016z"/><path d="m387.501 157.088c-.246 0-.468-.158-.539-.403-.087-.3.087-.608.38-.695.143-.039.341-.095.594-.158.926-.229 1.892-.371 2.874-.419.76-.039 1.528-.031 2.272.04.309.023.539.3.507.608s-.309.537-.61.506c-.696-.063-1.409-.071-2.114-.032-.91.048-1.813.182-2.668.395-.229.056-.419.111-.546.142-.055.016-.103.024-.158.024z"/><path d="m392.093 181.872c-.087 0-.182-.023-.269-.071l-4.015-2.157c-.269-.15-.372-.489-.229-.758.15-.269.491-.371.76-.229l4.014 2.157c.269.15.372.49.23.758-.103.19-.293.292-.491.292z"/><path d="m419.772 191.14c-.253 0-.507-.111-.673-.332-.974-1.28-1.742-2.694-2.264-4.195-.705-1.999-1.362-3.895-.499-5.728.887-1.872 2.818-2.56 4.869-3.279 1.678-.592 3.444-.893 5.241-.9.467 0 .84.371.84.837s-.373.837-.84.845c-1.607 0-3.182.277-4.679.806-1.86.656-3.325 1.17-3.911 2.41-.57 1.217-.071 2.647.562 4.464.467 1.335 1.148 2.591 2.019 3.737.285.371.206.893-.158 1.177-.151.119-.333.174-.507.174z"/><path d="m231.37 89.601c-.356 0-.713-.1738-.927-.4899-.617-.8927-.95-1.8329-.997-2.7968-.246-4.8036 6.571-8.2008 11.543-10.6816 5.202-2.5914 10.839-4.4876 16.746-5.6332.609-.1185 1.195.2765 1.314.8849.119.6083-.277 1.193-.887 1.3115-5.708 1.1061-11.155 2.939-16.167 5.4356-3.919 1.9594-10.475 5.2302-10.308 8.5722.023.5373.229 1.0903.609 1.6433.349.5136.222 1.2088-.293 1.5565-.19.1343-.411.1975-.633.1975z"/><path d="m250.625 102.439c-.111 0-.222-.015-.325-.047-2.636-.798-5.241-1.73-7.743-2.7573-1.093-.4503-2.589-1.0666-4.513-2.0383-1.758-.8849-3.476-1.8725-5.122-2.9312-.064-.0395-.119-.0869-.175-.1343-.079-.079-.213-.1975-.372-.3397-1.797-1.5959-3.515-3.2867-3.103-4.8431.11-.4266.491-1.1851 1.757-1.4537.602-.1264 1.204.2528 1.33.8612.127.5846-.237 1.1614-.807 1.3115.214.395.823 1.114 2.312 2.4492.142.1264.261.237.356.316 1.552.9955 3.175 1.9198 4.83 2.7573 1.844.9323 3.293 1.5327 4.354 1.9673 2.431 1.0033 4.972 1.904 7.538 2.6861.593.182.926.806.744 1.398-.151.482-.594.798-1.077.798z"/><path d="m263 103.245c-3.769 0-7.562-.158-11.322-.474-.618-.055-1.077-.592-1.022-1.209.048-.616.594-1.074 1.212-1.019 4.948.419 9.944.553 14.861.411.103 0 11.25-.403 20.514-2.3386 2.866-.6004 5.748-1.4063 8.55-2.3939 1.251-.4424 1.924-.7189 4.759-1.8882l3.436-1.4142c.958-.3951 1.813-.7585 2.605-1.0903 2.478-1.0508 4.267-1.8014 6.397-2.3623 2.898-.7585 5.962-1.0982 9.129-1.0271.617.0158 1.108.5293 1.092 1.1456-.016.6162-.554 1.0903-1.148 1.0903-2.953-.0711-5.811.2528-8.503.956-1.971.5135-3.697 1.2483-6.088 2.2516-.792.3398-1.655.7032-2.621 1.0982l-3.436 1.4142c-2.803 1.1614-3.555 1.4696-4.869 1.9278-2.898 1.0192-5.875 1.8569-8.844 2.4729-9.461 1.975-20.791 2.378-20.91 2.386-1.259.039-2.526.055-3.8.055z"/><path d="m323.497 80.3808s-.032 0-.048 0c-.792-.0316-1.583-.1027-2.359-.2212-1.853-.2686-3.246-.719-3.84-.9165l-.174-.0553c-6.311-1.9435-12.763-3.6264-19.192-5.0169-5.915-1.2799-10.594-2.2833-16.753-2.8521-6.501-.5926-13.135-.5531-19.707.1264-.617.0711-1.172-.3792-1.235-.9955-.063-.6162.38-1.1693.998-1.2325 6.714-.6952 13.491-.7348 20.142-.1343 6.294.5767 11.028 1.5959 17.022 2.8916 6.492 1.3984 13.016 3.105 19.382 5.0643l.206.0632c.538.1738 1.805.5847 3.467.8296.665.0948 1.338.1659 2.011.1896 1.085-.1896 2.162-.4582 3.207-.8058 1.251-.4188 2.145-.8375 2.486-.9955 3.365-1.5723 11.132-4.4639 17.862-6.4074 3.792-1.0982 6.69-1.7382 10.3-1.7856 1.093-.0158 2.193.0237 3.27.1185.618.0553 1.077.6005 1.021 1.2167-.055.6163-.594 1.0745-1.219 1.0192-1.005-.0869-2.027-.1185-3.048-.1106-3.349.0474-6.097.6558-9.707 1.6986-7.323 2.1174-14.774 4.9932-17.505 6.2652-.404.1897-1.386.6479-2.763 1.1061-1.196.3951-2.423.7032-3.658.9165-.064.0079-.127.0158-.19.0158z"/><path d="m356.353 106.492c-.15 0-.308-.031-.451-.094l-15.74-6.953c-2.866-1.438-5.668-2.9865-8.376-4.6061-2.035-1.2246-4.062-2.5203-6.017-3.8476-.515-.3476-.642-1.0429-.293-1.5564.348-.5136 1.045-.6479 1.559-.2924 1.924 1.3036 3.912 2.5756 5.915 3.7765 2.66 1.596 5.407 3.1129 8.178 4.5034l15.685 6.9286c.57.253.823.909.57 1.478-.182.418-.594.663-1.03.663z"/><path d="m356.354 106.493c-.317 0-.634-.135-.855-.395-2.859-3.382-5.083-7.111-6.611-11.085-1.283-3.3262-2.289-5.9492-1.869-9.3544.483-3.8555 2.518-6.439 5.091-9.7099l.222-.2844c2.122-2.6941 4.623-5.1117 7.458-7.1896.499-.3634 1.203-.2607 1.567.2371.365.4977.262 1.2009-.237 1.5643-2.668 1.9593-5.028 4.2347-7.023 6.7708l-.221.2844c-2.455 3.1129-4.228 5.3646-4.632 8.6038-.356 2.8443.475 5.0011 1.734 8.272 1.441 3.7449 3.539 7.2609 6.239 10.4449.396.474.34 1.177-.135 1.58-.214.174-.467.261-.72.261z"/><path d="m260.569 94.7681c-3.199 0-5.669-1.2009-6.943-1.9831-.531-.3239-.689-1.0113-.365-1.5406.325-.5294 1.014-.6953 1.544-.3635 1.212.7427 3.721 1.9357 6.928 1.5802 3.214-.3556 5.194-2.0463 6.508-3.1603.42-.3555.673-.6162.823-.79-.53-.2055-1.765-.4109-4.512-.482-3.144-.0711-6.39.2844-9.636 1.0745-.602.1501-1.211-.2212-1.354-.8217-.15-.6004.222-1.2088.824-1.351 3.436-.8374 6.88-1.2167 10.221-1.1377 3.357.079 6.405.3082 6.856 2.1964.214.9007-.293 1.7776-1.757 3.0259-1.425 1.2167-3.816 3.2472-7.72 3.6817-.483.0554-.958.0791-1.409.0791z"/><path d="m247.941 98.0782c-.333 0-.665-.1502-.887-.4346-.38-.4898-.293-1.193.198-1.5722 2.296-1.7776 4.101-3.9503 5.376-6.4627.673-1.3273 1.188-2.7494 1.528-4.2111.143-.6004.744-.9796 1.346-.8374s.982.7426.839 1.3431c-.38 1.6433-.958 3.2313-1.71 4.7167-1.417 2.8126-3.436 5.2381-6.001 7.2211-.206.158-.444.2371-.689.2371z"/><path d="m239.248 84.9869s-.024 0-.04 0c-1.354-.0158-2.446-1.1377-2.423-2.4887.016-1.3431 1.117-2.4176 2.463-2.4176h.031c1.354.0158 2.447 1.1377 2.423 2.4887-.016 1.3431-1.116 2.4176-2.462 2.4176zm0-2.6705c-.119 0-.214.0949-.214.2134 0 .0711.031.1264.063.1501.032.0316.079.0632.151.0632.11 0 .213-.0948.221-.2133 0-.1185-.095-.2134-.213-.2213z"/><path d="m275.604 108.625c-1.963 0-3.935-.189-5.867-.553-7.102-1.359-11.092-2.844-17.711-5.317-.578-.213-.871-.861-.657-1.438.222-.576.863-.869 1.441-.655 6.73 2.512 10.435 3.895 17.347 5.214 1.789.34 3.626.514 5.439.514h.032c1.33 0 2.676-.095 3.998-.285 1.116-.158 2.074-.545 2.415-.806-.325-.426-1.615-1.493-5.131-3.002-.57-.245-.831-.901-.585-1.469.245-.569.902-.83 1.472-.585 6.215 2.662 6.754 4.329 6.524 5.483-.388 1.943-3.721 2.512-4.378 2.607-1.425.198-2.874.3-4.307.308h-.04z"/><path d="m304.843 104.098c-.507 0-1.013-.007-1.52-.031-4.901-.221-9.81-1.557-14.188-3.856-.546-.2841-.76-.9635-.467-1.5087.285-.5451.966-.7584 1.512-.4661 4.093 2.1488 8.678 3.3898 13.246 3.6028 3.349.15 6.682-.237 9.92-1.146-.324-1.0821-.965-2.7412-2.082-3.8631-.348-.3477-.918-.9244-1.821-1.3194-.237-.1027-.419-.166-.91-.3161l-.349-.1106c-1.013-.3239-1.837-.6004-2.383-.79-.586-.1975-.895-.8375-.697-1.4221.206-.5847.84-.8928 1.426-.6953.538.1817 1.338.4582 2.335.7743l.349.1106c.53.1659.791.2528 1.148.4029 1.282.5688 2.074 1.3589 2.494 1.7776 2.003 2.0068 2.763 5.0882 2.945 5.9812.119.561-.214 1.122-.76 1.295-3.318 1.051-6.746 1.588-10.19 1.588z"/><path d="m309.055 76.8335c-.594 0-1.092-.4661-1.124-1.0666-.032-.6162.451-1.1377 1.069-1.1693 1.401-.0632 2.644-.1817 3.8-.3476.61-.0948 1.188.3318 1.275.9402.095.6083-.333 1.1851-.942 1.272-1.228.1817-2.55.3081-4.03.3713-.016 0-.032 0-.056 0z"/><path d="m312.966 76.47c-.586 0-1.076-.4583-1.116-1.0508-.04-.6163.428-1.1535 1.045-1.193 3.856-.2449 5.764-1.5248 5.946-2.6862.158-1.0034-.91-2.6625-4.457-4.0609-.578-.2292-.856-.877-.634-1.4538.23-.5767.879-.8611 1.457-.632 4.046 1.5959 6.231 4.0293 5.843 6.4943-.404 2.5677-3.404 4.2742-8.02 4.5745-.024 0-.048 0-.072 0z"/><path d="m265.605 67.4871c-.515 0-.974-.3555-1.093-.8691-.135-.6004.245-1.2009.847-1.3352 11.884-2.6783 23.879-3.4368 35.66-2.2596 3.309.3319 6.643.8217 9.921 1.4537.609.1186 1.005.7032.886 1.3116-.119.6083-.704 1.0033-1.314.8848-3.207-.6241-6.469-1.1061-9.715-1.43-11.535-1.1535-23.293-.4108-34.939 2.2201-.087.0158-.166.0316-.246.0316z"/><path d="m248.59 74.7559c-.364 0-.728-.1817-.942-.5057-.341-.5135-.198-1.2088.325-1.5485 1.971-1.2878 4.045-2.4571 6.159-3.4763 2.027-.9796 4.133-1.8329 6.271-2.5519.499-.1659.926-.3002 1.227-.395.586-.1896 1.219.1422 1.401.7348.182.5925-.142 1.2166-.736 1.3984-.285.0869-.689.2212-1.172.3792-2.05.6874-4.069 1.5169-6.009 2.4492-2.035.9797-4.022 2.1016-5.906 3.3341-.19.1264-.404.1817-.61.1817z"/><path d="m270.102 69.004c-.23 0-.468-.0948-.634-.2844-.309-.3476-.277-.877.071-1.1851.159-.1422.388-.3397.681-.5688 1.085-.8533 2.288-1.5565 3.579-2.1016.998-.4187 2.043-.7427 3.119-.956.452-.0948.895.2054.99.6637.087.4582-.206.8928-.665.9876-.958.1896-1.892.474-2.787.8532-1.156.4899-2.233 1.1219-3.199 1.8804-.261.2054-.467.3792-.609.5056-.158.1422-.356.2133-.554.2133z"/><path d="m277.813 67.9376c-.277 0-.546-.1343-.712-.3871-.254-.3872-.135-.9086.253-1.1614.166-.1106.412-.2607.712-.4425 1.125-.6794 2.32-1.3036 3.571-1.8566.958-.4266 1.948-.8138 2.93-1.1377.443-.1501.918.0869 1.068.5293.151.4425-.087.9165-.53 1.0666-.934.3082-1.868.6795-2.779 1.0824-1.18.5294-2.32 1.114-3.381 1.7619-.285.1738-.514.316-.673.4187-.142.0869-.301.1343-.451.1343z"/><path d="m287.195 67.9534c-.261 0-.514-.1185-.681-.3398-.277-.3713-.197-.9006.175-1.1772.166-.1185.403-.2923.696-.4977 1.109-.7505 2.312-1.4063 3.579-1.9593.982-.4267 1.995-.7822 3.009-1.0587.451-.1185.91.1422 1.037.5846.126.4504-.143.9086-.586 1.035-.942.2607-1.877.5925-2.779.9797-1.172.5056-2.28 1.1219-3.302 1.8092-.277.1817-.491.3477-.641.4583s-.325.1659-.499.1659z"/><path d="m305.334 98.2365s-.079 0-.119-.0079l-6.326-.8769c-.459-.0632-.784-.4899-.72-.9481.063-.4582.491-.7822.95-.719l6.326.877c.459.0632.784.4898.72.9481-.055.4187-.419.7268-.831.7268z"/><path d="m346.045 96.5454c-.15 0-.309-.0395-.451-.1343-1.876-1.193-3.547-2.6467-4.948-4.3374-1.853-2.2359-3.603-4.3454-3.381-7.0316.229-2.7494 2.391-4.5429 4.671-6.4469 1.884-1.5722 4.014-2.8047 6.334-3.6738.436-.1659.918.0553 1.085.4898.166.4346-.056.9165-.491 1.0824-2.146.8059-4.109 1.9436-5.851 3.3894-2.177 1.8171-3.895 3.2471-4.07 5.2934-.166 2.0068 1.228 3.6896 2.993 5.8228 1.291 1.5564 2.819 2.8916 4.553 3.9898.396.2449.506.7664.261 1.1614-.158.2528-.436.3871-.713.3871z"/><path d="m96.4099 113.832c-.4117 0-.7996-.253-.95-.655-.293-.759-.3642-1.509-.2296-2.228.6729-3.516 6.0567-4.741 9.9837-5.641 4.07-.933 8.321-1.296 12.636-1.099.562.024.998.506.974 1.067s-.499.98-1.069.972c-4.133-.198-8.194.158-12.082 1.043-3 .687-8.02 1.833-8.4396 4.037-.0634.34-.0159.719.1346 1.122.1979.521-.0634 1.114-.5939 1.311-.1187.048-.2375.063-.3642.063z"/><path d="m107.605 125.984c-.174 0-.356-.048-.515-.143-1.702-1.003-3.357-2.093-4.924-3.231-.681-.498-1.623-1.177-2.8029-2.188-1.0768-.917-2.1061-1.897-3.072-2.908-.0475-.047-.0871-.103-.1267-.158-.0396-.063-.1108-.166-.1979-.284-1.0134-1.47-1.9556-2.995-1.346-4.109.1742-.324.6176-.861 1.6627-.821.5621.016 1.0055.482.9897 1.043-.0159.442-.3088.813-.7126.94.1346.332.4434.877 1.0768 1.793.0712.103.1346.198.1821.269.8946.94 1.8605 1.849 2.8578 2.694 1.125.956 2.019 1.612 2.676 2.086 1.513 1.098 3.112 2.149 4.759 3.12.483.285.641.909.356 1.391-.19.324-.53.498-.879.498z"/><path d="m134.975 131.103c-.522 0-1.037-.008-1.551-.024-6.92-.221-14.624-1.801-14.948-1.872-3.508-.743-7.015-1.699-10.451-2.844-.531-.182-.824-.751-.642-1.288.182-.529.752-.822 1.291-.64 3.357 1.122 6.801 2.054 10.221 2.781.071.016 7.862 1.612 14.6 1.833 2.082.071 4.212 0 6.31-.221.942-.095 1.457-.174 3.626-.514l2.613-.403c.728-.11 1.385-.221 1.987-.316 1.9-.308 3.278-.537 4.861-.561 2.154-.039 4.371.245 6.572.83.546.142.863.703.72 1.248-.142.545-.704.861-1.251.719-2.019-.537-4.038-.798-6.009-.766-1.441.023-2.755.237-4.568.537-.61.103-1.275.205-2.011.324l-2.605.403c-2.154.332-2.74.426-3.729.521-1.671.166-3.357.253-5.028.253z"/><path d="m163.082 122.989c-.412 0-.831-.015-1.243-.039-.071 0-.142-.016-.206-.04-.546-.158-1.092-.347-1.623-.561-1.259-.505-2.153-1.058-2.541-1.295l-.103-.064c-4.046-2.409-8.234-4.661-12.454-6.707-3.888-1.881-6.952-3.366-11.124-4.788-4.402-1.501-8.994-2.583-13.658-3.223-.554-.079-.95-.585-.871-1.146.08-.553.586-.956 1.148-.869 4.798.648 9.517 1.762 14.046 3.31 4.283 1.462 7.403 2.971 11.345 4.883 4.276 2.07 8.52 4.353 12.613 6.787l.134.079c.341.213 1.141.703 2.233 1.145.428.174.871.324 1.314.458.768.048 1.544.04 2.304-.023.935-.079 1.616-.214 1.869-.269 2.613-.529 8.503-1.225 13.515-1.446 2.834-.118 4.972-.079 7.506.498.768.174 1.528.395 2.272.64.53.182.815.758.641 1.288-.182.529-.76.813-1.29.64-.673-.229-1.37-.427-2.075-.585-2.312-.529-4.299-.569-6.967-.45-5.423.237-11.069.971-13.175 1.398-.308.063-1.076.221-2.129.308-.491.04-.99.063-1.481.063z"/><path d="m180.295 146.604c-.214 0-.436-.071-.618-.213l-9.746-7.482c-1.758-1.493-3.444-3.042-5.051-4.63-1.204-1.193-2.399-2.433-3.54-3.689-.38-.419-.348-1.059.072-1.438.419-.38 1.061-.348 1.441.071 1.116 1.232 2.28 2.441 3.46 3.61 1.567 1.549 3.222 3.066 4.9 4.496l9.707 7.45c.443.34.531.98.19 1.43-.198.261-.507.395-.807.395z"/><path d="m180.303 146.604c-.373 0-.737-.205-.911-.561-1.425-2.852-2.343-5.838-2.739-8.88-.333-2.552-.594-4.567.301-6.913 1.005-2.647 2.874-4.116 5.241-5.973l.206-.158c1.939-1.525 4.109-2.789 6.444-3.768.523-.222 1.117.023 1.331.545.213.521-.024 1.114-.547 1.327-2.161.901-4.172 2.078-5.969 3.484l-.206.158c-2.201 1.73-3.793 2.979-4.6 5.096-.713 1.865-.499 3.484-.182 5.926.364 2.812 1.219 5.585 2.541 8.232.253.506.048 1.114-.459 1.367-.143.071-.301.11-.451.11z"/><path d="m117.739 122.571c-.372 0-.76-.024-1.156-.071-2.834-.364-4.726-1.905-5.605-2.789-.396-.403-.396-1.043.008-1.438s1.045-.395 1.441.008c.696.703 2.185 1.919 4.418 2.204 2.224.292 3.847-.529 4.924-1.075.159-.079.285-.15.388-.205-.499-.253-1.401-.545-2.692-.893-2.153-.577-4.441-.869-6.809-.869-.562 0-1.021-.458-1.021-1.019s.459-1.019 1.021-1.019c2.55 0 5.012.316 7.34.94 2.494.672 4.552 1.343 4.544 2.892 0 .932-.894 1.509-1.852 1.991-.982.489-2.684 1.351-4.949 1.351z"/><path d="m106.481 122.507c-.388 0-.76-.221-.934-.6-.23-.514 0-1.114.514-1.343 1.861-.838 3.46-2.023 4.743-3.524.681-.798 1.266-1.683 1.742-2.623.253-.506.863-.703 1.369-.45.507.253.705.861.452 1.367-.547 1.09-1.228 2.109-2.011 3.033-1.481 1.739-3.318 3.105-5.463 4.061-.135.064-.278.087-.42.087z"/><path d="m102.886 111.984c-.166 0-.332-.024-.498-.063-1.053-.269-1.695-1.351-1.418-2.402.135-.514.452-.94.911-1.201.459-.269.99-.34 1.496-.213.515.134.942.45 1.212.908.269.451.34.988.213 1.493-.134.506-.451.941-.91 1.201-.309.182-.649.277-.998.277zm0-2.031s-.055.024-.063.048c0 .031.016.071.047.079.04.008.072-.016.08-.048.008-.031-.008-.071-.048-.079 0 0 0 0-.008 0z"/><path d="m127.517 135.022c-.324 0-.594-.024-.768-.04-1.029-.102-2.066-.276-3.072-.521-1.377-.332-2.739-.806-4.038-1.39-4.71-2.142-7.236-3.856-11.424-6.692-.467-.316-.586-.948-.27-1.415.317-.466.951-.584 1.418-.268 4.236 2.868 6.571 4.448 11.124 6.526 1.179.537 2.422.964 3.673 1.264.911.221 1.853.379 2.787.474.578.055 1.14.008 1.473-.063-.293-.451-1.109-1.328-2.866-2.647-.452-.34-.539-.972-.206-1.422.34-.45.974-.537 1.425-.206 3.967 2.971 4.077 4.283 3.666 5.167-.483 1.043-1.94 1.233-2.93 1.233z"/><path d="m150.422 136.926c-2.296 0-4.56-.324-6.769-.964-3.397-.988-6.603-2.757-9.279-5.112-.42-.371-.46-1.011-.087-1.438.372-.418 1.013-.458 1.44-.087 2.455 2.157 5.392 3.777 8.504 4.686 2.209.639 4.489.932 6.785.876-.055-.774-.238-1.872-.744-2.709-.182-.301-.46-.759-.99-1.162-.158-.118-.277-.189-.554-.355l-.23-.135c-.649-.395-1.179-.727-1.528-.948-.475-.3-.609-.932-.309-1.406.301-.474.935-.608 1.41-.308.34.221.847.537 1.488.924l.222.135c.372.229.53.323.744.481.831.632 1.275 1.367 1.489 1.723 1.084 1.785 1.084 4.1 1.06 4.764-.015.521-.427.94-.95.98-.57.039-1.132.055-1.702.055z"/><path d="m155.268 118.462s-.064 0-.095 0c-.895-.079-1.837-.221-2.882-.419-.554-.11-.911-.64-.808-1.193.111-.553.649-.908 1.196-.805.982.189 1.852.316 2.676.395.562.047.974.545.926 1.106-.047.529-.491.924-1.013.924z"/><path d="m157.239 118.652c-.665 0-1.385-.063-2.153-.198-.555-.094-.927-.624-.824-1.177.095-.553.626-.924 1.18-.822 2.589.459 4.062-.063 4.347-.726.261-.617-.357-1.92-2.328-3.311-.459-.324-.57-.956-.246-1.414.325-.458.958-.569 1.418-.245 2.628 1.857 3.76 4.006 3.032 5.752-.586 1.398-2.185 2.149-4.426 2.149z"/><path d="m155.355 111.296c-.143 0-.285-.031-.428-.095-2.114-.971-4.291-1.848-6.484-2.615-7.791-2.733-16.056-4.195-24.56-4.337-.562-.008-1.013-.474-1.005-1.035s.491-1.011 1.037-1.003c8.725.142 17.204 1.643 25.201 4.448 2.249.79 4.489 1.69 6.659 2.686.514.237.736.837.498 1.351-.174.371-.538.592-.926.592z"/><path d="m110.875 106.43c-.42 0-.816-.261-.958-.68-.19-.529.087-1.114.617-1.295 1.592-.569 3.239-1.028 4.893-1.383 1.576-.34 3.199-.577 4.814-.719.38-.032.697-.055.919-.071.57-.04 1.045.387 1.084.948.032.561-.388 1.043-.95 1.082-.214.016-.515.032-.871.063-1.528.135-3.064.364-4.56.688-1.568.332-3.128.774-4.64 1.311-.111.04-.229.056-.34.056z"/><path d="m127.058 105.268c-.198 0-.396-.11-.499-.3-.142-.277-.039-.608.238-.758.134-.072.324-.166.57-.277.895-.403 1.845-.695 2.834-.853.76-.127 1.536-.166 2.32-.135.309.016.546.277.538.585-.015.308-.269.545-.585.537-.697-.031-1.402.008-2.091.119-.886.142-1.741.403-2.549.766-.214.095-.388.182-.507.245-.087.048-.174.063-.261.063z"/><path d="m132.26 106.35c-.23 0-.452-.142-.531-.379-.103-.292.056-.608.349-.711.134-.047.332-.111.57-.19.894-.276 1.829-.513 2.787-.687.736-.134 1.488-.237 2.224-.3.301-.032.578.205.61.513.024.309-.206.577-.515.609-.696.063-1.409.158-2.114.284-.91.166-1.805.387-2.652.648-.23.071-.412.134-.538.174-.064.024-.119.031-.182.031z"/><path d="m138.768 107.946c-.222 0-.428-.126-.515-.339-.119-.285.016-.617.301-.735.135-.055.333-.134.57-.221.895-.332 1.837-.585 2.803-.759.752-.126 1.512-.205 2.264-.229.309 0 .57.237.578.545s-.237.569-.546.577c-.697.024-1.409.095-2.106.213-.903.158-1.774.395-2.605.703-.222.079-.404.158-.523.206-.071.031-.142.047-.213.047z"/><path d="m146.242 132.019c-.071 0-.143-.015-.206-.039l-4.244-1.675c-.285-.111-.427-.442-.316-.727.11-.284.443-.426.728-.316l4.244 1.675c.285.111.427.443.316.727-.087.221-.3.355-.522.355z"/><path d="m174.776 137.984c-.221 0-.443-.086-.609-.26-1.125-1.162-2.043-2.473-2.74-3.903-.934-1.904-1.813-3.706-1.164-5.633.657-1.968 2.502-2.868 4.458-3.824 1.599-.782 3.309-1.288 5.099-1.509.467-.056.878.268.934.735.055.458-.269.877-.736.932-1.592.189-3.128.648-4.553 1.343-1.766.869-3.167 1.548-3.602 2.852-.428 1.272.237 2.639 1.084 4.361.618 1.272 1.441 2.441 2.439 3.476.324.332.309.87-.024 1.186-.166.158-.372.237-.586.237z"/><path d="m25.0427 18.6058c-.1584 0-.3167-.0395-.4672-.1106-3.6736-1.8961-7.5215-3.2629-11.4247-4.0688-3.0166-.6241-8.05202-1.667-9.35839.1659-.19793.2844-.31669.6479-.34836 1.0745-.03959.5609-.53047.9797-1.08468.9481-.56214-.0395-.98968-.5215-.95009-1.0824.05542-.8138.30086-1.5248.72048-2.1174 2.07436-2.9153 7.48193-1.7934 11.43274-.9797 4.0853.8454 8.0994 2.2754 11.9473 4.2585.4988.2607.6967.8691.4355 1.3668-.1821.3476-.5384.553-.9026.553z"/><path d="m7.53737 32.3135c-.32461 0-.64131-.1502-.83924-.4346-1.13219-1.6196-2.17728-3.2945-3.12737-4.9853-.4117-.7347-.98176-1.746-1.63098-3.1523-.59381-1.2799-1.124271-2.5993-1.583479-3.9266-.023752-.0633-.039587-.1265-.047504-.1976-.007917-.079-.03167-.1975-.055422-.3476-.3087777-1.7539-.530464-3.5316.490878-4.2979.292947-.2213.926337-.5215 1.860587-.0553.50671.2449.71256.8611.46712 1.3589-.19793.395-.62547.6162-1.03717.5609-.00792.3555.03958.9876.2296 2.0779.02375.1264.03959.237.05542.3239.42754 1.2325.91842 2.4571 1.47264 3.6422.61755 1.3352 1.16385 2.2991 1.55972 3.0101.91842 1.6276 1.93184 3.2472 3.02444 4.8194.32461.4583.20585 1.0982-.25336 1.4142-.17418.1264-.38003.1818-.57796.1818z"/><path d="m52.8169 57.2794c-.2296 0-.4592-.079-.6492-.237-1.6072-1.3273-3.3411-2.4018-5.1384-3.1919-1.3143-.5767-2.5969-.9243-4.3783-1.4063-.5938-.1659-1.243-.3397-1.9635-.5451l-2.5494-.719c-2.0902-.5925-2.6523-.7505-3.6024-1.0745-2.0902-.711-4.1329-1.5643-6.0806-2.5282-6.1993-3.0733-12.5411-7.7189-12.8103-7.9164-2.874-2.1332-5.66885-4.4639-8.31326-6.9288-.4117-.3872-.43545-1.0271-.0475-1.438.38795-.4108 1.02926-.4345 1.44096-.0474 2.589 2.4097 5.3205 4.693 8.1312 6.7788.0633.0474 6.4764 4.7325 12.5094 7.7268 1.8685.9244 3.8241 1.7381 5.8272 2.4255.8947.3002 1.3935.4424 3.4916 1.035l2.5494.7189c.7125.2054 1.3539.3793 1.9477.5373 1.8605.5056 3.1986.8769 4.6554 1.509 1.9793.8612 3.8716 2.0384 5.6213 3.4842.4355.3555.4909.9955.1346 1.43-.1979.2449-.4909.3713-.7838.3713z"/><path d="m83.283 62.897c-.2534 0-.4988-.0948-.6968-.2765-.5225-.4899-1.0688-.956-1.6389-1.3906-1.8764-1.4379-3.6736-2.299-6.1438-3.3024-5.0355-2.0384-10.4668-3.7133-12.557-4.2032-.3088-.0711-1.0768-.2528-2.0665-.6083-.855-.3081-1.6864-.6795-2.486-1.114-.0634-.0316-.1188-.0711-.1742-.1185-.4275-.3713-.8472-.7664-1.243-1.1851-.9264-.9797-1.5202-1.8566-1.7656-2.2359l-.0713-.1027c-2.6681-3.8634-5.5421-7.6636-8.527-11.2742-2.7552-3.3262-4.9167-5.9492-8.1074-8.9751-3.3728-3.1919-7.094-6.0914-11.0685-8.6038-.475-.3002-.6175-.9323-.3167-1.4063.3009-.474.9343-.6163 1.4093-.316 4.0854 2.5835 7.9174 5.562 11.3852 8.8487 3.2778 3.1128 5.4868 5.7753 8.2737 9.1489 3.0323 3.6659 5.938 7.5056 8.6378 11.4243l.0871.1264c.2217.3319.7443 1.1061 1.5518 1.9673.3167.3397.6572.6636 1.0056.9639.6729.3634 1.3855.6794 2.106.9401.8788.3161 1.5518.4741 1.8131.5373 2.5969.6083 8.242 2.4176 12.8895 4.3058 2.6285 1.0666 4.5524 1.991 6.6189 3.5711.6255.482 1.2272.9955 1.7972 1.5248.4117.3872.4276 1.0271.0396 1.438-.1979.2133-.4671.316-.7442.316z"/><path d="m65.0256 81.2738c-.3642 0-.7205-.1975-.9026-.5452l-5.7401-10.8475c-.9738-2.0937-1.8606-4.1953-2.6602-6.3047-.6017-1.5802-1.1639-3.1998-1.6706-4.8273-.1662-.5373.1267-1.1061.6651-1.272s1.1084.1264 1.2747.6636c.4988 1.588 1.053 3.1761 1.6389 4.7167.7838 2.0621 1.6468 4.1241 2.581 6.123l5.7164 10.8002c.2613.4977.0713 1.1139-.4275 1.3747-.1505.079-.3167.1185-.4751.1185z"/><path d="m65.0175 81.2737c-.5463 0-.9976-.4346-1.0213-.9876-.103-3.184.3087-6.281 1.2192-9.2122.768-2.4571 1.3698-4.4006 3.1591-6.1546 2.0189-1.9909 4.3308-2.544 7.2602-3.2471l.2534-.0632c2.3989-.5768 4.9008-.8296 7.4265-.7427.5621.0158 1.0055.4899.9817 1.0508-.0158.5609-.475 1.0113-1.053.9797-2.3435-.079-4.6554.1501-6.8802.6873l-.2533.0632c-2.7236.6558-4.6871 1.1298-6.3102 2.7258-1.4251 1.3984-1.9081 2.9548-2.6365 5.3092-.8471 2.7099-1.2272 5.5857-1.1242 8.5406.0158.5609-.4197 1.035-.9897 1.0508-.0079 0-.0238 0-.0317 0z"/><path d="m21.9233 34.1701c-1.3381 0-3.2462-.1817-5.1938-1.3984-2.4228-1.509-3.4995-3.6975-3.9271-4.8668-.19-.5293.0792-1.114.6097-1.3036.5304-.1896 1.1163.079 1.3063.6084.3405.9243 1.1876 2.6546 3.0957 3.8397 1.9002 1.1851 3.7212 1.114 4.9246 1.0666.1742 0 .3167-.0158.4355-.0316-.3563-.4346-1.0451-1.0824-2.0744-1.9357-1.718-1.4221-3.6736-2.6388-5.8271-3.6185-.5147-.237-.7364-.8375-.4988-1.351.2296-.5135.8392-.7348 1.3538-.4977 2.3119 1.0587 4.4258 2.3702 6.2785 3.9029 1.9873 1.6433 3.5787 3.1207 2.9294 4.5191-.3958.8533-1.4884 1.0034-2.5177 1.0429-.2533.0079-.5542.0237-.8867.0237z"/><path d="m8.09956 28.6793c-.04751 0-.08709 0-.1346 0-.56213 0-1.01342-.4661-1.01342-1.0271 0-.5609.45921-1.0112 1.02134-1.0112h.12668c1.99514 0 3.90324-.4109 5.66884-1.2325.9501-.4425 1.8527-1.0034 2.684-1.6592.4434-.3555 1.0847-.2844 1.433.158.3484.4425.2851 1.0824-.1583 1.4301-.958.7663-1.9952 1.4063-3.0957 1.9198-2.0348.9402-4.2279 1.4221-6.52392 1.4221z"/><path d="m9.485 17.705c-.43546 0-.87883-.1422-1.24303-.4424-.41171-.3319-.66506-.8059-.72049-1.3273-.05542-.5215.10293-1.035.43546-1.4459.33253-.4108.80757-.6636 1.33012-.7189s1.03714.0948 1.44884.4345c.4117.3318.6651.8059.7205 1.3273.0554.5215-.1029 1.035-.4354 1.4458-.388.482-.958.7269-1.536.7269zm0-2.0305s-.03959 0-.04751.0237c-.01583.0237-.01583.0711.00792.0869.02375.0237.07125.0158.08709-.0079.01583-.0237.01583-.0711-.00792-.0869-.00792-.0079-.02375-.0158-.03958-.0158z"/><path d="m23.3959 49.2207c-1.053 0-2.2089-.6084-2.6365-.8612-.8946-.5214-1.7576-1.1061-2.5731-1.746-1.1164-.877-2.1615-1.8725-3.0957-2.947-3.3887-3.9108-4.9721-6.5101-7.59279-10.8317-.29294-.482-.1346-1.1061.34045-1.3985.48296-.2923 1.10843-.1343 1.40137.3398 2.65237 4.369 4.11707 6.7787 7.39487 10.5552.8471.9797 1.7972 1.8804 2.8106 2.6783.7364.5847 1.5281 1.114 2.3436 1.5881.5067.2923 1.0292.4819 1.3697.553-.0792-.5293-.4513-1.667-1.5043-3.5948-.2692-.4898-.0871-1.114.4117-1.3826.4909-.2686 1.1163-.0869 1.3855.4108 2.3673 4.3533 1.924 5.5858 1.1797 6.2257-.3483.2924-.7759.403-1.2272.403z"/><path d="m43.4032 60.6766c-.1188 0-.2375-.0237-.3563-.0633-2.6919-1.0112-5.1542-2.4728-7.3157-4.3453-2.676-2.307-4.8533-5.2539-6.3022-8.5011-.2296-.5135 0-1.114.5146-1.3431.5147-.2291 1.1164 0 1.346.5136 1.3301 2.9864 3.3253 5.6805 5.7718 7.79 1.7339 1.5011 3.6815 2.7099 5.8034 3.6185.2692-.7348.5621-1.7935.4513-2.7732-.0396-.3476-.1029-.8769-.4117-1.4695-.095-.1738-.1742-.2844-.3563-.553l-.1504-.2212c-.4276-.6321-.768-1.1535-.9897-1.5012-.3009-.474-.1663-1.106.3088-1.4063.475-.3002 1.1005-.1659 1.4093.3082.2137.3397.5463.8453.9659 1.4616l.1504.2212c.2455.3634.3484.5135.4672.7506.4908.9243.5858 1.7697.6333 2.1805.2376 2.0621-.7204 4.1716-1.0213 4.772-.1742.3555-.5384.561-.9105.561z"/><path d="m54.0044 45.2862c-.1742 0-.3484-.0395-.5067-.1343-.7759-.4424-1.5756-.9638-2.4465-1.5801-.4592-.3239-.5621-.9639-.2375-1.4221.3246-.4583.9659-.561 1.4251-.237.8076.5767 1.5518 1.0587 2.2723 1.4695.4909.2765.6572.9007.3801 1.3905-.1901.3239-.5305.5135-.8868.5135z"/><path d="m58.0187 46.8587c-1.3143 0-2.9057-.5926-4.5921-1.754-.4671-.316-.578-.9559-.2613-1.4142.3167-.4661.958-.5767 1.4172-.2607 2.1615 1.4853 3.7212 1.6354 4.2517 1.1377.4909-.4582.475-1.8962-.7363-3.974-.2851-.482-.1188-1.1061.3721-1.3905.4829-.2845 1.1084-.1185 1.3934.3713 1.6152 2.781 1.7498 5.2065.3563 6.4864-.5779.5294-1.3301.798-2.201.798z"/><path d="m57.0844 38.8078c-.2851 0-.5701-.1186-.7759-.3556-1.5202-1.7618-3.1274-3.4684-4.798-5.0722-5.938-5.7279-12.842-10.4841-20.5139-14.15-.5067-.2449-.7205-.8533-.483-1.3589.2455-.5057.8472-.719 1.3618-.482 7.8699 3.7528 14.9559 8.6433 21.0523 14.5214 1.7102 1.6512 3.3728 3.4052 4.9246 5.2144.3642.4267.3167 1.0666-.1108 1.4379-.19.166-.4275.245-.6651.245z"/><path d="m28.9698 18.2663c-.1188 0-.2455-.0237-.3642-.0711-.198-.079-.483-.1817-.8234-.3003-1.4489-.5135-2.9374-.9401-4.4338-1.272-1.5676-.3476-3.1669-.5925-4.7662-.7347-.5622-.0474-.9739-.5452-.9264-1.1061s.5384-.9718 1.1085-.9244c1.6864.1501 3.3728.4109 5.0275.7743 1.5756.3476 3.1432.798 4.6713 1.3431.3562.1264.6571.237.8709.3239.5225.1975.7917.7901.5859 1.3115-.1584.403-.5384.6558-.9501.6558z"/><path d="m39.1198 22.6825c-.0871 0-.1742-.0237-.2533-.0632-.6255-.3161-1.2747-.5689-1.9477-.7585-.863-.237-1.7577-.3555-2.6365-.3634-.2375 0-.4355 0-.5621.0158-.3247.0158-.578-.2212-.5938-.5294-.0159-.3081.2216-.5767.5304-.5925.1505-.0079.3721-.0158.6334-.0158.9818 0 1.9714.1343 2.9294.4029.7443.2054 1.4727.4899 2.1615.8375.2771.1422.3879.4819.2454.7505-.1029.1976-.2929.3082-.4988.3082z"/><path d="m43.3793 25.898c-.0633 0-.1266-.0079-.19-.0316-.665-.237-1.3459-.4424-2.0427-.6241-.8946-.2291-1.7972-.3951-2.684-.5136-.2375-.0316-.4275-.0474-.5621-.0632-.3088-.0316-.5384-.3002-.5067-.6083s.3088-.5294.6096-.5057c.1425.0158.3484.0316.5938.0632.9264.1186 1.8765.3003 2.8186.5373.7284.1817 1.4489.4029 2.1456.6557.293.1028.4434.4267.3405.719-.0792.2291-.3009.3713-.5305.3713z"/><path d="m48.6444 30.0225c-.0713 0-.1425-.0158-.2217-.0474-.6492-.2765-1.3222-.4978-2.0031-.6795-.8867-.2291-1.7814-.3792-2.6602-.4424-.2375-.0158-.4276-.0237-.5622-.0316-.3087-.0079-.5542-.2686-.5463-.5768.008-.3081.2613-.5451.578-.5451.1425 0 .3563.0158.6097.0316.95.0711 1.916.2291 2.866.4819.7284.1897 1.4568.4346 2.1536.7348.285.1185.4196.4503.3008.7348-.0871.2133-.3008.3397-.5146.3397z"/><path d="m39.9511 53.811c-.1504 0-.2929-.0553-.4038-.1738l-3.159-3.2867c-.2138-.2212-.2059-.5767.0158-.7901.2217-.2133.578-.2054.7918.0158l3.159 3.2867c.2138.2212.2059.5768-.0158.7901-.1109.1027-.2455.158-.388.158z"/><path d="m63.5291 71.1292c-.3483 0-.6729-.2133-.7917-.5609-.5384-1.5248-.8234-3.0971-.863-4.6851-.0475-2.1253-.1029-4.1241 1.2905-5.6094 1.4172-1.509 3.4679-1.5644 5.6451-1.6276 1.7814-.0474 3.547.2055 5.2651.7506.4434.1422.6888.6162.5463 1.0587-.1425.4424-.6176.6873-1.0609.5451-1.5281-.4898-3.1195-.711-4.703-.6715-1.9714.0553-3.5232.0948-4.4654 1.0982-.9184.9796-.8788 2.4966-.8392 4.4164.0317 1.4142.2929 2.8205.768 4.1716.1504.4345-.0792.9164-.5147 1.0665-.095.0316-.19.0474-.2771.0474z"/></g></svg>