<svg fill="none" height="24" viewBox="0 0 24 24" width="24" xmlns="http://www.w3.org/2000/svg"><g fill="#fff"><path d="m21.4735 10.9919c-.0025-.115-.034-.2276-.0918-.3271-.1623-.2828-.5195-.4628-1.0608-.5351-.3132-.0417-.6077-.0929-.8753-.15208-.8202-.18262-1.6608-.25755-2.5004-.22292-.7064.02656-1.411.09046-2.1106.19144-.1483.02252-.3204.04997-.5113.08056-1.4174.2263-4.3011.6866-6.09232.3317-.24331-.45934-.28524-.86981-.12444-1.22113.34913-.76299 1.5312-1.12045 1.95916-1.22704.5066.774 1.1506 1.25033 1.9156 1.41664 1.423.30924 2.7337-.57177 2.7888-.60932.0421-.02879.0739-.0703.0907-.11845s.0177-.10041.0026-.14913c-.015-.04872-.0453-.09134-.0863-.12163-.041-.03028-.0907-.04664-.1416-.04667-.1294-.00913-.2541-.05162-.3621-.12332-.2382-.14476-.4331-.35102-.5641-.59711-.4876-.89844-1.1915-1.23338-1.5958-1.35607.8229-1.97103-.2471-3.25934-.2953-3.3156l-.0066-.00705c-.258-.27798-.1129-.78191-.1116-.78615.0136-.04436.0139-.09169.0009-.13623-.0129-.04453-.0385-.08433-.0737-.11454-.0352-.03022-.0784-.04953-.1244-.05559s-.0927.0014-.1345.02147c-1.1365.54402-1.81322 1.55753-1.95736 2.93082-.05126.52132-.03286 1.04714.0547 1.5636-.5482-.03679-1.09858-.02498-1.6447.0353-.21586.02117-4.31379.46051-6.13257 3.6993-.800468 1.4255-.875291 3.1369-.20033 4.5779.55059 1.1758 1.46083 2.0805 2.70664 2.694-.36412.3856-.66306.8278-.88511 1.3093-.77075 1.6699-2.399997 1.4248-2.468468 1.4136-.050489-.0085-.102384-.0006-.148028.0226-.045645.0232-.082621.0605-.105474.1063-.022852.0458-.03037.0978-.021444.1482s.033823.0966.071017.1318c.774497.7327 1.762517 1.1644 2.723367 1.0965 1.82315-.1288 3.31546-1.7038 3.87204-2.3816.2292-.2829.48374-.5442.76045-.7808.01039.0011.02084.0014.03127.0011 1.15899-.0739 2.6454.0063 2.6567.007.0392.0028.0776.0047.1167.0071-.444.3148-.81094.726-1.07328 1.2029-.38351.688-1.36609 2.1247-2.88635 2.1349.27371-.2067.48769-.4824.6201-.7988.13242-.3165.17853-.6624.13364-1.0024-.00296-.0316-.01216-.0623-.02709-.0902-.01492-.028-.03527-.0527-.05984-.0727-.02458-.02-.05289-.035-.0833-.0439-.0304-.009-.06229-.0118-.0938-.0083-.0315.0035-.062.0132-.08971.0286s-.05208.0361-.07168.061-.03405.0535-.0425.0841c-.00845.0305-.01073.0624-.00672.0939.04508.3563-.03836.717-.23534 1.0174-.21325.3048-.52545.5263-.88355.627-.05226.0111-.09929.0394-.13358.0803-.03429.041-.05385.0923-.05557.1456-.00171.0534.01452.1059.04611.1489.03159.0431.07671.0744.12815.0888.27763.0792.56482.12.85355.1213 1.76364 0 2.87393-1.6104 3.30466-2.3833.2507-.4596.6141-.8479 1.0561-1.1285.1674-.1031.343-.1923.5249-.2667.0029-.0012.0052-.003.0079-.0043.0747.001.1495.002.2233.002 4.8419 0 7.769-2.0016 8.8545-2.9184.2583-.2184.5854-.3384.9235-.3389h.5912c.2479.0034.491-.0677.6981-.204.5265-.3554.4534-.9288.3237-1.2322.009-.365-.049-2.0798-1.8713-2.7457zm-14.60995 7.8642c-.40334.4911-1.84998 2.1021-3.53301 2.208-.65054.041-1.27645-.147-1.86798-.5594.6828-.0809 1.7004-.4257 2.28261-1.6871.00643-.0147.65683-1.474 1.67499-1.7286.06099-.0157.11328-.055.14548-.1091.03219-.0542.04169-.1188.02642-.1799-.01527-.0612-.05407-.1138-.10795-.1464-.05388-.0327-.11847-.0427-.17971-.0279-.25834.0681-.50124.185-.71563.3445-1.24059-.5653-2.13882-1.4237-2.66823-2.5543-.60988-1.3018-.54099-2.85.18423-4.1415 1.70436-3.03525 5.72471-3.45426 5.76509-3.45807.00105 0 .00197-.0005.00303-.00064s.00205 0 .00304 0c.01016-.0012 1.01774-.12042 1.85548-.00063.03903.00552.07881.00131.11582-.01227.03701-.01357.07008-.03609.09628-.06554.02619-.02945.0447-.06493.05386-.10326.00913-.03834.00873-.07835-.00133-.11646-.13047-.56997-.16725-1.15737-.10891-1.73916.11223-1.03948.54717-1.81581 1.29497-2.31409-.0004.27103.0971.53309.2746.73793.0685.08329.9933 1.2612.103 3.06649-.0171.03476-.0256.07317-.0246.11192.0011.03874.0115.07666.0304.11047.019.03381.0459.0625.0784.08359.0325.02108.0697.03393.1083.03743.0095.00085.9516.0984 1.5377 1.17728.172.32159.4275.59089.7396.77957.0025.00141.005.00297.0076.00452-.4598.21-1.2027.45176-1.9573.28631-.6776-.14824-1.2488-.6-1.6975-1.34316-.0252-.04164-.0625-.0746-.1069-.09446-.0444-.01987-.0938-.0257-.1416-.01671-.0785.01468-1.93027.37496-2.46089 1.53218-.17647.38563-.1872.8069-.03303 1.25716-.24193-.0835-.46307-.21813-.64842-.39464-.13964-.13682-.24561-.30417-.3096-.48889-.00963-.02997-.02509-.05773-.04548-.0817-.0204-.02397-.04534-.04367-.07337-.05797-.02804-.01429-.05863-.0229-.09001-.02533s-.06293.00137-.09283.01117c-.02991.00981-.05758.02544-.08143.04598-.02384.02054-.04339.0456-.05751.07372-.01413.02813-.02255.05877-.02479.09016-.00224.0314.00175.06292.01174.09277.08669.25479.2315.4859.42297.67503 1.36151 1.383 5.51575.7196 7.74765.3632.1894-.0303.36-.0575.5074-.0799.6828-.0984 1.3702-.1606 2.0595-.1865.7981-.0329 1.5971.0383 2.3768.2118.2807.0621.5886.1157.9152.1593.4987.0665.6345.1886.7376.386-.1122.0361-.228.0597-.3453.0706-.1901.0185-.3818.0141-.5708-.0133-1.2475-.1566-2.5137.0446-3.6512.58-.7917.3858-1.4875.9431-2.0369 1.6315-.5186.637-1.9624 2.1206-4.1636 2.1382-.0626.0013-.1222.0271-.166.072-.0437.0448-.0681.105-.06785.1677.00025.0626.02515.1227.06925.1671.0441.0445.1039.0699.1665.0707h.002c2.404-.0191 3.9689-1.6248 4.53-2.3142.505-.6336 1.1448-1.1468 1.8728-1.5022 1.0533-.4962 2.226-.6826 3.3812-.5375.2272.0324.4575.0374.6859.0148.1804-.0158.3577-.0571.5265-.1227 1.166.3904 1.5096 1.2565 1.6065 1.8226-.4148-.2806-.901-.4369-1.4016-.4506h-.0028c-2.6515-.2311-4.8622 1.7924-5.033 1.953-1.9734 1.5886-5.1882 1.9906-5.2203 1.9945-.0046.0006-.0094.0014-.0141.0021l-1.66481.3017c-.0895.0135-.81134.1441-1.77678.9475-.31297.2632-.60007.5558-.85736.8736zm13.62665-3.6997c-.6402.5295-1.3395.9831-2.0841 1.3516.1952-.3139.3565-.6477.4809-.9958.0218-.0594.019-.1251-.0076-.1825-.0266-.0575-.075-.102-.1345-.1238-.0294-.0108-.0607-.0157-.092-.0143-.0313.0013-.0621.0087-.0906.0219-.0574.0266-.1019.075-.1237.1345-.48 1.3106-1.1162 1.6387-1.1322 1.6466-.0021.001-.0038.0025-.0058.0034-.4381.1698-.8849.3164-1.3384.4392.2888-.3614.507-.7738.6433-1.2159.4173-1.2789.8682-1.7123.9349-1.7711.5174-.3549 1.076-.6456 1.6635-.8658-.1451.2099-.2699.4331-.3728.6666-.0138.0285-.0216.0595-.023.091-.0013.0316.0037.0631.015.0927.0112.0295.0284.0565.0504.0792s.0484.0406.0776.0527c.0585.0177.1212.0156.1783-.0062.0571-.0217.1054-.0617.1374-.1138.4008-.892.8392-1.0984.9096-1.1268.4031-.0738.8143-.0937 1.2227-.059.0087.0008.0181.001.0269.0009h.0065c-.1495.2412-.2616.5035-.3326.7781-.1179.4129-.3261.7943-.6097 1.1166zm-6.9213 2.7176c.1479-.1715.269-.3644.3593-.5721.0011-.0027.0023-.0055.0034-.0082.0024-.006.2324-.5798.5576-.9411.6923-.2687 1.3489-.6217 1.9549-1.051-.1103.252-.2079.5095-.2925.7713-.4239 1.2998-1.1887 1.5851-1.2685 1.6118-.4166.0791-.854.1438-1.3142.1896zm-4.87408.0005c.52285-.3098.86308-.3654.87395-.367.00163 0 .00311-.0009.00473-.0011.00163-.0003.00396-.0001.006-.0006l1.5233-.276c-.1531.2652-.3624.4936-.6132.6692-.3503-.0148-1.06497-.0389-1.79478-.0242zm2.47768.0609c.2162-.2316.3867-.5019.5026-.7967.6934-.121 1.3775-.2908 2.047-.5083-.0868.1565-.1646.3179-.2329.4833-.2498.5657-.6514.7729-.7624.8211-.4954.0228-1.0133.0249-1.5545.0008zm11.5815-3.3611c-.1282.0827-.2781.1252-.4306.1221h-.5916c-.1318.0005-.2632.0147-.392.0424.0917-.1835.1656-.3753.2205-.573.1341-.487.3223-.7291.4043-.8168.3588.1026.6833.3002.9392.5718.0422.0986.1614.4434-.15.6537z"/><path d="m6.42511 8.56939c.02948.0107.06079.01549.09212.01408s.06207-.00899.09047-.0223.05389-.0321.07502-.05527c.02113-.02318.03748-.0503.04811-.07981.01365-.03764.02835-.07494.04412-.11188.01227-.02885.01874-.05984.01904-.09119s-.00558-.06246-.01731-.09154c-.01172-.02908-.02906-.05556-.05101-.07794-.02196-.02238-.04812-.04022-.07697-.05249-.02885-.01228-.05984-.01875-.09119-.01904-.03135-.0003-.06246.00558-.09154.0173s-.05556.02906-.07794.05102-.04022.04811-.05249.07696c-.0192.04511-.0372.09071-.05372.13638-.01067.02948-.01542.06078-.01399.0921.00142.03132.00901.06205.02232.09044.0133.02839.03207.05388.05523.07501.02316.02114.05025.0375.07973.04817z"/><path d="m12.6609 13.2896c.0501.0001.0988-.0157.1394-.045l.2284-.1645c.0505-.0374.0842-.0931.0938-.1552.0097-.062-.0054-.1254-.0422-.1763-.0367-.051-.092-.0854-.1539-.0959s-.1255.0039-.1769.0399l-.2283.1645c-.0411.0295-.0717.0713-.0874.1193-.0158.048-.0159.0998-.0004.1479.0156.0481.046.09.0869.1197.0408.0297.0901.0457.1406.0456z"/><path d="m8.59622 13.1251c.13189 0 .2388-.1069.2388-.2388s-.10691-.2388-.2388-.2388c-.13188 0-.2388.1069-.2388.2388s.10692.2388.2388.2388z"/><path d="m6.02387 14.9559c-.047.0046-.09156.0231-.12805.0531s-.06328.0701-.07697.1153-.01367.0934.00005.1386.04053.0853.07705.1152c.03651.03.08108.0484.12808.0531.047.0046.09431-.0048.13596-.0271.04164-.0223.07575-.0564.09801-.098.02226-.0417.03167-.089.02704-.136-.00307-.0312-.01227-.0615-.02706-.0892-.01479-.0276-.03488-.0521-.05914-.072-.02425-.0199-.05219-.0348-.08221-.0439s-.06154-.0122-.09276-.0091z"/><path d="m4.79535 12.1957c-.04699.0047-.09155.0232-.12805.0532-.03649.0299-.06327.0701-.07697.1153-.01369.0451-.01367.0934.00005.1386s.04054.0853.07705.1152c.03651.03.08109.0484.12808.053.047.0047.09432-.0048.13596-.027.04165-.0223.07576-.0564.09802-.0981.02226-.0416.03167-.0889.02704-.1359-.00307-.0312-.01226-.0616-.02704-.0892-.01479-.0277-.03489-.0522-.05915-.0721-.02425-.0199-.05219-.0348-.08222-.0439s-.06155-.0122-.09277-.0091z"/></g></svg>