<svg fill="none" height="162" viewBox="0 0 71 162" width="71" xmlns="http://www.w3.org/2000/svg" xmlns:xlink="http://www.w3.org/1999/xlink"><clipPath id="a"><path d="m0 0h71v162h-71z"/></clipPath><g clip-path="url(#a)"><g fill="#408f95"><path d="m37.4472 29.3864c-.655 0-1.3395-.0887-2.0181-.3192-2.2718-.7626-3.9477-2.0809-4.0126-2.1341-.1947-.1537-.6078-.4848-1.2274-.6385-.2833-.0709-.7612-.1891-1.1153-.0177-.177.0828-.2478.1951-.4189.5084-.1535.2837-.3423.6444-.7141.9518-.8969.7507-2.2718.7744-4.1955.0709-.2184-.0769-.3895-.2424-.4839-.4552-.6196-1.4424-1.5224-2.5538-2.6731-3.3105-1.4339-.9399-2.8856-1.07-4.1366-1.1232-5.2282-.2187-11.59531.4493-14.92933.8631-.45437.0591-.867438-.2601-.932348-.7153l-.58419223-4.2681c-.03540557-.2542.04720743-.5143.23013623-.6976.177028-.1832.430768-.2778.690409-.2482 5.824215.6443 10.533125.0945 14.410025-1.6908 4.6795-2.1518 7.9663-6.37851 8.3794-10.76488.0413-.4611.4602-.79806.9087-.75668.4603.04139.7966.44928.7553.91038-.4661 4.96568-4.1306 9.73038-9.3411 12.13048-3.9124 1.803-8.58 2.4356-14.22719 1.939l.32456 2.3883c3.53465-.4198 9.44153-.9754 14.38053-.7744 1.0622.0413 3.039.1241 4.9804 1.3951 1.3218.8631 2.4017 2.14 3.1452 3.7065 1.0799.3488 1.8824.3902 2.2247.1005.1121-.0946.1947-.2364.3068-.4552.2065-.3842.4839-.9104 1.1861-1.2355.8969-.4197 1.7939-.1951 2.2247-.0887.9736.2424 1.6109.7508 1.8528.94.0296.0236 1.5402 1.2059 3.5229 1.8739 2.1892.7331 4.5201-.4433 5.3935-.8867 1.1329-.5734 2.1361-1.3715 2.9681-2.3705.2656-.3193.7258-.3961 1.0799-.1774 1.7408 1.0759 3.7648 1.4897 6.3907 1.3183.4544-.0414.8615.3192.891.7803s-.3186.8631-.7789.8927c-2.6908.1832-4.8624-.201-6.7684-1.2119-.8792.934-1.8942 1.6907-3.0271 2.2641-.7199.3665-2.5669 1.3006-4.6677 1.3006z"/><path d="m35.5295 91.2035s-.0295 0-.0472 0l-2.0889-.1123c-.0649 0-.1357-.0177-.1948-.0354-2.0063-.603-3.2514-1.6494-3.7116-3.0977-.2833-.8867-.1771-1.6552-.1004-2.2759.0532-.3961.1004-.739.0059-.8927-.0177-.0355-.5192-.7862-4.4021.5912-.354.1241-.7435 0-.9559-.3015-.2183-.3015-.2065-.7153.0236-1.005l.7612-.9695c2.3958-3.0562 4.1602-5.2967 4.3254-6.0002-.2242-.1182-.773-.2601-1.2274-.3783-.9087-.2365-2.1479-.5557-3.5996-1.2178-.2891-.1301-.4779-.4197-.4897-.7389-.0118-.3193.1593-.6149.4425-.7686 1.375-.733 3.9773-2.7488 6.4498-5.4445.0177-.0236.0413-.0414.059-.0591.0354-.0355.1416-.136.295-.2897 1.4634-1.4187 2.4312-2.3469 3.0921-2.9498-.1239-.0473-.2419-.0887-.3541-.136-1.6699-.6266-2.8973-1.1114-3.4579-1.6611-.1947-.1951-.2892-.473-.2419-.7449.0472-.2719.2242-.5025.472-.6207 1.6051-.739 3.0567-1.7912 4.3136-3.1331.6727-.7153 1.2864-1.5134 1.8293-2.3765-.1416-.3783-.3187-.7389-.5252-1.064-.3422-.5321-.7671-.9755-1.2569-1.3242-.2183-.1537-.354-.402-.3599-.668 0-.2661.118-.5203.3245-.6858 1.5284-1.1764 2.9918-2.4533 4.3431-3.7893 1.6641-1.6434 2.2542-2.4887 2.1774-3.1331-.0531-.4315-.0531-.467 2.8266-5.2731 2.4843-4.1499 6.2432-10.422 8.3085-14.7493.2006-.4197.6963-.5912 1.1153-.3961.4189.201.5901.6976.3953 1.1173-2.1007 4.3982-5.8773 10.7058-8.3793 14.8853-1.192 1.9922-2.325 3.878-2.5846 4.4218.059 1.3478-.8733 2.5361-2.6849 4.3214-1.1625 1.1468-2.3958 2.2463-3.6881 3.2809.3187.3251.6078.6798.8615 1.0759.36.5557.6432 1.1764.838 1.8385.0649.2246.0354.467-.0826.668-.6491 1.0877-1.4045 2.0926-2.2424 2.9853-1.0327 1.0995-2.1774 2.0276-3.4284 2.7725.5665.2424 1.2215.4848 1.7053.668.9678.3606 1.5048.5675 1.8175.7744.1475.0946.2656.2306.3305.3902.1416.3429.0413.7448-.2479.9754-.0708.0532-.1475.1005-.2242.13-.2655.207-1.1271.9636-3.8297 3.5884-.1003.1004-.2006.195-.2951.2778-1.9296 2.1045-3.9182 3.8011-5.4465 4.8829.6845.2306 1.2982.3902 1.8293.5321 1.2274.3192 2.1184.5497 2.4135 1.4247.3776 1.1172-.4249 2.2523-3.7707 6.5263 1.6227-.331 3.1688-.2838 3.8533.8749.3894.6503.295 1.3538.2124 1.9686-.0708.5202-.1357 1.0167.0354 1.5488.2774.869 1.1212 1.5311 2.5079 1.9685l1.9886.1064c.4603.0237.8143.4198.7907.8808-.0236.4493-.3953.7922-.832.7922z"/><path d="m26.566 12.8634c-.1298 0-.2596-.0119-.3895-.0355-.5665-.1005-1.0621-.4197-1.3926-.8927-.3304-.4729-.4544-1.0522-.354-1.6197.1003-.56753.4189-1.0641.891-1.39515s1.0504-.45519 1.6169-.35469c.5664.10049 1.0621.41972 1.3926.89264.3304.47293.4543 1.0523.354 1.6198s-.4189 1.064-.891 1.3951c-.3659.2542-.7907.3902-1.2333.3902zm0-2.6602c-.1003 0-.1947.0295-.2774.0886-.1062.0769-.177.1892-.2006.3133-.0236.1301 0 .2601.0826.3666.0767.1064.1889.1773.3187.2009.1298.0237.2596.0001.3658-.0827.1063-.0769.1771-.1892.2007-.3133.0236-.1301 0-.2601-.0767-.3665-.0768-.1064-.1889-.1774-.3187-.201-.0295 0-.059-.0059-.0885-.0059z"/><path d="m58.6908 101.135c-.0591 0-.1181 0-.1712-.018-.3658-.077-.6373-.39-.6609-.769-.1829-2.9435-2.2364-5.6037-4.9981-6.4668-2.2482-.7094-4.4316.0178-5.9835 1.9804-.2892.3606-.8143.4256-1.1743.136-.36-.2897-.4249-.8158-.1357-1.1764 2.0063-2.5361 4.8446-3.4642 7.7951-2.5361 2.5964.8158 4.6854 2.9085 5.6354 5.4623.4013-.8099.8379-1.6612 1.192-2.2582.3599-.5971.7022-1.2355 1.0267-1.8563.4308-.8098.8793-1.6493 1.3927-2.4414.7553-1.1646 1.7053-2.2878 2.6318-3.3755 2.2895-2.6898 4.4493-5.2258 4.0362-8.5718-.1416-1.1409-.5016-2.3882-.8792-3.7124-.7848-2.743-1.6523-5.7756-.6491-8.4417-3.9418 1.4897-7.9663 2.8316-12.0084 4.0139-.2597.0769-.5429.0237-.7553-.1477-.2125-.1656-.3305-.4316-.3187-.6976.0885-1.6966 1.133-3.2041 2.5846-3.9962-.6019-.4848-1.1212-1.1055-1.5165-1.8149-.8025-1.4365-.9973-3.0976-.5488-4.5578.4426-1.4365 1.5224-2.6838 2.9564-3.4227.7848-.402 1.6286-.6326 2.4666-.6858-1.8765-3.1686-2.2247-7.2298-.8144-10.6467.1003-.2364.301-.4197.5488-.4847.2479-.071.5134-.0237.7199.13l.8262.6089c-.9088-4.2858-1.7467-11.5334 3.0684-15.0685-1.9119-1.1764-3.1511-3.476-2.8914-5.7342.1947-1.6966 1.6109-3.1863 2.6613-4.1381-2.3958-.8276-6.1783-2.6838-7.5709-3.7893-1.2805-1.0168-1.6168-2.4769-.9264-3.9962.0885-.201.2419-.467.4366-.7567-1.7407-.3842-4.0244-1.3301-5.4288-2.87298-.4898-.44928-.5901-.94585-.5842-1.28872.0118-.63845.3953-1.20004.8202-1.64341-.3127-.13005-.6491-.26011-.9559-.37243-.4367-.1537-.6609-.63253-.5075-1.06999.1534-.43745.6373-.66209 1.068-.50839.4544.16553.9737.37243 1.4045.54978.1829.07685.3953.15961.5488.22463h.0118c.3422 0 .6845.21282.8143.53795.0708.17735.0826.33696.0472.47884-.0118.10641-.0472.2069-.1003.30149-.1062.18326-.2302.29558-.3718.35469-.0354.02956-.0708.05912-.1062.08276-.8202.66801-.9795.95767-.9973 1.0759 0 0 .0237.01774.0473.0473.0236.02364.0472.04729.0708.07094 1.6463 1.83257 4.7502 2.53014 5.7003 2.55974.2006-.0946.3953-.1301.5842-.0946.3776.0709.6786.4138.7022.798.0236.3784-.1948.7212-.5606.8749-.0472.0178-.1003.0355-.1593.0473-.3777.337-1.1035 1.2001-1.1625 2.0277-.0177.3015.0236.7626.6432 1.2532 2.4253 1.9272 7.3584 3.6238 8.2141 3.8839.3009.0355.5901.2187.714.4848.2891.6148-.1652 1.0049-.6904 1.4542-.7612.6562-2.5492 2.1932-2.7086 3.6061-.236 2.0217 1.2982 4.1676 3.2692 4.5873.354.0769.6137.3665.655.7271.0413.3547-.1535.7035-.478.8513-4.349 2.0395-5.3817 7.354-3.1511 16.2567.0885.3429-.0531.7035-.3423.8986-.295.1951-.6786.1892-.9618-.0177l-1.7467-1.2769c-.9264 3.2395-.1652 6.9342 2.0358 9.4939.2479.2838.2715.6976.059 1.0109-.2065.3133-.6019.4493-.9559.331-1.0032-.331-2.1775-.2128-3.216.3252-1.0386.5379-1.8116 1.4187-2.1244 2.4296-.3186 1.0227-.1652 2.205.4131 3.2395.5842 1.0464 1.5225 1.8031 2.5669 2.075.4131.1064.6786.5025.6196.9222-.0531.4138-.413.7271-.8261.7271-.0177 0-.0354 0-.0531 0-1.1271 0-2.2188.7212-2.7794 1.7025 4.3077-1.3064 8.5918-2.7961 12.7579-4.4395.3658-.1419.7789-.0178 1.0031.3133.2183.3251.1829.7626-.0885 1.0463-2.3073 2.4178-1.3749 5.6574-.3895 9.092.3954 1.3833.7731 2.6956.9324 3.9666.5075 4.079-2.0004 7.0229-4.4198 9.8664-.9324 1.0936-1.8057 2.1222-2.502 3.1922-.4721.739-.8851 1.5075-1.3218 2.3233-.3364.6384-.6904 1.2946-1.074 1.933-.5901.9814-1.4811 2.8553-1.906 3.7537-.1416.29-.236.503-.2773.58-.1476.283-.4367.449-.7435.449z"/><path d="m27.7521 5.75174c-.3954 0-.7494-.28376-.8202-.68574-.0827-.45519.2183-.89265.6727-.97541l12.0674-2.18727c.4484-.08276.891.21873.9736.67392s-.2183.89264-.6727.9754l-12.0674 2.18727c-.0472.01183-.1003.01183-.1475.01183z"/><path d="m52.9845 91.8063c-.1711 0-.3482-.0532-.4957-.1655-.3717-.272-.4544-.7981-.177-1.1705 5.0866-6.9224 5.8183-9.0092 5.8478-9.092.7907-2.5538.6727-5.4859-.3422-8.7136-.1417-.4434.1062-.9104.5487-1.0522.4426-.136.9088.1064 1.0504.5497 1.1212 3.5588 1.2333 6.8338.3423 9.7245-.0709.2247-.8321 2.4178-6.0957 9.5826-.1652.2247-.419.3429-.6727.3429z"/><path d="m33.8536 128.848s-.0472 0-.0708 0c-.4603-.006-.832-.39-.8202-.851.0059-.456.3835-.822.8379-.822h.059c.3187 0 .8851-.065 1.3749-.455.6786-.544.9147-1.496.7553-2.105-.3009-1.158-1.7112-2.075-3.3694-2.211-.0354 0-.0767 0-.118-.006-.4544-.035-.7966-.437-.7671-.898.0354-.461.4248-.804.8851-.775.0354 0 .0767 0 .1121.006 1.552.095 2.7735-.549 3.0449-1.247.1475-.378.0708-.887-.2065-1.395-.4721-.857-1.3985-1.519-2.5256-1.821-.1475-.029-.2951-.059-.4426-.1-.4367-.113-.7022-.556-.6019-.994.1003-.437.5311-.727.9678-.638.1475.03.3009.059.4425.1.9442.172 1.7349.001 2.3014-.484.5724-.491.8851-1.301.832-2.134-.3658-.911-1.1034-1.265-2.2541-1.756-.7258-.307-1.4753-.627-2.1362-1.194-.2301-.195-.3363-.491-.2832-.786.0531-.296.2596-.538.537-.639.5016-.183 1.0562-.319 1.5932-.443 1.611-.39 2.6495-.704 2.8915-1.614-.4721-.851-1.0681-1.62-1.7703-2.294-.6786-.65-1.4457-1.194-2.2837-1.625-.3363-.172-.5192-.556-.4366-.929.0826-.372.4071-.644.7848-.656 2.0358-.077 3.4166-1.454 3.393-2.6481-.0236-1.0286-1.1447-1.8089-1.2746-1.8917-.3835-.2542-.4897-.7744-.2301-1.1646.2596-.3842.7789-.4906 1.1625-.2305.4603.3074 1.9768 1.4601 2.0181 3.2513.0354 1.5016-1.0622 3.1216-2.8856 3.9016.3187.248.6196.508.9147.786.9028.863 1.6522 1.868 2.2305 2.98.0768.147.1063.313.0886.479-.2361 2.11-2.1126 2.766-3.6999 3.168.0177.006.0295.012.0472.018 1.2156.52 2.5964 1.105 3.2101 2.831.0236.066.0354.131.0472.196.1475 1.43-.3777 2.802-1.3985 3.682-.2538.219-.5311.397-.8321.544.4308.385.7967.828 1.0622 1.313.5252.946.6373 1.974.301 2.82-.2715.691-.8262 1.265-1.5579 1.667.9088.614 1.5697 1.46 1.8234 2.423.3482 1.324-.2124 2.944-1.3277 3.843-.8793.703-1.8647.822-2.4194.822z"/><path d="m31.6704 147.925c-.236 0-.4662-.101-.6314-.29-.3009-.349-.2655-.881.0885-1.182.2066-.178.3364-.438.3541-.716.0177-.248-.059-.484-.2183-.662-.242-.272-.2774-.662-.1004-.975.1771-.313.5429-.479.8911-.402.6786.142 1.31-.402 1.5165-.981.2538-.722-.2714-.988-.4426-1.076-.3481-.178-.5251-.574-.4307-.952s.4189-.638.832-.633h.0295c.7671 0 .8379-.762.8379-.916.0059-.154 0-.928-.7848-.969-.4425-.024-.7848-.385-.7907-.828s.3304-.81.773-.845c1.0386-.083 1.0445-1.153 1.0445-1.271 0-.124-.0531-1.189-1.0976-1.23-.4249-.018-.7671-.343-.8025-.768-.0354-.42.2478-.804.6609-.893.6491-.136.9146-.692.95-1.171.0295-.484-.1593-1.075-.7907-1.306-.4367-.154-.6609-.633-.5075-1.07.1535-.437.6314-.668 1.0681-.508 1.2274.437 1.9945 1.643 1.9001 2.997-.0472.656-.2891 1.253-.6727 1.72.6137.556.9441 1.377.9618 2.181.0177.787-.2596 1.597-.8261 2.176.419.514.6137 1.182.5901 1.844-.0295.787-.3836 1.573-1.0268 2.052.3069.585.3482 1.288.1004 2.009-.3069.875-1.0681 1.679-2.0241 1.993.0295.189.0413.384.0236.585-.0472.721-.3835 1.401-.9264 1.868-.1593.136-.3541.201-.5488.201z"/><path d="m42.5635 135.386c-.1416 0-.2892-.035-.419-.112-.4839-.284-1.6522-1.111-2.0476-2.642-.1121-.438-.4544-1.78.3482-2.767.5841-.721 1.4398-.84 2.0889-.881-.3069-.372-.714-.863-1.192-1.578-.8143-1.218-1.0681-1.922-.9619-2.672.1299-.911.7141-1.484.9383-1.703.6845-.674 1.4634-.934 2.0889-1.07-.4012-.325-.8969-.774-1.3395-1.401-.4957-.691-.8497-1.478-1.0563-2.347-.0472-.201-.0177-.414.0827-.597.3127-.567 1.2214-1.945 3.0035-2.542.1358-.047.2715-.083.4072-.118-.2715-.278-.5311-.573-.773-.887-.6373-.833-1.1389-1.755-1.4871-2.749-.0531-.159-.059-.331-.0177-.49.118-.438.5075-1.537 1.611-2.199.478-.284 1.0149-.444 1.5637-.479-1.3749-2.359-1.664-4.375-.6904-5.392.4426-.461 1.3631-.916 3.2396-.443.4485.112.7199.568.6078 1.017s-.5665.721-1.0149.609c-1.2923-.325-1.6228-.024-1.6228-.024-.3422.361-.0826 2.27 2.0653 5.066.2479.325.2302.781-.0472 1.082-.2773.302-.7317.355-1.0739.13-.6904-.449-1.5402-.502-2.1657-.124-.4366.26-.6668.668-.7789.958.2832.727.6609 1.401 1.1389 2.016.6255.809 1.3867 1.483 2.2659 2.01.3541.212.5016.656.3482 1.04-.1593.384-.5724.597-.9737.497-.4838-.119-1.2333-.207-2.0653.076-.9913.331-1.5932 1.029-1.906 1.484.1593.532.3954 1.011.7022 1.443.4308.603.9206.987 1.3159 1.3.4957.39 1.1094.869.9147 1.638-.1889.762-.9442.898-1.4989.999-.5488.1-1.1742.212-1.6699.703-.1298.13-.4072.402-.4544.751-.0177.136-.0531.384.6904 1.501.478.716.8852 1.2 1.1802 1.549.4721.562.9146 1.094.6373 1.786-.301.768-1.1094.809-1.6995.839-.4307.024-.9146.047-1.1034.278-.124.154-.2302.502-.0236 1.294.236.917.9677 1.431 1.2687 1.608.4012.237.531.745.3009 1.147-.1534.266-.4367.414-.7199.414z"/><path d="m48.5292 103.559c-.1593 0-.3245-.048-.4661-.142-.6255-.42-2.1834-1.638-3.0921-3.766-.3895-.9163-.6078-1.8976-.6432-2.8434-.0177-.4611.3481-.8513.8084-.8631.4485-.0296.8497.3488.8615.8099.0236.7389.2007 1.5133.5075 2.2405.7317 1.7201 1.9827 2.6961 2.4843 3.0321.3836.261.4839.781.2242 1.165-.1593.242-.4248.372-.6963.372z"/><path d="m25.3859 161.639c-.5252 0-1.0976-.195-1.7231-.579-.3953-.243-.5133-.757-.2714-1.153s.7612-.52 1.1507-.272c.5016.308.8202.361.95.313.0531-.023.0945-.088.2302-.348.1888-.373.4661-.934 1.1507-1.366 1.0031-.638 2.201-.579 2.3367-.567.2479.017.4485.053.6019.088 0-.035.0059-.071.0118-.106.0472-.414.1062-.981.4957-1.478.4072-.526 1.0386-.828 1.9119-.899-.1416-.809.0236-1.655.4898-2.352.3953-.592.9736-1.023 1.6345-1.254-.4484-1.176-.2773-2.488.5547-3.275.3659-.348.8026-.532 1.2097-.62-.2124-.899-.0767-1.868.419-2.726.4544-.786 1.133-1.359 1.9178-1.649-.3777-.615-.6609-1.383-.4957-2.217.1357-.691.6255-1.342 1.251-1.69-.2773-.722-.3246-1.531-.1003-2.324.3776-1.353 1.4575-2.358 2.8088-2.613.4544-.082.8911.213.9796.668.0885.456-.2125.893-.6668.982-.7317.136-1.2982.668-1.5048 1.419-.2065.744 0 1.489.5488 1.992.3246.295.3718.786.1003 1.135-.2655.349-.7553.431-1.1211.189-.0295-.024-.0708-.047-.1771 0-.2065.089-.4307.355-.472.573-.124.645.531 1.419 1.0385 1.945.242.254.3069.633.1476.952-.1535.319-.4957.502-.8439.461-.95-.1-1.6286.461-1.9591 1.023-.3304.567-.4721 1.448.0944 2.223.2066.283.2184.662.0295.957-.1888.296-.5429.438-.8851.361-.0059 0-.7848-.172-1.1625.189s-.4544 1.36.2951 2.17c.2419.26.295.638.1298.951-.1594.314-.5016.497-.8498.45-.596-.077-1.1978.189-1.5224.673-.36.538-.3423 1.266.0472 1.803.1947.272.2065.627.0413.917-.1711.284-.4898.443-.8202.408-1.0563-.124-1.5874.029-1.7349.218-.1003.125-.1239.385-.1534.639-.0531.467-.1298 1.17-.8084 1.531-.4544.236-.8439.13-1.1035.059-.1416-.035-.2715-.071-.4721-.083-.2124-.017-.8733.018-1.3395.314-.2891.183-.4013.402-.5488.697-.1888.379-.4485.899-1.1094 1.159-.2242.089-.4661.136-.7199.136z"/><path d="m22.0223 154.752c-.3245 0-.6314-.189-.7671-.502-.1829-.426.0118-.916.4307-1.105 1.6936-.739 2.9446-2.312 3.3459-4.215.3009-1.413.0531-2.749-.7199-3.861-.8439-1.212-2.2601-2.045-3.8887-2.287-1.9061-.278-3.8298.254-5.2637 1.472-1.3218 1.117-2.0653 2.683-2.1066 4.41-.0118.455-.3836.821-.8379.821h-.0177c-.4603-.012-.8262-.396-.8203-.857.0472-2.211 1.0032-4.221 2.6967-5.651 1.8057-1.525 4.2074-2.205 6.5914-1.851 2.083.308 3.9123 1.395 5.0217 2.986 1.0267 1.478 1.3749 3.316.9795 5.166-.5192 2.43-2.1302 4.452-4.3135 5.404-.1063.047-.2243.07-.3305.07z"/><path d="m20.7299 158.152c-2.5078 0-5.0866-1.023-6.9217-2.826-1.9946-1.957-2.8266-4.481-2.3309-7.094.0885-.455.5252-.751.9795-.668.4544.089.7495.526.6668.981-.3894 2.046.2715 4.026 1.8588 5.581 1.8942 1.862 4.7267 2.719 7.2169 2.199.4543-.094.8969.195.9913.644.0944.456-.1947.899-.6432.994-.5901.124-1.1979.183-1.8116.183z"/><path d="m19.9982 162c-2.98 0-5.96-1.135-8.3498-3.287-3.39307-3.056-5.10434-7.531-4.46114-11.681.74942-4.853 4.85644-8.997 9.99614-10.079 5.1929-1.1 10.4683 1.466 12.8346 6.225 2.4843 5.001.2596 11.232-4.9568 13.892-.5783.295-1.1802.538-1.7821.715-.4426.13-.9087-.124-1.0386-.567-.1298-.444.124-.911.5665-1.041.5075-.148 1.0091-.349 1.4989-.603 4.4021-2.246 6.2963-7.472 4.2191-11.651-1.9945-4.014-6.6149-6.255-10.9934-5.333-4.4729.946-8.04298 4.523-8.68618 8.696-.55468 3.6.95005 7.502 3.92998 10.18 3.0449 2.737 7.1756 3.582 10.7751 2.205.4308-.166.9147.053 1.0799.485.1652.431-.0531.916-.4839 1.081-1.3395.515-2.738.763-4.1424.763z"/><path d="m29.9354 150.75c-.36 0-.6963-.236-.8026-.603-.1298-.443.124-.91.5665-1.04.4072-.118.5547-.248.5724-.29.0118-.059-.059-.266-.0944-.384-.1239-.384-.3127-.958.059-1.519.1947-.29.5901-.639 1.3985-.662.4662-.03.8498.343.8675.81.0177.437-.3069.809-.7317.863.1121.354.2891.886.0767 1.472-.2184.614-.7849 1.064-1.6759 1.324-.0767.023-.1593.035-.236.035z"/><path d="m17.8443 155.415c-.1652 0-.3363 0-.5075 0-.6373-.012-1.2923-.048-1.8883-.107s-1.2038-.148-1.7997-.254c-.4544-.083-.7554-.52-.6728-.975.0827-.456.5193-.757.9737-.674.5547.1 1.1153.183 1.6641.236.5547.053 1.1565.089 1.7525.101.5901.011 1.133 0 1.5225-.024 1.009-.065 2.0712-.319 3.1629-.739.4307-.166.9146.047 1.0799.479.1652.431-.0473.916-.478 1.082-1.251.484-2.4843.774-3.6586.851-.3187.024-.7199.029-1.1566.029z"/><path d="m30.9444 4.61683c-.3304 0-.6432-.19509-.773-.52022-.2242-.54386-.3305-1.12911-.3246-1.72026-1.5519.76259-3.1393 1.47789-4.7325 2.12816-.4249.17734-.9147-.02956-1.0917-.4611-.177-.43155.0295-.91629.4603-1.09364 2.0889-.85717 4.1661-1.81484 6.1606-2.8611885.3186-.1655232.7081-.1123193.9677.1418775.2597.248284.3305.638446.1711.963581-.3304.70347-.3599 1.54883-.0649 2.26412.1771.42563-.0295.91629-.4543 1.09364-.1063.04138-.2125.06503-.3187.06503z"/><path d="m51.5859 5.93506c-.2773 0-.5428-.13597-.7022-.38425-.2478-.39016-.1357-.91038.2538-1.15867.0472-.02955.0944-.05911.1475-.08867-.2124-.14188-.4131-.3074-.6019-.49657-.4662-.46701-.7612-1.04043-.8733-1.62567-2.8797.89855-5.8833 1.33009-8.8986 1.31236-.4603 0-.8321-.38425-.8262-.84535 0-.4611.3777-.82762.838-.82762h.0059c3.2514.03547 6.4674-.5143 9.53-1.619762.3186-.1182312.6786-.023646.9087.23055.2242.254197.2774.620712.1239.928112-.1947.39016.0472.94585.3718 1.27098.4603.4611 1.1566.73303 1.8352.99905.3481.13597.5665.49066.5252.869-.0413.37243-.3246.67983-.6963.73894-.5252.08868-1.0445.28376-1.493.57342-.1416.08868-.295.13006-.4485.13006z"/></g><path d="m36.1314 94.7824h-.1801c-.0858-.0108-.1724-.0291-.258-.055-.1767-.0547-.2795-.2421-.2277-.4247.0562-.178.2441-.2784.4245-.2254l.0017.0005c.2858.0829.5659-.0028.7581-.1099.1992-.111.3952-.2938.5037-.5371.2347-.5138.0886-1.1534-.2287-1.5879-.3386-.4651-.8875-.7886-1.5037-.9514l-.0003-.0001c-.1806-.0476-.2872-.2342-.2403-.4106l.0004-.0016c.048-.1825.2343-.2875.4083-.241l.0023.0006c.8088.2118 1.4713.6509 1.8718 1.1957l.0009.0013c.5093.6885.6091 1.5851.3003 2.2695l-.0003.0005c-.2972.6605-.9688 1.0766-1.6329 1.0766z" fill="#1c595e" stroke="#000"/></g></svg>